999
dxfrw 0.6.3
  0
SECTION
  2
HEADER
  9
$ACADVER
  1
AC1021
  9
$DWGCODEPAGE
  3
ANSI_1252
  9
$INSBASE
 10
0
 20
0
 30
0
  9
$EXTMIN
 10
-315
 20
-20
 30
0
  9
$EXTMAX
 10
20
 20
90
 30
0
  9
$LIMMIN
 10
0
 20
0
  9
$LIMMAX
 10
420
 20
297
  9
$ORTHOMODE
 70
    0
  9
$REGENMODE
 70
    1
  9
$FILLMODE
 70
    1
  9
$QTEXTMODE
 70
    0
  9
$MIRRTEXT
 70
    0
  9
$LTSCALE
 40
1
  9
$ATTMODE
 70
    0
  9
$TEXTSIZE
 40
2.5
  9
$TRACEWID
 40
15.68
  9
$TEXTSTYLE
  7
STANDARD
  9
$CLAYER
  8
leather
  9
$CELTYPE
  6
BYLAYER
  9
$CECOLOR
 62
  256
  9
$CELTSCALE
 40
1
  9
$DISPSILH
 70
    0
  9
$DIMSCALE
 40
2.5
  9
$DIMASZ
 40
2.5
  9
$DIMEXO
 40
0.625
  9
$DIMDLI
 40
3.75
  9
$DIMRND
 40
0
  9
$DIMDLE
 40
0
  9
$DIMEXE
 40
1.25
  9
$DIMTP
 40
0
  9
$DIMTM
 40
0
  9
$DIMTXT
 40
2.5
  9
$DIMCEN
 40
2.5
  9
$DIMTSZ
 40
0
  9
$DIMTOL
 70
    0
  9
$DIMLIM
 70
    0
  9
$DIMTIH
 70
    0
  9
$DIMTOH
 70
    0
  9
$DIMSE1
 70
    0
  9
$DIMSE2
 70
    0
  9
$DIMTAD
 70
    1
  9
$DIMZIN
 70
    8
  9
$DIMBLK
  1

  9
$DIMASO
 70
    1
  9
$DIMSHO
 70
    1
  9
$DIMPOST
  1

  9
$DIMAPOST
  1

  9
$DIMALT
 70
    0
  9
$DIMALTD
 70
    3
  9
$DIMALTF
 40
0.03937
  9
$DIMLFAC
 40
1
  9
$DIMTOFL
 70
    1
  9
$DIMTVP
 40
0
  9
$DIMTIX
 70
    0
  9
$DIMSOXD
 70
    0
  9
$DIMSAH
 70
    0
  9
$DIMBLK1
  1

  9
$DIMBLK2
  1

  9
$DIMSTYLE
  2
STANDARD
  9
$DIMCLRD
 70
    0
  9
$DIMCLRE
 70
    0
  9
$DIMCLRT
 70
    0
  9
$DIMTFAC
 40
1
  9
$DIMGAP
 40
0.625
  9
$DIMJUST
 70
    0
  9
$DIMSD1
 70
    0
  9
$DIMSD2
 70
    0
  9
$DIMTOLJ
 70
    0
  9
$DIMTZIN
 70
    8
  9
$DIMALTZ
 70
    0
  9
$DIMALTTZ
 70
    0
  9
$DIMUPT
 70
    0
  9
$DIMDEC
 70
    2
  9
$DIMTDEC
 70
    2
  9
$DIMALTU
 70
    2
  9
$DIMALTTD
 70
    3
  9
$DIMTXSTY
  7
STANDARD
  9
$DIMAUNIT
 70
    0
  9
$DIMADEC
 70
    0
  9
$DIMALTRND
 40
0
  9
$DIMAZIN
 70
    0
  9
$DIMDSEP
 70
   44
  9
$DIMATFIT
 70
    3
  9
$DIMFRAC
 70
    0
  9
$DIMLDRBLK
  1
STANDARD
  9
$DIMLUNIT
 70
    2
  9
$DIMLWD
 70
   -2
  9
$DIMLWE
 70
   -2
  9
$DIMTMOVE
 70
    0
  9
$DIMFXL
 40
1
  9
$DIMFXLON
 70
    0
  9
$DIMJOGANG
 40
0.7854
  9
$DIMTFILL
 70
    0
  9
$DIMTFILLCLR
 70
    0
  9
$DIMARCSYM
 70
    0
  9
$DIMLTYPE
  6

  9
$DIMLTEX1
  6

  9
$DIMLTEX2
  6

  9
$LUNITS
 70
    2
  9
$LUPREC
 70
    4
  9
$SKETCHINC
 40
1
  9
$FILLETRAD
 40
0
  9
$AUNITS
 70
    0
  9
$AUPREC
 70
    2
  9
$MENU
  1
.
  9
$ELEVATION
 40
0
  9
$PELEVATION
 40
0
  9
$THICKNESS
 40
0
  9
$LIMCHECK
 70
    0
  9
$CHAMFERA
 40
0
  9
$CHAMFERB
 40
0
  9
$CHAMFERC
 40
0
  9
$CHAMFERD
 40
0
  9
$SKPOLY
 70
    0
  9
$USRTIMER
 70
    1
  9
$ANGBASE
 50
0
  9
$ANGDIR
 70
    0
  9
$PDMODE
 70
   34
  9
$PDSIZE
 40
0
  9
$PLINEWID
 40
0
  9
$SPLFRAME
 70
    0
  9
$SPLINETYPE
 70
    2
  9
$SPLINESEGS
 70
    8
  9
$HANDSEED
  5
20000
  9
$SURFTAB1
 70
    6
  9
$SURFTAB2
 70
    6
  9
$SURFTYPE
 70
    6
  9
$SURFU
 70
    6
  9
$SURFV
 70
    6
  9
$UCSBASE
  2

  9
$UCSNAME
  2

  9
$UCSORG
 10
0
 20
0
 30
0
  9
$UCSXDIR
 10
1
 20
0
 30
0
  9
$UCSYDIR
 10
0
 20
1
 30
0
  9
$UCSORTHOREF
  2

  9
$UCSORTHOVIEW
 70
    0
  9
$UCSORGTOP
 10
0
 20
0
 30
0
  9
$UCSORGBOTTOM
 10
0
 20
0
 30
0
  9
$UCSORGLEFT
 10
0
 20
0
 30
0
  9
$UCSORGRIGHT
 10
0
 20
0
 30
0
  9
$UCSORGFRONT
 10
0
 20
0
 30
0
  9
$UCSORGBACK
 10
0
 20
0
 30
0
  9
$PUCSBASE
  2

  9
$PUCSNAME
  2

  9
$PUCSORG
 10
0
 20
0
 30
0
  9
$PUCSXDIR
 10
1
 20
0
 30
0
  9
$PUCSYDIR
 10
0
 20
1
 30
0
  9
$PUCSORTHOREF
  2

  9
$PUCSORTHOVIEW
 70
    0
  9
$PUCSORGTOP
 10
0
 20
0
 30
0
  9
$PUCSORGBOTTOM
 10
0
 20
0
 30
0
  9
$PUCSORGLEFT
 10
0
 20
0
 30
0
  9
$PUCSORGRIGHT
 10
0
 20
0
 30
0
  9
$PUCSORGFRONT
 10
0
 20
0
 30
0
  9
$PUCSORGBACK
 10
0
 20
0
 30
0
  9
$USERI1
 70
    0
  9
$USERI2
 70
    0
  9
$USERI3
 70
    0
  9
$USERI4
 70
    0
  9
$USERI5
 70
    0
  9
$USERR1
 40
0
  9
$USERR2
 40
0
  9
$USERR3
 40
0
  9
$USERR4
 40
0
  9
$USERR5
 40
0
  9
$WORLDVIEW
 70
    1
  9
$SHADEDGE
 70
    3
  9
$SHADEDIF
 70
   70
  9
$TILEMODE
 70
    1
  9
$MAXACTVP
 70
   64
  9
$PINSBASE
 10
0
 20
0
 30
0
  9
$PLIMCHECK
 70
    0
  9
$PEXTMIN
 10
0
 20
0
 30
0
  9
$PEXTMAX
 10
0
 20
0
 30
0
  9
$GRIDMODE
 70
    1
  9
$SNAPSTYLE
 70
    0
  9
$PLIMMIN
 10
0
 20
0
  9
$PLIMMAX
 10
210
 20
297
  9
$UNITMODE
 70
    0
  9
$VISRETAIN
 70
    1
  9
$PLINEGEN
 70
    0
  9
$PSLTSCALE
 70
    1
  9
$TREEDEPTH
 70
 3020
  9
$CMLSTYLE
  2
Standard
  9
$CMLJUST
 70
    0
  9
$CMLSCALE
 40
20
  9
$PROXYGRAPHICS
 70
    1
  9
$MEASUREMENT
 70
    1
  9
$CELWEIGHT
370
   -1
  9
$ENDCAPS
280
    0
  9
$JOINSTYLE
280
    0
  9
$LWDISPLAY
290
    0
  9
$INSUNITS
 70
    4
  9
$HYPERLINKBASE
  1

  9
$STYLESHEET
  1

  9
$XEDIT
290
    1
  9
$CEPSNTYPE
380
    0
  9
$PSTYLEMODE
290
    1
  9
$EXTNAMES
290
    1
  9
$PSVPSCALE
 40
1
  9
$OLESTARTUP
290
    0
  9
$SORTENTS
280
  127
  9
$INDEXCTL
280
    0
  9
$HIDETEXT
280
    1
  9
$XCLIPFRAME
290
    0
  9
$HALOGAP
280
    0
  9
$OBSCOLOR
 70
  257
  9
$OBSLTYPE
280
    0
  9
$INTERSECTIONDISPLAY
280
    0
  9
$INTERSECTIONCOLOR
 70
  257
  9
$DIMASSOC
280
    1
  9
$PROJECTNAME
  1

  9
$CAMERADISPLAY
290
    0
  9
$LENSLENGTH
 40
50
  9
$CAMERAHEIGHT
 40
0
  9
$STEPSPERSEC
 40
2
  9
$STEPSIZE
 40
50
  9
$3DDWFPREC
 40
2
  9
$PSOLWIDTH
 40
5
  9
$PSOLHEIGHT
 40
80
  9
$LOFTANG1
 40
1.570796326794897
  9
$LOFTANG2
 40
1.570796326794897
  9
$LOFTMAG1
 40
0
  9
$LOFTMAG2
 40
0
  9
$LOFTPARAM
 70
    7
  9
$LOFTNORMALS
280
    1
  9
$LATITUDE
 40
1
  9
$LONGITUDE
 40
1
  9
$NORTHDIRECTION
 40
0
  9
$TIMEZONE
 70
-8000
  9
$LIGHTGLYPHDISPLAY
280
    1
  9
$TILEMODELIGHTSYNCH
280
    1
  9
$SOLIDHIST
280
    1
  9
$SHOWHIST
280
    1
  9
$DWFFRAME
280
    2
  9
$DGNFRAME
280
    0
  9
$REALWORLDSCALE
290
    1
  9
$INTERFERECOLOR
 62
    1
  9
$CSHADOW
280
    0
  9
$SHADOWPLANELOCATION
 40
0
  0
ENDSEC
  0
SECTION
  2
CLASSES
  0
ENDSEC
  0
SECTION
  2
TABLES
  0
TABLE
  2
VPORT
  5
8
330
0
100
AcDbSymbolTable
 70
    1
  0
VPORT
  5
31
330
2
100
AcDbSymbolTableRecord
100
AcDbViewportTableRecord
  2
*ACTIVE
 70
    0
 10
0
 20
0
 11
1
 21
1
 12
44.09140380068471
 22
47.95907080074477
 13
0
 23
0
 14
10
 24
10
 15
10
 25
10
 16
0
 26
0
 36
1
 17
0
 27
0
 37
0
 40
123.378577301916
 41
2.001567398119122
 42
50
 43
0
 44
0
 50
0
 51
0
 71
    0
 72
  100
 73
    1
 74
    3
 75
    0
 76
    1
 77
    0
 78
    0
281
    0
 65
    1
110
0
120
0
130
0
111
1
121
0
131
0
112
0
122
1
132
0
 79
    0
146
0
348
10020
 60
    7
 61
    5
292
1
282
    1
141
0
142
0
 63
  250
421
3358443
  0
ENDTAB
  0
TABLE
  2
LTYPE
  5
5
330
0
100
AcDbSymbolTable
 70
    4
  0
LTYPE
  5
14
330
5
100
AcDbSymbolTableRecord
100
AcDbLinetypeTableRecord
  2
ByBlock
 70
    0
  3

 72
   65
 73
    0
 40
0
  0
LTYPE
  5
15
330
5
100
AcDbSymbolTableRecord
100
AcDbLinetypeTableRecord
  2
ByLayer
 70
    0
  3

 72
   65
 73
    0
 40
0
  0
LTYPE
  5
16
330
5
100
AcDbSymbolTableRecord
100
AcDbLinetypeTableRecord
  2
Continuous
 70
    0
  3
Solid line
 72
   65
 73
    0
 40
0
  0
LTYPE
  5
32
330
5
100
AcDbSymbolTableRecord
100
AcDbLinetypeTableRecord
  2
DOT
 70
    0
  3
Dot . . . . . . . . . . . . . . . . . . . . . .
 72
   65
 73
    2
 40
6.35
 49
0
 74
    0
 49
-6.35
 74
    0
  0
LTYPE
  5
33
330
5
100
AcDbSymbolTableRecord
100
AcDbLinetypeTableRecord
  2
DOTTINY
 70
    0
  3
Dot (.15x) .....................................
 72
   65
 73
    2
 40
0.9525
 49
0
 74
    0
 49
-0.9525
 74
    0
  0
LTYPE
  5
34
330
5
100
AcDbSymbolTableRecord
100
AcDbLinetypeTableRecord
  2
DOT2
 70
    0
  3
Dot (.5x) .....................................
 72
   65
 73
    2
 40
3.175
 49
0
 74
    0
 49
-3.175
 74
    0
  0
LTYPE
  5
35
330
5
100
AcDbSymbolTableRecord
100
AcDbLinetypeTableRecord
  2
DOTX2
 70
    0
  3
Dot (2x) .  .  .  .  .  .  .  .  .  .  .  .  .
 72
   65
 73
    2
 40
12.7
 49
0
 74
    0
 49
-12.7
 74
    0
  0
LTYPE
  5
36
330
5
100
AcDbSymbolTableRecord
100
AcDbLinetypeTableRecord
  2
DASHED
 70
    0
  3
Dashed _ _ _ _ _ _ _ _ _ _ _ _ _ _ _ _ _
 72
   65
 73
    2
 40
19.05
 49
12.7
 74
    0
 49
-6.35
 74
    0
  0
LTYPE
  5
37
330
5
100
AcDbSymbolTableRecord
100
AcDbLinetypeTableRecord
  2
DASHEDTINY
 70
    0
  3
Dashed (.15x) _ _ _ _ _ _ _ _ _ _ _ _ _ _ _ _ _
 72
   65
 73
    2
 40
2.8575
 49
1.905
 74
    0
 49
-0.9525
 74
    0
  0
LTYPE
  5
38
330
5
100
AcDbSymbolTableRecord
100
AcDbLinetypeTableRecord
  2
DASHED2
 70
    0
  3
Dashed (.5x) _ _ _ _ _ _ _ _ _ _ _ _ _ _ _ _ _
 72
   65
 73
    2
 40
9.524999999999999
 49
6.35
 74
    0
 49
-3.175
 74
    0
  0
LTYPE
  5
39
330
5
100
AcDbSymbolTableRecord
100
AcDbLinetypeTableRecord
  2
DASHEDX2
 70
    0
  3
Dashed (2x) ____  ____  ____  ____  ____  ___
 72
   65
 73
    2
 40
38.09999999999999
 49
25.4
 74
    0
 49
-12.7
 74
    0
  0
LTYPE
  5
3A
330
5
100
AcDbSymbolTableRecord
100
AcDbLinetypeTableRecord
  2
DASHDOT
 70
    0
  3
Dash dot __ . __ . __ . __ . __ . __ . __ . __
 72
   65
 73
    4
 40
25.4
 49
12.7
 74
    0
 49
-6.35
 74
    0
 49
0
 74
    0
 49
-6.35
 74
    0
  0
LTYPE
  5
3B
330
5
100
AcDbSymbolTableRecord
100
AcDbLinetypeTableRecord
  2
DASHDOTTINY
 70
    0
  3
Dash dot (.15x) _._._._._._._._._._._._._._._.
 72
   65
 73
    4
 40
3.81
 49
1.905
 74
    0
 49
-0.9525
 74
    0
 49
0
 74
    0
 49
-0.9525
 74
    0
  0
LTYPE
  5
3C
330
5
100
AcDbSymbolTableRecord
100
AcDbLinetypeTableRecord
  2
DASHDOT2
 70
    0
  3
Dash dot (.5x) _._._._._._._._._._._._._._._.
 72
   65
 73
    4
 40
12.7
 49
6.35
 74
    0
 49
-3.175
 74
    0
 49
0
 74
    0
 49
-3.175
 74
    0
  0
LTYPE
  5
3D
330
5
100
AcDbSymbolTableRecord
100
AcDbLinetypeTableRecord
  2
DASHDOTX2
 70
    0
  3
Dash dot (2x) ____  .  ____  .  ____  .  ___
 72
   65
 73
    4
 40
50.8
 49
25.4
 74
    0
 49
-12.7
 74
    0
 49
0
 74
    0
 49
-12.7
 74
    0
  0
LTYPE
  5
3E
330
5
100
AcDbSymbolTableRecord
100
AcDbLinetypeTableRecord
  2
DIVIDE
 70
    0
  3
Divide ____ . . ____ . . ____ . . ____ . . ____
 72
   65
 73
    6
 40
31.75
 49
12.7
 74
    0
 49
-6.35
 74
    0
 49
0
 74
    0
 49
-6.35
 74
    0
 49
0
 74
    0
 49
-6.35
 74
    0
  0
LTYPE
  5
3F
330
5
100
AcDbSymbolTableRecord
100
AcDbLinetypeTableRecord
  2
DIVIDETINY
 70
    0
  3
Divide (.15x) __..__..__..__..__..__..__..__.._
 72
   65
 73
    6
 40
4.7625
 49
1.905
 74
    0
 49
-0.9525
 74
    0
 49
0
 74
    0
 49
-0.9525
 74
    0
 49
0
 74
    0
 49
-0.9525
 74
    0
  0
LTYPE
  5
40
330
5
100
AcDbSymbolTableRecord
100
AcDbLinetypeTableRecord
  2
DIVIDE2
 70
    0
  3
Divide (.5x) __..__..__..__..__..__..__..__.._
 72
   65
 73
    6
 40
15.875
 49
6.35
 74
    0
 49
-3.175
 74
    0
 49
0
 74
    0
 49
-3.175
 74
    0
 49
0
 74
    0
 49
-3.175
 74
    0
  0
LTYPE
  5
41
330
5
100
AcDbSymbolTableRecord
100
AcDbLinetypeTableRecord
  2
DIVIDEX2
 70
    0
  3
Divide (2x) ________  .  .  ________  .  .  _
 72
   65
 73
    6
 40
63.5
 49
25.4
 74
    0
 49
-12.7
 74
    0
 49
0
 74
    0
 49
-12.7
 74
    0
 49
0
 74
    0
 49
-12.7
 74
    0
  0
LTYPE
  5
42
330
5
100
AcDbSymbolTableRecord
100
AcDbLinetypeTableRecord
  2
BORDER
 70
    0
  3
Border __ __ . __ __ . __ __ . __ __ . __ __ .
 72
   65
 73
    6
 40
44.45
 49
12.7
 74
    0
 49
-6.35
 74
    0
 49
12.7
 74
    0
 49
-6.35
 74
    0
 49
0
 74
    0
 49
-6.35
 74
    0
  0
LTYPE
  5
43
330
5
100
AcDbSymbolTableRecord
100
AcDbLinetypeTableRecord
  2
BORDERTINY
 70
    0
  3
Border (.15x) __.__.__.__.__.__.__.__.__.__.__.
 72
   65
 73
    6
 40
6.6675
 49
1.905
 74
    0
 49
-0.9525
 74
    0
 49
1.905
 74
    0
 49
-0.9525
 74
    0
 49
0
 74
    0
 49
-0.9525
 74
    0
  0
LTYPE
  5
44
330
5
100
AcDbSymbolTableRecord
100
AcDbLinetypeTableRecord
  2
BORDER2
 70
    0
  3
Border (.5x) __.__.__.__.__.__.__.__.__.__.__.
 72
   65
 73
    6
 40
22.225
 49
6.35
 74
    0
 49
-3.175
 74
    0
 49
6.35
 74
    0
 49
-3.175
 74
    0
 49
0
 74
    0
 49
-3.175
 74
    0
  0
LTYPE
  5
45
330
5
100
AcDbSymbolTableRecord
100
AcDbLinetypeTableRecord
  2
BORDERX2
 70
    0
  3
Border (2x) ____  ____  .  ____  ____  .  ___
 72
   65
 73
    6
 40
88.89999999999999
 49
25.4
 74
    0
 49
-12.7
 74
    0
 49
25.4
 74
    0
 49
-12.7
 74
    0
 49
0
 74
    0
 49
-12.7
 74
    0
  0
LTYPE
  5
46
330
5
100
AcDbSymbolTableRecord
100
AcDbLinetypeTableRecord
  2
CENTER
 70
    0
  3
Center ____ _ ____ _ ____ _ ____ _ ____ _ ____
 72
   65
 73
    4
 40
50.8
 49
31.75
 74
    0
 49
-6.35
 74
    0
 49
6.35
 74
    0
 49
-6.35
 74
    0
  0
LTYPE
  5
47
330
5
100
AcDbSymbolTableRecord
100
AcDbLinetypeTableRecord
  2
CENTERTINY
 70
    0
  3
Center (.15x) ___ _ ___ _ ___ _ ___ _ ___ _ ___
 72
   65
 73
    4
 40
7.619999999999999
 49
4.7625
 74
    0
 49
-0.9525
 74
    0
 49
0.9525
 74
    0
 49
-0.9525
 74
    0
  0
LTYPE
  5
48
330
5
100
AcDbSymbolTableRecord
100
AcDbLinetypeTableRecord
  2
CENTER2
 70
    0
  3
Center (.5x) ___ _ ___ _ ___ _ ___ _ ___ _ ___
 72
   65
 73
    4
 40
28.575
 49
19.05
 74
    0
 49
-3.175
 74
    0
 49
3.175
 74
    0
 49
-3.175
 74
    0
  0
LTYPE
  5
49
330
5
100
AcDbSymbolTableRecord
100
AcDbLinetypeTableRecord
  2
CENTERX2
 70
    0
  3
Center (2x) ________  __  ________  __  _____
 72
   65
 73
    4
 40
101.6
 49
63.5
 74
    0
 49
-12.7
 74
    0
 49
12.7
 74
    0
 49
-12.7
 74
    0
  0
ENDTAB
  0
TABLE
  2
LAYER
  5
2
330
0
100
AcDbSymbolTable
 70
    1
  0
LAYER
  5
10
330
2
100
AcDbSymbolTableRecord
100
AcDbLayerTableRecord
  2
0
 70
    0
 62
    7
  6
CONTINUOUS
370
    0
390
F
  0
LAYER
  5
4A
330
2
100
AcDbSymbolTableRecord
100
AcDbLayerTableRecord
  2
LED_PAD
 70
    5
 62
    1
  6
CONTINUOUS
370
    0
390
F
  0
LAYER
  5
4B
330
2
100
AcDbSymbolTableRecord
100
AcDbLayerTableRecord
  2
holes
 70
    0
 62
    6
  6
CONTINUOUS
370
    0
390
F
  0
LAYER
  5
4C
330
2
100
AcDbSymbolTableRecord
100
AcDbLayerTableRecord
  2
leather
 70
    0
 62
    7
  6
CONTINUOUS
370
    0
390
F
  0
ENDTAB
  0
TABLE
  2
STYLE
  5
3
330
0
100
AcDbSymbolTable
 70
    3
  0
STYLE
  5
4D
330
2
100
AcDbSymbolTableRecord
100
AcDbTextStyleTableRecord
  2
Standard
 70
    0
 40
0
 41
1
 50
0
 71
    0
 42
1
  3
txt
  4

  0
ENDTAB
  0
TABLE
  2
VIEW
  5
6
330
0
100
AcDbSymbolTable
 70
    0
  0
ENDTAB
  0
TABLE
  2
UCS
  5
7
330
0
100
AcDbSymbolTable
 70
    0
  0
ENDTAB
  0
TABLE
  2
APPID
  5
9
330
0
100
AcDbSymbolTable
 70
    1
  0
APPID
  5
12
330
9
100
AcDbSymbolTableRecord
100
AcDbRegAppTableRecord
  2
ACAD
 70
    0
  0
APPID
  5
4E
330
9
100
AcDbSymbolTableRecord
100
AcDbRegAppTableRecord
  2
LibreCad
 70
    0
  0
ENDTAB
  0
TABLE
  2
DIMSTYLE
  5
A
330
0
100
AcDbSymbolTable
 70
    1
100
AcDbDimStyleTable
 71
    1
  0
DIMSTYLE
105
4F
330
A
100
AcDbSymbolTableRecord
100
AcDbDimStyleTableRecord
  2
Standard
 70
    0
 40
2.5
 41
2.5
 42
0.625
 43
0.38
 44
1.25
 45
0
 46
0
 47
0
 48
0
 49
1
140
2.5
141
0.09
142
0
143
25.4
144
1
145
0
146
1
147
0.625
148
0
 71
    0
 72
    0
 73
    0
 74
    1
 75
    0
 76
    0
 77
    0
 78
    8
 79
    0
170
    0
171
    2
172
    0
173
    0
174
    0
175
    0
176
    0
177
    0
178
    0
179
    0
271
    2
272
    4
273
    2
274
    2
275
    0
276
    0
277
    2
278
   44
279
    0
280
    0
281
    0
282
    0
283
    1
284
    0
285
    0
286
    0
288
    0
289
    3
340
STANDARD
341

371
   -2
372
   -2
  0
ENDTAB
  0
TABLE
  2
BLOCK_RECORD
  5
1
330
0
100
AcDbSymbolTable
 70
    2
  0
BLOCK_RECORD
  5
1F
330
1
100
AcDbSymbolTableRecord
100
AcDbBlockTableRecord
  2
*Model_Space
 70
    0
280
    1
281
    0
  0
BLOCK_RECORD
  5
1E
330
1
100
AcDbSymbolTableRecord
100
AcDbBlockTableRecord
  2
*Paper_Space
 70
    0
280
    1
281
    0
  0
ENDTAB
  0
ENDSEC
  0
SECTION
  2
BLOCKS
  0
BLOCK
  5
20
330
1F
100
AcDbEntity
  8
0
100
AcDbBlockBegin
  2
*Model_Space
 70
    0
 10
0
 20
0
 30
0
  3
*Model_Space
  1

  0
ENDBLK
  5
21
330
1F
100
AcDbEntity
  8
0
100
AcDbBlockEnd
  0
BLOCK
  5
1C
330
1B
100
AcDbEntity
  8
0
100
AcDbBlockBegin
  2
*Paper_Space
 70
    0
 10
0
 20
0
 30
0
  3
*Paper_Space
  1

  0
ENDBLK
  5
1D
330
1F
100
AcDbEntity
  8
0
100
AcDbBlockEnd
  0
ENDSEC
  0
SECTION
  2
ENTITIES
  0
POINT
  5
50
100
AcDbEntity
  8
LED_PAD
  6
ByLayer
 62
  256
370
   -1
100
AcDbPoint
 10
1.110223024625157e-16
 20
-3.05311331771918e-16
  0
LWPOLYLINE
  5
51
100
AcDbEntity
  8
LED_PAD
  6
ByLayer
 62
  256
370
   -1
100
AcDbPolyline
 90
    4
 70
    1
 43
0
 10
-2.5
 20
-2.5
 10
-2.5
 20
2.5
 10
2.5
 20
2.5
 10
2.5
 20
-2.5
  0
POINT
  5
52
100
AcDbEntity
  8
LED_PAD
  6
ByLayer
 62
  256
370
   -1
100
AcDbPoint
 10
7.233457020361924e-16
 20
10
  0
LWPOLYLINE
  5
53
100
AcDbEntity
  8
LED_PAD
  6
ByLayer
 62
  256
370
   -1
100
AcDbPolyline
 90
    4
 70
    1
 43
0
 10
-2.5
 20
7.5
 10
-2.499999999999999
 20
12.5
 10
2.500000000000001
 20
12.5
 10
2.5
 20
7.5
  0
POINT
  5
54
100
AcDbEntity
  8
LED_PAD
  6
ByLayer
 62
  256
370
   -1
100
AcDbPoint
 10
1.335669101609869e-15
 20
20
  0
LWPOLYLINE
  5
55
100
AcDbEntity
  8
LED_PAD
  6
ByLayer
 62
  256
370
   -1
100
AcDbPolyline
 90
    4
 70
    1
 43
0
 10
-2.499999999999999
 20
17.5
 10
-2.499999999999999
 20
22.5
 10
2.500000000000001
 20
22.5
 10
2.500000000000001
 20
17.5
  0
POINT
  5
56
100
AcDbEntity
  8
LED_PAD
  6
ByLayer
 62
  256
370
   -1
100
AcDbPoint
 10
1.947992501183546e-15
 20
30
  0
LWPOLYLINE
  5
57
100
AcDbEntity
  8
LED_PAD
  6
ByLayer
 62
  256
370
   -1
100
AcDbPolyline
 90
    4
 70
    1
 43
0
 10
-2.499999999999998
 20
27.5
 10
-2.499999999999998
 20
32.5
 10
2.500000000000002
 20
32.5
 10
2.500000000000002
 20
27.5
  0
POINT
  5
58
100
AcDbEntity
  8
LED_PAD
  6
ByLayer
 62
  256
370
   -1
100
AcDbPoint
 10
2.560315900757222e-15
 20
40
  0
LWPOLYLINE
  5
59
100
AcDbEntity
  8
LED_PAD
  6
ByLayer
 62
  256
370
   -1
100
AcDbPolyline
 90
    4
 70
    1
 43
0
 10
-2.499999999999998
 20
37.5
 10
-2.499999999999997
 20
42.5
 10
2.500000000000003
 20
42.5
 10
2.500000000000002
 20
37.5
  0
POINT
  5
5A
100
AcDbEntity
  8
LED_PAD
  6
ByLayer
 62
  256
370
   -1
100
AcDbPoint
 10
3.172639300330899e-15
 20
50
  0
LWPOLYLINE
  5
5B
100
AcDbEntity
  8
LED_PAD
  6
ByLayer
 62
  256
370
   -1
100
AcDbPolyline
 90
    4
 70
    1
 43
0
 10
-2.499999999999997
 20
47.5
 10
-2.499999999999997
 20
52.5
 10
2.500000000000003
 20
52.5
 10
2.500000000000003
 20
47.5
  0
POINT
  5
5C
100
AcDbEntity
  8
LED_PAD
  6
ByLayer
 62
  256
370
   -1
100
AcDbPoint
 10
3.784962699904576e-15
 20
60
  0
LWPOLYLINE
  5
5D
100
AcDbEntity
  8
LED_PAD
  6
ByLayer
 62
  256
370
   -1
100
AcDbPolyline
 90
    4
 70
    1
 43
0
 10
-2.499999999999996
 20
57.5
 10
-2.499999999999996
 20
62.5
 10
2.500000000000004
 20
62.5
 10
2.500000000000004
 20
57.5
  0
POINT
  5
5E
100
AcDbEntity
  8
LED_PAD
  6
ByLayer
 62
  256
370
   -1
100
AcDbPoint
 10
4.397286099478252e-15
 20
70
  0
LWPOLYLINE
  5
5F
100
AcDbEntity
  8
LED_PAD
  6
ByLayer
 62
  256
370
   -1
100
AcDbPolyline
 90
    4
 70
    1
 43
0
 10
-2.499999999999996
 20
67.5
 10
-2.499999999999996
 20
72.5
 10
2.500000000000004
 20
72.5
 10
2.500000000000004
 20
67.5
  0
POINT
  5
60
100
AcDbEntity
  8
LED_PAD
  6
ByLayer
 62
  256
370
   -1
100
AcDbPoint
 10
-10
 20
3.070120678017586e-16
  0
LWPOLYLINE
  5
61
100
AcDbEntity
  8
LED_PAD
  6
ByLayer
 62
  256
370
   -1
100
AcDbPolyline
 90
    4
 70
    1
 43
0
 10
-12.5
 20
-2.499999999999999
 10
-12.5
 20
2.500000000000001
 10
-7.5
 20
2.5
 10
-7.5
 20
-2.5
  0
POINT
  5
62
100
AcDbEntity
  8
LED_PAD
  6
ByLayer
 62
  256
370
   -1
100
AcDbPoint
 10
-10
 20
10
  0
LWPOLYLINE
  5
63
100
AcDbEntity
  8
LED_PAD
  6
ByLayer
 62
  256
370
   -1
100
AcDbPolyline
 90
    4
 70
    1
 43
0
 10
-12.5
 20
7.500000000000001
 10
-12.5
 20
12.5
 10
-7.499999999999999
 20
12.5
 10
-7.499999999999999
 20
7.500000000000001
  0
POINT
  5
64
100
AcDbEntity
  8
LED_PAD
  6
ByLayer
 62
  256
370
   -1
100
AcDbPoint
 10
-9.999999999999998
 20
20
  0
LWPOLYLINE
  5
65
100
AcDbEntity
  8
LED_PAD
  6
ByLayer
 62
  256
370
   -1
100
AcDbPolyline
 90
    4
 70
    1
 43
0
 10
-12.5
 20
17.5
 10
-12.5
 20
22.5
 10
-7.499999999999998
 20
22.5
 10
-7.499999999999999
 20
17.5
  0
POINT
  5
66
100
AcDbEntity
  8
LED_PAD
  6
ByLayer
 62
  256
370
   -1
100
AcDbPoint
 10
-9.999999999999998
 20
30
  0
LWPOLYLINE
  5
67
100
AcDbEntity
  8
LED_PAD
  6
ByLayer
 62
  256
370
   -1
100
AcDbPolyline
 90
    4
 70
    1
 43
0
 10
-12.5
 20
27.5
 10
-12.5
 20
32.5
 10
-7.499999999999998
 20
32.5
 10
-7.499999999999998
 20
27.5
  0
POINT
  5
68
100
AcDbEntity
  8
LED_PAD
  6
ByLayer
 62
  256
370
   -1
100
AcDbPoint
 10
-9.999999999999998
 20
40
  0
LWPOLYLINE
  5
69
100
AcDbEntity
  8
LED_PAD
  6
ByLayer
 62
  256
370
   -1
100
AcDbPolyline
 90
    4
 70
    1
 43
0
 10
-12.5
 20
37.5
 10
-12.5
 20
42.5
 10
-7.499999999999997
 20
42.5
 10
-7.499999999999997
 20
37.5
  0
POINT
  5
6A
100
AcDbEntity
  8
LED_PAD
  6
ByLayer
 62
  256
370
   -1
100
AcDbPoint
 10
-9.999999999999996
 20
50
  0
LWPOLYLINE
  5
6B
100
AcDbEntity
  8
LED_PAD
  6
ByLayer
 62
  256
370
   -1
100
AcDbPolyline
 90
    4
 70
    1
 43
0
 10
-12.5
 20
47.5
 10
-12.5
 20
52.5
 10
-7.499999999999996
 20
52.5
 10
-7.499999999999997
 20
47.5
  0
POINT
  5
6C
100
AcDbEntity
  8
LED_PAD
  6
ByLayer
 62
  256
370
   -1
100
AcDbPoint
 10
-9.999999999999996
 20
60
  0
LWPOLYLINE
  5
6D
100
AcDbEntity
  8
LED_PAD
  6
ByLayer
 62
  256
370
   -1
100
AcDbPolyline
 90
    4
 70
    1
 43
0
 10
-12.5
 20
57.5
 10
-12.5
 20
62.5
 10
-7.499999999999996
 20
62.5
 10
-7.499999999999996
 20
57.5
  0
POINT
  5
6E
100
AcDbEntity
  8
LED_PAD
  6
ByLayer
 62
  256
370
   -1
100
AcDbPoint
 10
-9.999999999999996
 20
70
  0
LWPOLYLINE
  5
6F
100
AcDbEntity
  8
LED_PAD
  6
ByLayer
 62
  256
370
   -1
100
AcDbPolyline
 90
    4
 70
    1
 43
0
 10
-12.5
 20
67.5
 10
-12.5
 20
72.5
 10
-7.499999999999996
 20
72.5
 10
-7.499999999999996
 20
67.5
  0
POINT
  5
70
100
AcDbEntity
  8
LED_PAD
  6
ByLayer
 62
  256
370
   -1
100
AcDbPoint
 10
-20
 20
9.193354673754352e-16
  0
LWPOLYLINE
  5
71
100
AcDbEntity
  8
LED_PAD
  6
ByLayer
 62
  256
370
   -1
100
AcDbPolyline
 90
    4
 70
    1
 43
0
 10
-22.5
 20
-2.499999999999999
 10
-22.5
 20
2.500000000000001
 10
-17.5
 20
2.500000000000001
 10
-17.5
 20
-2.499999999999999
  0
POINT
  5
72
100
AcDbEntity
  8
LED_PAD
  6
ByLayer
 62
  256
370
   -1
100
AcDbPoint
 10
-20
 20
10
  0
LWPOLYLINE
  5
73
100
AcDbEntity
  8
LED_PAD
  6
ByLayer
 62
  256
370
   -1
100
AcDbPolyline
 90
    4
 70
    1
 43
0
 10
-22.5
 20
7.500000000000002
 10
-22.5
 20
12.5
 10
-17.5
 20
12.5
 10
-17.5
 20
7.500000000000001
  0
POINT
  5
74
100
AcDbEntity
  8
LED_PAD
  6
ByLayer
 62
  256
370
   -1
100
AcDbPoint
 10
-20
 20
20
  0
LWPOLYLINE
  5
75
100
AcDbEntity
  8
LED_PAD
  6
ByLayer
 62
  256
370
   -1
100
AcDbPolyline
 90
    4
 70
    1
 43
0
 10
-22.5
 20
17.5
 10
-22.5
 20
22.5
 10
-17.5
 20
22.5
 10
-17.5
 20
17.5
  0
POINT
  5
76
100
AcDbEntity
  8
LED_PAD
  6
ByLayer
 62
  256
370
   -1
100
AcDbPoint
 10
-20
 20
30
  0
LWPOLYLINE
  5
77
100
AcDbEntity
  8
LED_PAD
  6
ByLayer
 62
  256
370
   -1
100
AcDbPolyline
 90
    4
 70
    1
 43
0
 10
-22.5
 20
27.5
 10
-22.5
 20
32.5
 10
-17.5
 20
32.5
 10
-17.5
 20
27.5
  0
POINT
  5
78
100
AcDbEntity
  8
LED_PAD
  6
ByLayer
 62
  256
370
   -1
100
AcDbPoint
 10
-20
 20
40
  0
LWPOLYLINE
  5
79
100
AcDbEntity
  8
LED_PAD
  6
ByLayer
 62
  256
370
   -1
100
AcDbPolyline
 90
    4
 70
    1
 43
0
 10
-22.5
 20
37.5
 10
-22.5
 20
42.5
 10
-17.5
 20
42.5
 10
-17.5
 20
37.5
  0
POINT
  5
7A
100
AcDbEntity
  8
LED_PAD
  6
ByLayer
 62
  256
370
   -1
100
AcDbPoint
 10
-20
 20
50
  0
LWPOLYLINE
  5
7B
100
AcDbEntity
  8
LED_PAD
  6
ByLayer
 62
  256
370
   -1
100
AcDbPolyline
 90
    4
 70
    1
 43
0
 10
-22.5
 20
47.5
 10
-22.5
 20
52.5
 10
-17.5
 20
52.5
 10
-17.5
 20
47.5
  0
POINT
  5
7C
100
AcDbEntity
  8
LED_PAD
  6
ByLayer
 62
  256
370
   -1
100
AcDbPoint
 10
-20
 20
60
  0
LWPOLYLINE
  5
7D
100
AcDbEntity
  8
LED_PAD
  6
ByLayer
 62
  256
370
   -1
100
AcDbPolyline
 90
    4
 70
    1
 43
0
 10
-22.5
 20
57.5
 10
-22.5
 20
62.5
 10
-17.5
 20
62.5
 10
-17.5
 20
57.5
  0
POINT
  5
7E
100
AcDbEntity
  8
LED_PAD
  6
ByLayer
 62
  256
370
   -1
100
AcDbPoint
 10
-20
 20
70
  0
LWPOLYLINE
  5
7F
100
AcDbEntity
  8
LED_PAD
  6
ByLayer
 62
  256
370
   -1
100
AcDbPolyline
 90
    4
 70
    1
 43
0
 10
-22.5
 20
67.5
 10
-22.5
 20
72.5
 10
-17.5
 20
72.5
 10
-17.5
 20
67.5
  0
POINT
  5
80
100
AcDbEntity
  8
LED_PAD
  6
ByLayer
 62
  256
370
   -1
100
AcDbPoint
 10
-30
 20
1.531658866949112e-15
  0
LWPOLYLINE
  5
81
100
AcDbEntity
  8
LED_PAD
  6
ByLayer
 62
  256
370
   -1
100
AcDbPolyline
 90
    4
 70
    1
 43
0
 10
-32.5
 20
-2.499999999999998
 10
-32.5
 20
2.500000000000002
 10
-27.5
 20
2.500000000000002
 10
-27.5
 20
-2.499999999999998
  0
POINT
  5
82
100
AcDbEntity
  8
LED_PAD
  6
ByLayer
 62
  256
370
   -1
100
AcDbPoint
 10
-30
 20
10
  0
LWPOLYLINE
  5
83
100
AcDbEntity
  8
LED_PAD
  6
ByLayer
 62
  256
370
   -1
100
AcDbPolyline
 90
    4
 70
    1
 43
0
 10
-32.5
 20
7.500000000000002
 10
-32.5
 20
12.5
 10
-27.5
 20
12.5
 10
-27.5
 20
7.500000000000002
  0
POINT
  5
84
100
AcDbEntity
  8
LED_PAD
  6
ByLayer
 62
  256
370
   -1
100
AcDbPoint
 10
-30
 20
20
  0
LWPOLYLINE
  5
85
100
AcDbEntity
  8
LED_PAD
  6
ByLayer
 62
  256
370
   -1
100
AcDbPolyline
 90
    4
 70
    1
 43
0
 10
-32.5
 20
17.5
 10
-32.5
 20
22.5
 10
-27.5
 20
22.5
 10
-27.5
 20
17.5
  0
POINT
  5
86
100
AcDbEntity
  8
LED_PAD
  6
ByLayer
 62
  256
370
   -1
100
AcDbPoint
 10
-30
 20
30
  0
LWPOLYLINE
  5
87
100
AcDbEntity
  8
LED_PAD
  6
ByLayer
 62
  256
370
   -1
100
AcDbPolyline
 90
    4
 70
    1
 43
0
 10
-32.5
 20
27.5
 10
-32.5
 20
32.5
 10
-27.5
 20
32.5
 10
-27.5
 20
27.5
  0
POINT
  5
88
100
AcDbEntity
  8
LED_PAD
  6
ByLayer
 62
  256
370
   -1
100
AcDbPoint
 10
-30
 20
40
  0
LWPOLYLINE
  5
89
100
AcDbEntity
  8
LED_PAD
  6
ByLayer
 62
  256
370
   -1
100
AcDbPolyline
 90
    4
 70
    1
 43
0
 10
-32.5
 20
37.5
 10
-32.5
 20
42.5
 10
-27.5
 20
42.5
 10
-27.5
 20
37.5
  0
POINT
  5
8A
100
AcDbEntity
  8
LED_PAD
  6
ByLayer
 62
  256
370
   -1
100
AcDbPoint
 10
-30
 20
50
  0
LWPOLYLINE
  5
8B
100
AcDbEntity
  8
LED_PAD
  6
ByLayer
 62
  256
370
   -1
100
AcDbPolyline
 90
    4
 70
    1
 43
0
 10
-32.5
 20
47.5
 10
-32.5
 20
52.5
 10
-27.5
 20
52.5
 10
-27.5
 20
47.5
  0
POINT
  5
8C
100
AcDbEntity
  8
LED_PAD
  6
ByLayer
 62
  256
370
   -1
100
AcDbPoint
 10
-30
 20
60
  0
LWPOLYLINE
  5
8D
100
AcDbEntity
  8
LED_PAD
  6
ByLayer
 62
  256
370
   -1
100
AcDbPolyline
 90
    4
 70
    1
 43
0
 10
-32.5
 20
57.5
 10
-32.49999999999999
 20
62.5
 10
-27.5
 20
62.5
 10
-27.5
 20
57.5
  0
POINT
  5
8E
100
AcDbEntity
  8
LED_PAD
  6
ByLayer
 62
  256
370
   -1
100
AcDbPoint
 10
-30
 20
70
  0
LWPOLYLINE
  5
8F
100
AcDbEntity
  8
LED_PAD
  6
ByLayer
 62
  256
370
   -1
100
AcDbPolyline
 90
    4
 70
    1
 43
0
 10
-32.49999999999999
 20
67.5
 10
-32.49999999999999
 20
72.5
 10
-27.5
 20
72.5
 10
-27.5
 20
67.5
  0
POINT
  5
90
100
AcDbEntity
  8
LED_PAD
  6
ByLayer
 62
  256
370
   -1
100
AcDbPoint
 10
-40
 20
2.143982266522788e-15
  0
LWPOLYLINE
  5
91
100
AcDbEntity
  8
LED_PAD
  6
ByLayer
 62
  256
370
   -1
100
AcDbPolyline
 90
    4
 70
    1
 43
0
 10
-42.5
 20
-2.499999999999997
 10
-42.5
 20
2.500000000000003
 10
-37.5
 20
2.500000000000002
 10
-37.5
 20
-2.499999999999998
  0
POINT
  5
92
100
AcDbEntity
  8
LED_PAD
  6
ByLayer
 62
  256
370
   -1
100
AcDbPoint
 10
-40
 20
10
  0
LWPOLYLINE
  5
93
100
AcDbEntity
  8
LED_PAD
  6
ByLayer
 62
  256
370
   -1
100
AcDbPolyline
 90
    4
 70
    1
 43
0
 10
-42.5
 20
7.500000000000003
 10
-42.5
 20
12.5
 10
-37.5
 20
12.5
 10
-37.5
 20
7.500000000000003
  0
POINT
  5
94
100
AcDbEntity
  8
LED_PAD
  6
ByLayer
 62
  256
370
   -1
100
AcDbPoint
 10
-40
 20
20
  0
LWPOLYLINE
  5
95
100
AcDbEntity
  8
LED_PAD
  6
ByLayer
 62
  256
370
   -1
100
AcDbPolyline
 90
    4
 70
    1
 43
0
 10
-42.5
 20
17.5
 10
-42.5
 20
22.5
 10
-37.5
 20
22.5
 10
-37.5
 20
17.5
  0
POINT
  5
96
100
AcDbEntity
  8
LED_PAD
  6
ByLayer
 62
  256
370
   -1
100
AcDbPoint
 10
-40
 20
30
  0
LWPOLYLINE
  5
97
100
AcDbEntity
  8
LED_PAD
  6
ByLayer
 62
  256
370
   -1
100
AcDbPolyline
 90
    4
 70
    1
 43
0
 10
-42.5
 20
27.5
 10
-42.5
 20
32.5
 10
-37.5
 20
32.5
 10
-37.5
 20
27.5
  0
POINT
  5
98
100
AcDbEntity
  8
LED_PAD
  6
ByLayer
 62
  256
370
   -1
100
AcDbPoint
 10
-40
 20
40
  0
LWPOLYLINE
  5
99
100
AcDbEntity
  8
LED_PAD
  6
ByLayer
 62
  256
370
   -1
100
AcDbPolyline
 90
    4
 70
    1
 43
0
 10
-42.5
 20
37.5
 10
-42.5
 20
42.5
 10
-37.5
 20
42.5
 10
-37.5
 20
37.5
  0
POINT
  5
9A
100
AcDbEntity
  8
LED_PAD
  6
ByLayer
 62
  256
370
   -1
100
AcDbPoint
 10
-40
 20
50
  0
LWPOLYLINE
  5
9B
100
AcDbEntity
  8
LED_PAD
  6
ByLayer
 62
  256
370
   -1
100
AcDbPolyline
 90
    4
 70
    1
 43
0
 10
-42.5
 20
47.5
 10
-42.5
 20
52.5
 10
-37.5
 20
52.5
 10
-37.5
 20
47.5
  0
POINT
  5
9C
100
AcDbEntity
  8
LED_PAD
  6
ByLayer
 62
  256
370
   -1
100
AcDbPoint
 10
-39.99999999999999
 20
60
  0
LWPOLYLINE
  5
9D
100
AcDbEntity
  8
LED_PAD
  6
ByLayer
 62
  256
370
   -1
100
AcDbPolyline
 90
    4
 70
    1
 43
0
 10
-42.5
 20
57.5
 10
-42.49999999999999
 20
62.5
 10
-37.49999999999999
 20
62.5
 10
-37.5
 20
57.5
  0
POINT
  5
9E
100
AcDbEntity
  8
LED_PAD
  6
ByLayer
 62
  256
370
   -1
100
AcDbPoint
 10
-39.99999999999999
 20
70
  0
LWPOLYLINE
  5
9F
100
AcDbEntity
  8
LED_PAD
  6
ByLayer
 62
  256
370
   -1
100
AcDbPolyline
 90
    4
 70
    1
 43
0
 10
-42.49999999999999
 20
67.5
 10
-42.49999999999999
 20
72.5
 10
-37.49999999999999
 20
72.5
 10
-37.49999999999999
 20
67.5
  0
POINT
  5
A0
100
AcDbEntity
  8
LED_PAD
  6
ByLayer
 62
  256
370
   -1
100
AcDbPoint
 10
-50
 20
2.756305666096465e-15
  0
LWPOLYLINE
  5
A1
100
AcDbEntity
  8
LED_PAD
  6
ByLayer
 62
  256
370
   -1
100
AcDbPolyline
 90
    4
 70
    1
 43
0
 10
-52.5
 20
-2.499999999999997
 10
-52.5
 20
2.500000000000003
 10
-47.5
 20
2.500000000000003
 10
-47.5
 20
-2.499999999999997
  0
POINT
  5
A2
100
AcDbEntity
  8
LED_PAD
  6
ByLayer
 62
  256
370
   -1
100
AcDbPoint
 10
-50
 20
10
  0
LWPOLYLINE
  5
A3
100
AcDbEntity
  8
LED_PAD
  6
ByLayer
 62
  256
370
   -1
100
AcDbPolyline
 90
    4
 70
    1
 43
0
 10
-52.5
 20
7.500000000000004
 10
-52.5
 20
12.5
 10
-47.5
 20
12.5
 10
-47.5
 20
7.500000000000003
  0
POINT
  5
A4
100
AcDbEntity
  8
LED_PAD
  6
ByLayer
 62
  256
370
   -1
100
AcDbPoint
 10
-50
 20
20
  0
LWPOLYLINE
  5
A5
100
AcDbEntity
  8
LED_PAD
  6
ByLayer
 62
  256
370
   -1
100
AcDbPolyline
 90
    4
 70
    1
 43
0
 10
-52.5
 20
17.5
 10
-52.5
 20
22.5
 10
-47.5
 20
22.5
 10
-47.5
 20
17.5
  0
POINT
  5
A6
100
AcDbEntity
  8
LED_PAD
  6
ByLayer
 62
  256
370
   -1
100
AcDbPoint
 10
-50
 20
30
  0
LWPOLYLINE
  5
A7
100
AcDbEntity
  8
LED_PAD
  6
ByLayer
 62
  256
370
   -1
100
AcDbPolyline
 90
    4
 70
    1
 43
0
 10
-52.5
 20
27.5
 10
-52.5
 20
32.5
 10
-47.5
 20
32.5
 10
-47.5
 20
27.5
  0
POINT
  5
A8
100
AcDbEntity
  8
LED_PAD
  6
ByLayer
 62
  256
370
   -1
100
AcDbPoint
 10
-50
 20
40
  0
LWPOLYLINE
  5
A9
100
AcDbEntity
  8
LED_PAD
  6
ByLayer
 62
  256
370
   -1
100
AcDbPolyline
 90
    4
 70
    1
 43
0
 10
-52.5
 20
37.5
 10
-52.5
 20
42.5
 10
-47.5
 20
42.5
 10
-47.5
 20
37.5
  0
POINT
  5
AA
100
AcDbEntity
  8
LED_PAD
  6
ByLayer
 62
  256
370
   -1
100
AcDbPoint
 10
-50
 20
50
  0
LWPOLYLINE
  5
AB
100
AcDbEntity
  8
LED_PAD
  6
ByLayer
 62
  256
370
   -1
100
AcDbPolyline
 90
    4
 70
    1
 43
0
 10
-52.5
 20
47.5
 10
-52.5
 20
52.5
 10
-47.5
 20
52.5
 10
-47.5
 20
47.5
  0
POINT
  5
AC
100
AcDbEntity
  8
LED_PAD
  6
ByLayer
 62
  256
370
   -1
100
AcDbPoint
 10
-49.99999999999999
 20
60
  0
LWPOLYLINE
  5
AD
100
AcDbEntity
  8
LED_PAD
  6
ByLayer
 62
  256
370
   -1
100
AcDbPolyline
 90
    4
 70
    1
 43
0
 10
-52.5
 20
57.5
 10
-52.49999999999999
 20
62.5
 10
-47.49999999999999
 20
62.5
 10
-47.5
 20
57.5
  0
POINT
  5
AE
100
AcDbEntity
  8
LED_PAD
  6
ByLayer
 62
  256
370
   -1
100
AcDbPoint
 10
-49.99999999999999
 20
70
  0
LWPOLYLINE
  5
AF
100
AcDbEntity
  8
LED_PAD
  6
ByLayer
 62
  256
370
   -1
100
AcDbPolyline
 90
    4
 70
    1
 43
0
 10
-52.49999999999999
 20
67.5
 10
-52.49999999999999
 20
72.5
 10
-47.49999999999999
 20
72.5
 10
-47.49999999999999
 20
67.5
  0
POINT
  5
B0
100
AcDbEntity
  8
LED_PAD
  6
ByLayer
 62
  256
370
   -1
100
AcDbPoint
 10
-60
 20
3.368629065670142e-15
  0
LWPOLYLINE
  5
B1
100
AcDbEntity
  8
LED_PAD
  6
ByLayer
 62
  256
370
   -1
100
AcDbPolyline
 90
    4
 70
    1
 43
0
 10
-62.5
 20
-2.499999999999996
 10
-62.5
 20
2.500000000000004
 10
-57.5
 20
2.500000000000004
 10
-57.5
 20
-2.499999999999996
  0
POINT
  5
B2
100
AcDbEntity
  8
LED_PAD
  6
ByLayer
 62
  256
370
   -1
100
AcDbPoint
 10
-60
 20
10
  0
LWPOLYLINE
  5
B3
100
AcDbEntity
  8
LED_PAD
  6
ByLayer
 62
  256
370
   -1
100
AcDbPolyline
 90
    4
 70
    1
 43
0
 10
-62.5
 20
7.500000000000004
 10
-62.5
 20
12.5
 10
-57.5
 20
12.5
 10
-57.5
 20
7.500000000000004
  0
POINT
  5
B4
100
AcDbEntity
  8
LED_PAD
  6
ByLayer
 62
  256
370
   -1
100
AcDbPoint
 10
-60
 20
20
  0
LWPOLYLINE
  5
B5
100
AcDbEntity
  8
LED_PAD
  6
ByLayer
 62
  256
370
   -1
100
AcDbPolyline
 90
    4
 70
    1
 43
0
 10
-62.5
 20
17.5
 10
-62.5
 20
22.5
 10
-57.5
 20
22.5
 10
-57.5
 20
17.5
  0
POINT
  5
B6
100
AcDbEntity
  8
LED_PAD
  6
ByLayer
 62
  256
370
   -1
100
AcDbPoint
 10
-60
 20
30
  0
LWPOLYLINE
  5
B7
100
AcDbEntity
  8
LED_PAD
  6
ByLayer
 62
  256
370
   -1
100
AcDbPolyline
 90
    4
 70
    1
 43
0
 10
-62.5
 20
27.5
 10
-62.5
 20
32.50000000000001
 10
-57.5
 20
32.5
 10
-57.5
 20
27.5
  0
POINT
  5
B8
100
AcDbEntity
  8
LED_PAD
  6
ByLayer
 62
  256
370
   -1
100
AcDbPoint
 10
-60
 20
40.00000000000001
  0
LWPOLYLINE
  5
B9
100
AcDbEntity
  8
LED_PAD
  6
ByLayer
 62
  256
370
   -1
100
AcDbPolyline
 90
    4
 70
    1
 43
0
 10
-62.5
 20
37.50000000000001
 10
-62.5
 20
42.50000000000001
 10
-57.5
 20
42.5
 10
-57.5
 20
37.5
  0
POINT
  5
BA
100
AcDbEntity
  8
LED_PAD
  6
ByLayer
 62
  256
370
   -1
100
AcDbPoint
 10
-60
 20
50.00000000000001
  0
LWPOLYLINE
  5
BB
100
AcDbEntity
  8
LED_PAD
  6
ByLayer
 62
  256
370
   -1
100
AcDbPolyline
 90
    4
 70
    1
 43
0
 10
-62.5
 20
47.50000000000001
 10
-62.5
 20
52.50000000000001
 10
-57.5
 20
52.5
 10
-57.5
 20
47.5
  0
POINT
  5
BC
100
AcDbEntity
  8
LED_PAD
  6
ByLayer
 62
  256
370
   -1
100
AcDbPoint
 10
-59.99999999999999
 20
60.00000000000001
  0
LWPOLYLINE
  5
BD
100
AcDbEntity
  8
LED_PAD
  6
ByLayer
 62
  256
370
   -1
100
AcDbPolyline
 90
    4
 70
    1
 43
0
 10
-62.5
 20
57.50000000000001
 10
-62.49999999999999
 20
62.50000000000001
 10
-57.49999999999999
 20
62.5
 10
-57.5
 20
57.5
  0
POINT
  5
BE
100
AcDbEntity
  8
LED_PAD
  6
ByLayer
 62
  256
370
   -1
100
AcDbPoint
 10
-59.99999999999999
 20
70
  0
LWPOLYLINE
  5
BF
100
AcDbEntity
  8
LED_PAD
  6
ByLayer
 62
  256
370
   -1
100
AcDbPolyline
 90
    4
 70
    1
 43
0
 10
-62.49999999999999
 20
67.5
 10
-62.49999999999999
 20
72.5
 10
-57.49999999999999
 20
72.5
 10
-57.49999999999999
 20
67.5
  0
POINT
  5
C0
100
AcDbEntity
  8
LED_PAD
  6
ByLayer
 62
  256
370
   -1
100
AcDbPoint
 10
-70
 20
3.980952465243818e-15
  0
LWPOLYLINE
  5
C1
100
AcDbEntity
  8
LED_PAD
  6
ByLayer
 62
  256
370
   -1
100
AcDbPolyline
 90
    4
 70
    1
 43
0
 10
-72.5
 20
-2.499999999999996
 10
-72.5
 20
2.500000000000004
 10
-67.5
 20
2.500000000000004
 10
-67.5
 20
-2.499999999999996
  0
POINT
  5
C2
100
AcDbEntity
  8
LED_PAD
  6
ByLayer
 62
  256
370
   -1
100
AcDbPoint
 10
-70
 20
10
  0
LWPOLYLINE
  5
C3
100
AcDbEntity
  8
LED_PAD
  6
ByLayer
 62
  256
370
   -1
100
AcDbPolyline
 90
    4
 70
    1
 43
0
 10
-72.5
 20
7.500000000000004
 10
-72.5
 20
12.5
 10
-67.5
 20
12.5
 10
-67.5
 20
7.500000000000004
  0
POINT
  5
C4
100
AcDbEntity
  8
LED_PAD
  6
ByLayer
 62
  256
370
   -1
100
AcDbPoint
 10
-70
 20
20
  0
LWPOLYLINE
  5
C5
100
AcDbEntity
  8
LED_PAD
  6
ByLayer
 62
  256
370
   -1
100
AcDbPolyline
 90
    4
 70
    1
 43
0
 10
-72.5
 20
17.5
 10
-72.5
 20
22.5
 10
-67.5
 20
22.5
 10
-67.5
 20
17.5
  0
POINT
  5
C6
100
AcDbEntity
  8
LED_PAD
  6
ByLayer
 62
  256
370
   -1
100
AcDbPoint
 10
-70
 20
30
  0
LWPOLYLINE
  5
C7
100
AcDbEntity
  8
LED_PAD
  6
ByLayer
 62
  256
370
   -1
100
AcDbPolyline
 90
    4
 70
    1
 43
0
 10
-72.5
 20
27.5
 10
-72.5
 20
32.50000000000001
 10
-67.5
 20
32.50000000000001
 10
-67.5
 20
27.5
  0
POINT
  5
C8
100
AcDbEntity
  8
LED_PAD
  6
ByLayer
 62
  256
370
   -1
100
AcDbPoint
 10
-70
 20
40.00000000000001
  0
LWPOLYLINE
  5
C9
100
AcDbEntity
  8
LED_PAD
  6
ByLayer
 62
  256
370
   -1
100
AcDbPolyline
 90
    4
 70
    1
 43
0
 10
-72.5
 20
37.50000000000001
 10
-72.5
 20
42.50000000000001
 10
-67.5
 20
42.50000000000001
 10
-67.5
 20
37.50000000000001
  0
POINT
  5
CA
100
AcDbEntity
  8
LED_PAD
  6
ByLayer
 62
  256
370
   -1
100
AcDbPoint
 10
-70
 20
50.00000000000001
  0
LWPOLYLINE
  5
CB
100
AcDbEntity
  8
LED_PAD
  6
ByLayer
 62
  256
370
   -1
100
AcDbPolyline
 90
    4
 70
    1
 43
0
 10
-72.5
 20
47.50000000000001
 10
-72.5
 20
52.50000000000001
 10
-67.5
 20
52.50000000000001
 10
-67.5
 20
47.50000000000001
  0
POINT
  5
CC
100
AcDbEntity
  8
LED_PAD
  6
ByLayer
 62
  256
370
   -1
100
AcDbPoint
 10
-70
 20
60.00000000000001
  0
LWPOLYLINE
  5
CD
100
AcDbEntity
  8
LED_PAD
  6
ByLayer
 62
  256
370
   -1
100
AcDbPolyline
 90
    4
 70
    1
 43
0
 10
-72.5
 20
57.50000000000001
 10
-72.5
 20
62.50000000000001
 10
-67.5
 20
62.50000000000001
 10
-67.5
 20
57.50000000000001
  0
POINT
  5
CE
100
AcDbEntity
  8
LED_PAD
  6
ByLayer
 62
  256
370
   -1
100
AcDbPoint
 10
-70
 20
70
  0
LWPOLYLINE
  5
CF
100
AcDbEntity
  8
LED_PAD
  6
ByLayer
 62
  256
370
   -1
100
AcDbPolyline
 90
    4
 70
    1
 43
0
 10
-72.5
 20
67.5
 10
-72.5
 20
72.5
 10
-67.5
 20
72.5
 10
-67.5
 20
67.5
  0
POINT
  5
D0
100
AcDbEntity
  8
LED_PAD
  6
ByLayer
 62
  256
370
   -1
100
AcDbPoint
 10
-80
 20
4.593275864817495e-15
  0
LWPOLYLINE
  5
D1
100
AcDbEntity
  8
LED_PAD
  6
ByLayer
 62
  256
370
   -1
100
AcDbPolyline
 90
    4
 70
    1
 43
0
 10
-82.5
 20
-2.499999999999995
 10
-82.5
 20
2.500000000000005
 10
-77.5
 20
2.500000000000005
 10
-77.5
 20
-2.499999999999995
  0
POINT
  5
D2
100
AcDbEntity
  8
LED_PAD
  6
ByLayer
 62
  256
370
   -1
100
AcDbPoint
 10
-80
 20
10.00000000000001
  0
LWPOLYLINE
  5
D3
100
AcDbEntity
  8
LED_PAD
  6
ByLayer
 62
  256
370
   -1
100
AcDbPolyline
 90
    4
 70
    1
 43
0
 10
-82.5
 20
7.500000000000005
 10
-82.5
 20
12.50000000000001
 10
-77.5
 20
12.50000000000001
 10
-77.5
 20
7.500000000000004
  0
POINT
  5
D4
100
AcDbEntity
  8
LED_PAD
  6
ByLayer
 62
  256
370
   -1
100
AcDbPoint
 10
-80
 20
20
  0
LWPOLYLINE
  5
D5
100
AcDbEntity
  8
LED_PAD
  6
ByLayer
 62
  256
370
   -1
100
AcDbPolyline
 90
    4
 70
    1
 43
0
 10
-82.5
 20
17.5
 10
-82.5
 20
22.5
 10
-77.5
 20
22.5
 10
-77.5
 20
17.5
  0
POINT
  5
D6
100
AcDbEntity
  8
LED_PAD
  6
ByLayer
 62
  256
370
   -1
100
AcDbPoint
 10
-80
 20
30
  0
LWPOLYLINE
  5
D7
100
AcDbEntity
  8
LED_PAD
  6
ByLayer
 62
  256
370
   -1
100
AcDbPolyline
 90
    4
 70
    1
 43
0
 10
-82.5
 20
27.5
 10
-82.5
 20
32.50000000000001
 10
-77.5
 20
32.50000000000001
 10
-77.5
 20
27.5
  0
POINT
  5
D8
100
AcDbEntity
  8
LED_PAD
  6
ByLayer
 62
  256
370
   -1
100
AcDbPoint
 10
-80
 20
40.00000000000001
  0
LWPOLYLINE
  5
D9
100
AcDbEntity
  8
LED_PAD
  6
ByLayer
 62
  256
370
   -1
100
AcDbPolyline
 90
    4
 70
    1
 43
0
 10
-82.5
 20
37.50000000000001
 10
-82.5
 20
42.50000000000001
 10
-77.5
 20
42.50000000000001
 10
-77.5
 20
37.50000000000001
  0
POINT
  5
DA
100
AcDbEntity
  8
LED_PAD
  6
ByLayer
 62
  256
370
   -1
100
AcDbPoint
 10
-80
 20
50.00000000000001
  0
LWPOLYLINE
  5
DB
100
AcDbEntity
  8
LED_PAD
  6
ByLayer
 62
  256
370
   -1
100
AcDbPolyline
 90
    4
 70
    1
 43
0
 10
-82.5
 20
47.50000000000001
 10
-82.5
 20
52.50000000000001
 10
-77.5
 20
52.50000000000001
 10
-77.5
 20
47.50000000000001
  0
POINT
  5
DC
100
AcDbEntity
  8
LED_PAD
  6
ByLayer
 62
  256
370
   -1
100
AcDbPoint
 10
-80
 20
60.00000000000001
  0
LWPOLYLINE
  5
DD
100
AcDbEntity
  8
LED_PAD
  6
ByLayer
 62
  256
370
   -1
100
AcDbPolyline
 90
    4
 70
    1
 43
0
 10
-82.5
 20
57.50000000000001
 10
-82.5
 20
62.50000000000001
 10
-77.5
 20
62.50000000000001
 10
-77.5
 20
57.50000000000001
  0
POINT
  5
DE
100
AcDbEntity
  8
LED_PAD
  6
ByLayer
 62
  256
370
   -1
100
AcDbPoint
 10
-80
 20
70
  0
LWPOLYLINE
  5
DF
100
AcDbEntity
  8
LED_PAD
  6
ByLayer
 62
  256
370
   -1
100
AcDbPolyline
 90
    4
 70
    1
 43
0
 10
-82.5
 20
67.5
 10
-82.5
 20
72.5
 10
-77.5
 20
72.5
 10
-77.5
 20
67.5
  0
POINT
  5
E0
100
AcDbEntity
  8
LED_PAD
  6
ByLayer
 62
  256
370
   -1
100
AcDbPoint
 10
-90
 20
5.205599264391172e-15
  0
LWPOLYLINE
  5
E1
100
AcDbEntity
  8
LED_PAD
  6
ByLayer
 62
  256
370
   -1
100
AcDbPolyline
 90
    4
 70
    1
 43
0
 10
-92.5
 20
-2.499999999999994
 10
-92.5
 20
2.500000000000006
 10
-87.5
 20
2.500000000000005
 10
-87.5
 20
-2.499999999999995
  0
POINT
  5
E2
100
AcDbEntity
  8
LED_PAD
  6
ByLayer
 62
  256
370
   -1
100
AcDbPoint
 10
-90
 20
10.00000000000001
  0
LWPOLYLINE
  5
E3
100
AcDbEntity
  8
LED_PAD
  6
ByLayer
 62
  256
370
   -1
100
AcDbPolyline
 90
    4
 70
    1
 43
0
 10
-92.5
 20
7.500000000000005
 10
-92.5
 20
12.50000000000001
 10
-87.5
 20
12.50000000000001
 10
-87.5
 20
7.500000000000005
  0
POINT
  5
E4
100
AcDbEntity
  8
LED_PAD
  6
ByLayer
 62
  256
370
   -1
100
AcDbPoint
 10
-90
 20
20.00000000000001
  0
LWPOLYLINE
  5
E5
100
AcDbEntity
  8
LED_PAD
  6
ByLayer
 62
  256
370
   -1
100
AcDbPolyline
 90
    4
 70
    1
 43
0
 10
-92.5
 20
17.50000000000001
 10
-92.5
 20
22.50000000000001
 10
-87.5
 20
22.50000000000001
 10
-87.5
 20
17.50000000000001
  0
POINT
  5
E6
100
AcDbEntity
  8
LED_PAD
  6
ByLayer
 62
  256
370
   -1
100
AcDbPoint
 10
-90
 20
30.00000000000001
  0
LWPOLYLINE
  5
E7
100
AcDbEntity
  8
LED_PAD
  6
ByLayer
 62
  256
370
   -1
100
AcDbPolyline
 90
    4
 70
    1
 43
0
 10
-92.5
 20
27.50000000000001
 10
-92.5
 20
32.50000000000001
 10
-87.5
 20
32.50000000000001
 10
-87.5
 20
27.50000000000001
  0
POINT
  5
E8
100
AcDbEntity
  8
LED_PAD
  6
ByLayer
 62
  256
370
   -1
100
AcDbPoint
 10
-90
 20
40.00000000000001
  0
LWPOLYLINE
  5
E9
100
AcDbEntity
  8
LED_PAD
  6
ByLayer
 62
  256
370
   -1
100
AcDbPolyline
 90
    4
 70
    1
 43
0
 10
-92.5
 20
37.50000000000001
 10
-92.5
 20
42.50000000000001
 10
-87.5
 20
42.50000000000001
 10
-87.5
 20
37.50000000000001
  0
POINT
  5
EA
100
AcDbEntity
  8
LED_PAD
  6
ByLayer
 62
  256
370
   -1
100
AcDbPoint
 10
-90
 20
50.00000000000001
  0
LWPOLYLINE
  5
EB
100
AcDbEntity
  8
LED_PAD
  6
ByLayer
 62
  256
370
   -1
100
AcDbPolyline
 90
    4
 70
    1
 43
0
 10
-92.5
 20
47.50000000000001
 10
-92.5
 20
52.50000000000001
 10
-87.5
 20
52.50000000000001
 10
-87.5
 20
47.50000000000001
  0
POINT
  5
EC
100
AcDbEntity
  8
LED_PAD
  6
ByLayer
 62
  256
370
   -1
100
AcDbPoint
 10
-90
 20
60.00000000000001
  0
LWPOLYLINE
  5
ED
100
AcDbEntity
  8
LED_PAD
  6
ByLayer
 62
  256
370
   -1
100
AcDbPolyline
 90
    4
 70
    1
 43
0
 10
-92.5
 20
57.50000000000001
 10
-92.5
 20
62.50000000000001
 10
-87.5
 20
62.50000000000001
 10
-87.5
 20
57.50000000000001
  0
POINT
  5
EE
100
AcDbEntity
  8
LED_PAD
  6
ByLayer
 62
  256
370
   -1
100
AcDbPoint
 10
-90
 20
70
  0
LWPOLYLINE
  5
EF
100
AcDbEntity
  8
LED_PAD
  6
ByLayer
 62
  256
370
   -1
100
AcDbPolyline
 90
    4
 70
    1
 43
0
 10
-92.5
 20
67.5
 10
-92.5
 20
72.5
 10
-87.5
 20
72.5
 10
-87.5
 20
67.5
  0
POINT
  5
F0
100
AcDbEntity
  8
LED_PAD
  6
ByLayer
 62
  256
370
   -1
100
AcDbPoint
 10
-100
 20
5.817922663964848e-15
  0
LWPOLYLINE
  5
F1
100
AcDbEntity
  8
LED_PAD
  6
ByLayer
 62
  256
370
   -1
100
AcDbPolyline
 90
    4
 70
    1
 43
0
 10
-102.5
 20
-2.499999999999994
 10
-102.5
 20
2.500000000000006
 10
-97.5
 20
2.500000000000006
 10
-97.5
 20
-2.499999999999994
  0
POINT
  5
F2
100
AcDbEntity
  8
LED_PAD
  6
ByLayer
 62
  256
370
   -1
100
AcDbPoint
 10
-100
 20
10.00000000000001
  0
LWPOLYLINE
  5
F3
100
AcDbEntity
  8
LED_PAD
  6
ByLayer
 62
  256
370
   -1
100
AcDbPolyline
 90
    4
 70
    1
 43
0
 10
-102.5
 20
7.500000000000006
 10
-102.5
 20
12.50000000000001
 10
-97.5
 20
12.50000000000001
 10
-97.5
 20
7.500000000000006
  0
POINT
  5
F4
100
AcDbEntity
  8
LED_PAD
  6
ByLayer
 62
  256
370
   -1
100
AcDbPoint
 10
-100
 20
20.00000000000001
  0
LWPOLYLINE
  5
F5
100
AcDbEntity
  8
LED_PAD
  6
ByLayer
 62
  256
370
   -1
100
AcDbPolyline
 90
    4
 70
    1
 43
0
 10
-102.5
 20
17.50000000000001
 10
-102.5
 20
22.50000000000001
 10
-97.5
 20
22.50000000000001
 10
-97.5
 20
17.50000000000001
  0
POINT
  5
F6
100
AcDbEntity
  8
LED_PAD
  6
ByLayer
 62
  256
370
   -1
100
AcDbPoint
 10
-100
 20
30.00000000000001
  0
LWPOLYLINE
  5
F7
100
AcDbEntity
  8
LED_PAD
  6
ByLayer
 62
  256
370
   -1
100
AcDbPolyline
 90
    4
 70
    1
 43
0
 10
-102.5
 20
27.50000000000001
 10
-102.5
 20
32.50000000000001
 10
-97.5
 20
32.50000000000001
 10
-97.5
 20
27.50000000000001
  0
POINT
  5
F8
100
AcDbEntity
  8
LED_PAD
  6
ByLayer
 62
  256
370
   -1
100
AcDbPoint
 10
-100
 20
40.00000000000001
  0
LWPOLYLINE
  5
F9
100
AcDbEntity
  8
LED_PAD
  6
ByLayer
 62
  256
370
   -1
100
AcDbPolyline
 90
    4
 70
    1
 43
0
 10
-102.5
 20
37.50000000000001
 10
-102.5
 20
42.50000000000001
 10
-97.5
 20
42.50000000000001
 10
-97.5
 20
37.50000000000001
  0
POINT
  5
FA
100
AcDbEntity
  8
LED_PAD
  6
ByLayer
 62
  256
370
   -1
100
AcDbPoint
 10
-100
 20
50.00000000000001
  0
LWPOLYLINE
  5
FB
100
AcDbEntity
  8
LED_PAD
  6
ByLayer
 62
  256
370
   -1
100
AcDbPolyline
 90
    4
 70
    1
 43
0
 10
-102.5
 20
47.50000000000001
 10
-102.5
 20
52.50000000000001
 10
-97.5
 20
52.50000000000001
 10
-97.5
 20
47.50000000000001
  0
POINT
  5
FC
100
AcDbEntity
  8
LED_PAD
  6
ByLayer
 62
  256
370
   -1
100
AcDbPoint
 10
-100
 20
60.00000000000001
  0
LWPOLYLINE
  5
FD
100
AcDbEntity
  8
LED_PAD
  6
ByLayer
 62
  256
370
   -1
100
AcDbPolyline
 90
    4
 70
    1
 43
0
 10
-102.5
 20
57.50000000000001
 10
-102.5
 20
62.50000000000001
 10
-97.5
 20
62.50000000000001
 10
-97.5
 20
57.50000000000001
  0
POINT
  5
FE
100
AcDbEntity
  8
LED_PAD
  6
ByLayer
 62
  256
370
   -1
100
AcDbPoint
 10
-100
 20
70
  0
LWPOLYLINE
  5
FF
100
AcDbEntity
  8
LED_PAD
  6
ByLayer
 62
  256
370
   -1
100
AcDbPolyline
 90
    4
 70
    1
 43
0
 10
-102.5
 20
67.5
 10
-102.5
 20
72.5
 10
-97.5
 20
72.5
 10
-97.5
 20
67.5
  0
POINT
  5
100
100
AcDbEntity
  8
LED_PAD
  6
ByLayer
 62
  256
370
   -1
100
AcDbPoint
 10
-110
 20
6.430246063538525e-15
  0
LWPOLYLINE
  5
101
100
AcDbEntity
  8
LED_PAD
  6
ByLayer
 62
  256
370
   -1
100
AcDbPolyline
 90
    4
 70
    1
 43
0
 10
-112.5
 20
-2.499999999999993
 10
-112.5
 20
2.500000000000007
 10
-107.5
 20
2.500000000000007
 10
-107.5
 20
-2.499999999999993
  0
POINT
  5
102
100
AcDbEntity
  8
LED_PAD
  6
ByLayer
 62
  256
370
   -1
100
AcDbPoint
 10
-110
 20
10.00000000000001
  0
LWPOLYLINE
  5
103
100
AcDbEntity
  8
LED_PAD
  6
ByLayer
 62
  256
370
   -1
100
AcDbPolyline
 90
    4
 70
    1
 43
0
 10
-112.5
 20
7.500000000000007
 10
-112.5
 20
12.50000000000001
 10
-107.5
 20
12.50000000000001
 10
-107.5
 20
7.500000000000006
  0
POINT
  5
104
100
AcDbEntity
  8
LED_PAD
  6
ByLayer
 62
  256
370
   -1
100
AcDbPoint
 10
-110
 20
20.00000000000001
  0
LWPOLYLINE
  5
105
100
AcDbEntity
  8
LED_PAD
  6
ByLayer
 62
  256
370
   -1
100
AcDbPolyline
 90
    4
 70
    1
 43
0
 10
-112.5
 20
17.50000000000001
 10
-112.5
 20
22.50000000000001
 10
-107.5
 20
22.50000000000001
 10
-107.5
 20
17.50000000000001
  0
POINT
  5
106
100
AcDbEntity
  8
LED_PAD
  6
ByLayer
 62
  256
370
   -1
100
AcDbPoint
 10
-110
 20
30.00000000000001
  0
LWPOLYLINE
  5
107
100
AcDbEntity
  8
LED_PAD
  6
ByLayer
 62
  256
370
   -1
100
AcDbPolyline
 90
    4
 70
    1
 43
0
 10
-112.5
 20
27.50000000000001
 10
-112.5
 20
32.50000000000001
 10
-107.5
 20
32.50000000000001
 10
-107.5
 20
27.50000000000001
  0
POINT
  5
108
100
AcDbEntity
  8
LED_PAD
  6
ByLayer
 62
  256
370
   -1
100
AcDbPoint
 10
-110
 20
40.00000000000001
  0
LWPOLYLINE
  5
109
100
AcDbEntity
  8
LED_PAD
  6
ByLayer
 62
  256
370
   -1
100
AcDbPolyline
 90
    4
 70
    1
 43
0
 10
-112.5
 20
37.50000000000001
 10
-112.5
 20
42.50000000000001
 10
-107.5
 20
42.50000000000001
 10
-107.5
 20
37.50000000000001
  0
POINT
  5
10A
100
AcDbEntity
  8
LED_PAD
  6
ByLayer
 62
  256
370
   -1
100
AcDbPoint
 10
-110
 20
50.00000000000001
  0
LWPOLYLINE
  5
10B
100
AcDbEntity
  8
LED_PAD
  6
ByLayer
 62
  256
370
   -1
100
AcDbPolyline
 90
    4
 70
    1
 43
0
 10
-112.5
 20
47.50000000000001
 10
-112.5
 20
52.50000000000001
 10
-107.5
 20
52.50000000000001
 10
-107.5
 20
47.50000000000001
  0
POINT
  5
10C
100
AcDbEntity
  8
LED_PAD
  6
ByLayer
 62
  256
370
   -1
100
AcDbPoint
 10
-110
 20
60.00000000000001
  0
LWPOLYLINE
  5
10D
100
AcDbEntity
  8
LED_PAD
  6
ByLayer
 62
  256
370
   -1
100
AcDbPolyline
 90
    4
 70
    1
 43
0
 10
-112.5
 20
57.50000000000001
 10
-112.5
 20
62.50000000000001
 10
-107.5
 20
62.50000000000001
 10
-107.5
 20
57.50000000000001
  0
POINT
  5
10E
100
AcDbEntity
  8
LED_PAD
  6
ByLayer
 62
  256
370
   -1
100
AcDbPoint
 10
-110
 20
70
  0
LWPOLYLINE
  5
10F
100
AcDbEntity
  8
LED_PAD
  6
ByLayer
 62
  256
370
   -1
100
AcDbPolyline
 90
    4
 70
    1
 43
0
 10
-112.5
 20
67.5
 10
-112.5
 20
72.5
 10
-107.5
 20
72.5
 10
-107.5
 20
67.5
  0
POINT
  5
110
100
AcDbEntity
  8
LED_PAD
  6
ByLayer
 62
  256
370
   -1
100
AcDbPoint
 10
-120
 20
7.042569463112202e-15
  0
LWPOLYLINE
  5
111
100
AcDbEntity
  8
LED_PAD
  6
ByLayer
 62
  256
370
   -1
100
AcDbPolyline
 90
    4
 70
    1
 43
0
 10
-122.5
 20
-2.499999999999992
 10
-122.5
 20
2.500000000000008
 10
-117.5
 20
2.500000000000007
 10
-117.5
 20
-2.499999999999993
  0
POINT
  5
112
100
AcDbEntity
  8
LED_PAD
  6
ByLayer
 62
  256
370
   -1
100
AcDbPoint
 10
-120
 20
10.00000000000001
  0
LWPOLYLINE
  5
113
100
AcDbEntity
  8
LED_PAD
  6
ByLayer
 62
  256
370
   -1
100
AcDbPolyline
 90
    4
 70
    1
 43
0
 10
-122.5
 20
7.500000000000007
 10
-122.5
 20
12.50000000000001
 10
-117.5
 20
12.50000000000001
 10
-117.5
 20
7.500000000000007
  0
POINT
  5
114
100
AcDbEntity
  8
LED_PAD
  6
ByLayer
 62
  256
370
   -1
100
AcDbPoint
 10
-120
 20
20.00000000000001
  0
LWPOLYLINE
  5
115
100
AcDbEntity
  8
LED_PAD
  6
ByLayer
 62
  256
370
   -1
100
AcDbPolyline
 90
    4
 70
    1
 43
0
 10
-122.5
 20
17.50000000000001
 10
-122.5
 20
22.50000000000001
 10
-117.5
 20
22.50000000000001
 10
-117.5
 20
17.50000000000001
  0
POINT
  5
116
100
AcDbEntity
  8
LED_PAD
  6
ByLayer
 62
  256
370
   -1
100
AcDbPoint
 10
-120
 20
30.00000000000001
  0
LWPOLYLINE
  5
117
100
AcDbEntity
  8
LED_PAD
  6
ByLayer
 62
  256
370
   -1
100
AcDbPolyline
 90
    4
 70
    1
 43
0
 10
-122.5
 20
27.50000000000001
 10
-122.5
 20
32.50000000000001
 10
-117.5
 20
32.50000000000001
 10
-117.5
 20
27.50000000000001
  0
POINT
  5
118
100
AcDbEntity
  8
LED_PAD
  6
ByLayer
 62
  256
370
   -1
100
AcDbPoint
 10
-120
 20
40.00000000000001
  0
LWPOLYLINE
  5
119
100
AcDbEntity
  8
LED_PAD
  6
ByLayer
 62
  256
370
   -1
100
AcDbPolyline
 90
    4
 70
    1
 43
0
 10
-122.5
 20
37.50000000000001
 10
-122.5
 20
42.50000000000001
 10
-117.5
 20
42.50000000000001
 10
-117.5
 20
37.50000000000001
  0
POINT
  5
11A
100
AcDbEntity
  8
LED_PAD
  6
ByLayer
 62
  256
370
   -1
100
AcDbPoint
 10
-120
 20
50.00000000000001
  0
LWPOLYLINE
  5
11B
100
AcDbEntity
  8
LED_PAD
  6
ByLayer
 62
  256
370
   -1
100
AcDbPolyline
 90
    4
 70
    1
 43
0
 10
-122.5
 20
47.50000000000001
 10
-122.5
 20
52.50000000000001
 10
-117.5
 20
52.50000000000001
 10
-117.5
 20
47.50000000000001
  0
POINT
  5
11C
100
AcDbEntity
  8
LED_PAD
  6
ByLayer
 62
  256
370
   -1
100
AcDbPoint
 10
-120
 20
60.00000000000001
  0
LWPOLYLINE
  5
11D
100
AcDbEntity
  8
LED_PAD
  6
ByLayer
 62
  256
370
   -1
100
AcDbPolyline
 90
    4
 70
    1
 43
0
 10
-122.5
 20
57.50000000000001
 10
-122.5
 20
62.50000000000001
 10
-117.5
 20
62.50000000000001
 10
-117.5
 20
57.50000000000001
  0
POINT
  5
11E
100
AcDbEntity
  8
LED_PAD
  6
ByLayer
 62
  256
370
   -1
100
AcDbPoint
 10
-120
 20
70.00000000000001
  0
LWPOLYLINE
  5
11F
100
AcDbEntity
  8
LED_PAD
  6
ByLayer
 62
  256
370
   -1
100
AcDbPolyline
 90
    4
 70
    1
 43
0
 10
-122.5
 20
67.50000000000001
 10
-122.5
 20
72.50000000000001
 10
-117.5
 20
72.50000000000001
 10
-117.5
 20
67.50000000000001
  0
POINT
  5
120
100
AcDbEntity
  8
LED_PAD
  6
ByLayer
 62
  256
370
   -1
100
AcDbPoint
 10
-130
 20
7.654892862685878e-15
  0
LWPOLYLINE
  5
121
100
AcDbEntity
  8
LED_PAD
  6
ByLayer
 62
  256
370
   -1
100
AcDbPolyline
 90
    4
 70
    1
 43
0
 10
-132.5
 20
-2.499999999999992
 10
-132.5
 20
2.500000000000008
 10
-127.5
 20
2.500000000000008
 10
-127.5
 20
-2.499999999999992
  0
POINT
  5
122
100
AcDbEntity
  8
LED_PAD
  6
ByLayer
 62
  256
370
   -1
100
AcDbPoint
 10
-130
 20
10.00000000000001
  0
LWPOLYLINE
  5
123
100
AcDbEntity
  8
LED_PAD
  6
ByLayer
 62
  256
370
   -1
100
AcDbPolyline
 90
    4
 70
    1
 43
0
 10
-132.5
 20
7.500000000000008
 10
-132.5
 20
12.50000000000001
 10
-127.5
 20
12.50000000000001
 10
-127.5
 20
7.500000000000008
  0
POINT
  5
124
100
AcDbEntity
  8
LED_PAD
  6
ByLayer
 62
  256
370
   -1
100
AcDbPoint
 10
-130
 20
20.00000000000001
  0
LWPOLYLINE
  5
125
100
AcDbEntity
  8
LED_PAD
  6
ByLayer
 62
  256
370
   -1
100
AcDbPolyline
 90
    4
 70
    1
 43
0
 10
-132.5
 20
17.50000000000001
 10
-132.5
 20
22.50000000000001
 10
-127.5
 20
22.50000000000001
 10
-127.5
 20
17.50000000000001
  0
POINT
  5
126
100
AcDbEntity
  8
LED_PAD
  6
ByLayer
 62
  256
370
   -1
100
AcDbPoint
 10
-130
 20
30.00000000000001
  0
LWPOLYLINE
  5
127
100
AcDbEntity
  8
LED_PAD
  6
ByLayer
 62
  256
370
   -1
100
AcDbPolyline
 90
    4
 70
    1
 43
0
 10
-132.5
 20
27.50000000000001
 10
-132.5
 20
32.50000000000001
 10
-127.5
 20
32.50000000000001
 10
-127.5
 20
27.50000000000001
  0
POINT
  5
128
100
AcDbEntity
  8
LED_PAD
  6
ByLayer
 62
  256
370
   -1
100
AcDbPoint
 10
-130
 20
40.00000000000001
  0
LWPOLYLINE
  5
129
100
AcDbEntity
  8
LED_PAD
  6
ByLayer
 62
  256
370
   -1
100
AcDbPolyline
 90
    4
 70
    1
 43
0
 10
-132.5
 20
37.50000000000001
 10
-132.5
 20
42.50000000000001
 10
-127.5
 20
42.50000000000001
 10
-127.5
 20
37.50000000000001
  0
POINT
  5
12A
100
AcDbEntity
  8
LED_PAD
  6
ByLayer
 62
  256
370
   -1
100
AcDbPoint
 10
-130
 20
50.00000000000001
  0
LWPOLYLINE
  5
12B
100
AcDbEntity
  8
LED_PAD
  6
ByLayer
 62
  256
370
   -1
100
AcDbPolyline
 90
    4
 70
    1
 43
0
 10
-132.5
 20
47.50000000000001
 10
-132.5
 20
52.50000000000001
 10
-127.5
 20
52.50000000000001
 10
-127.5
 20
47.50000000000001
  0
POINT
  5
12C
100
AcDbEntity
  8
LED_PAD
  6
ByLayer
 62
  256
370
   -1
100
AcDbPoint
 10
-130
 20
60.00000000000001
  0
LWPOLYLINE
  5
12D
100
AcDbEntity
  8
LED_PAD
  6
ByLayer
 62
  256
370
   -1
100
AcDbPolyline
 90
    4
 70
    1
 43
0
 10
-132.5
 20
57.50000000000001
 10
-132.5
 20
62.50000000000001
 10
-127.5
 20
62.50000000000001
 10
-127.5
 20
57.50000000000001
  0
POINT
  5
12E
100
AcDbEntity
  8
LED_PAD
  6
ByLayer
 62
  256
370
   -1
100
AcDbPoint
 10
-130
 20
70.00000000000001
  0
LWPOLYLINE
  5
12F
100
AcDbEntity
  8
LED_PAD
  6
ByLayer
 62
  256
370
   -1
100
AcDbPolyline
 90
    4
 70
    1
 43
0
 10
-132.5
 20
67.50000000000001
 10
-132.5
 20
72.50000000000001
 10
-127.5
 20
72.50000000000001
 10
-127.5
 20
67.50000000000001
  0
POINT
  5
130
100
AcDbEntity
  8
LED_PAD
  6
ByLayer
 62
  256
370
   -1
100
AcDbPoint
 10
-140
 20
8.267216262259555e-15
  0
LWPOLYLINE
  5
131
100
AcDbEntity
  8
LED_PAD
  6
ByLayer
 62
  256
370
   -1
100
AcDbPolyline
 90
    4
 70
    1
 43
0
 10
-142.5
 20
-2.499999999999991
 10
-142.5
 20
2.500000000000009
 10
-137.5
 20
2.500000000000008
 10
-137.5
 20
-2.499999999999992
  0
POINT
  5
132
100
AcDbEntity
  8
LED_PAD
  6
ByLayer
 62
  256
370
   -1
100
AcDbPoint
 10
-140
 20
10.00000000000001
  0
LWPOLYLINE
  5
133
100
AcDbEntity
  8
LED_PAD
  6
ByLayer
 62
  256
370
   -1
100
AcDbPolyline
 90
    4
 70
    1
 43
0
 10
-142.5
 20
7.500000000000009
 10
-142.5
 20
12.50000000000001
 10
-137.5
 20
12.50000000000001
 10
-137.5
 20
7.500000000000008
  0
POINT
  5
134
100
AcDbEntity
  8
LED_PAD
  6
ByLayer
 62
  256
370
   -1
100
AcDbPoint
 10
-140
 20
20.00000000000001
  0
LWPOLYLINE
  5
135
100
AcDbEntity
  8
LED_PAD
  6
ByLayer
 62
  256
370
   -1
100
AcDbPolyline
 90
    4
 70
    1
 43
0
 10
-142.5
 20
17.50000000000001
 10
-142.5
 20
22.50000000000001
 10
-137.5
 20
22.50000000000001
 10
-137.5
 20
17.50000000000001
  0
POINT
  5
136
100
AcDbEntity
  8
LED_PAD
  6
ByLayer
 62
  256
370
   -1
100
AcDbPoint
 10
-140
 20
30.00000000000001
  0
LWPOLYLINE
  5
137
100
AcDbEntity
  8
LED_PAD
  6
ByLayer
 62
  256
370
   -1
100
AcDbPolyline
 90
    4
 70
    1
 43
0
 10
-142.5
 20
27.50000000000001
 10
-142.5
 20
32.50000000000001
 10
-137.5
 20
32.50000000000001
 10
-137.5
 20
27.50000000000001
  0
POINT
  5
138
100
AcDbEntity
  8
LED_PAD
  6
ByLayer
 62
  256
370
   -1
100
AcDbPoint
 10
-140
 20
40.00000000000001
  0
LWPOLYLINE
  5
139
100
AcDbEntity
  8
LED_PAD
  6
ByLayer
 62
  256
370
   -1
100
AcDbPolyline
 90
    4
 70
    1
 43
0
 10
-142.5
 20
37.50000000000001
 10
-142.5
 20
42.50000000000001
 10
-137.5
 20
42.50000000000001
 10
-137.5
 20
37.50000000000001
  0
POINT
  5
13A
100
AcDbEntity
  8
LED_PAD
  6
ByLayer
 62
  256
370
   -1
100
AcDbPoint
 10
-140
 20
50.00000000000001
  0
LWPOLYLINE
  5
13B
100
AcDbEntity
  8
LED_PAD
  6
ByLayer
 62
  256
370
   -1
100
AcDbPolyline
 90
    4
 70
    1
 43
0
 10
-142.5
 20
47.50000000000001
 10
-142.5
 20
52.50000000000001
 10
-137.5
 20
52.50000000000001
 10
-137.5
 20
47.50000000000001
  0
POINT
  5
13C
100
AcDbEntity
  8
LED_PAD
  6
ByLayer
 62
  256
370
   -1
100
AcDbPoint
 10
-140
 20
60.00000000000001
  0
LWPOLYLINE
  5
13D
100
AcDbEntity
  8
LED_PAD
  6
ByLayer
 62
  256
370
   -1
100
AcDbPolyline
 90
    4
 70
    1
 43
0
 10
-142.5
 20
57.50000000000001
 10
-142.5
 20
62.50000000000001
 10
-137.5
 20
62.50000000000001
 10
-137.5
 20
57.50000000000001
  0
POINT
  5
13E
100
AcDbEntity
  8
LED_PAD
  6
ByLayer
 62
  256
370
   -1
100
AcDbPoint
 10
-140
 20
70.00000000000001
  0
LWPOLYLINE
  5
13F
100
AcDbEntity
  8
LED_PAD
  6
ByLayer
 62
  256
370
   -1
100
AcDbPolyline
 90
    4
 70
    1
 43
0
 10
-142.5
 20
67.50000000000001
 10
-142.5
 20
72.50000000000001
 10
-137.5
 20
72.50000000000001
 10
-137.5
 20
67.50000000000001
  0
POINT
  5
140
100
AcDbEntity
  8
LED_PAD
  6
ByLayer
 62
  256
370
   -1
100
AcDbPoint
 10
-150
 20
8.879539661833231e-15
  0
LWPOLYLINE
  5
141
100
AcDbEntity
  8
LED_PAD
  6
ByLayer
 62
  256
370
   -1
100
AcDbPolyline
 90
    4
 70
    1
 43
0
 10
-152.5
 20
-2.499999999999991
 10
-152.5
 20
2.500000000000009
 10
-147.5
 20
2.500000000000009
 10
-147.5
 20
-2.499999999999991
  0
POINT
  5
142
100
AcDbEntity
  8
LED_PAD
  6
ByLayer
 62
  256
370
   -1
100
AcDbPoint
 10
-150
 20
10.00000000000001
  0
LWPOLYLINE
  5
143
100
AcDbEntity
  8
LED_PAD
  6
ByLayer
 62
  256
370
   -1
100
AcDbPolyline
 90
    4
 70
    1
 43
0
 10
-152.5
 20
7.50000000000001
 10
-152.5
 20
12.50000000000001
 10
-147.5
 20
12.50000000000001
 10
-147.5
 20
7.500000000000009
  0
POINT
  5
144
100
AcDbEntity
  8
LED_PAD
  6
ByLayer
 62
  256
370
   -1
100
AcDbPoint
 10
-150
 20
20.00000000000001
  0
LWPOLYLINE
  5
145
100
AcDbEntity
  8
LED_PAD
  6
ByLayer
 62
  256
370
   -1
100
AcDbPolyline
 90
    4
 70
    1
 43
0
 10
-152.5
 20
17.50000000000001
 10
-152.5
 20
22.50000000000001
 10
-147.5
 20
22.50000000000001
 10
-147.5
 20
17.50000000000001
  0
POINT
  5
146
100
AcDbEntity
  8
LED_PAD
  6
ByLayer
 62
  256
370
   -1
100
AcDbPoint
 10
-150
 20
30.00000000000001
  0
LWPOLYLINE
  5
147
100
AcDbEntity
  8
LED_PAD
  6
ByLayer
 62
  256
370
   -1
100
AcDbPolyline
 90
    4
 70
    1
 43
0
 10
-152.5
 20
27.50000000000001
 10
-152.5
 20
32.50000000000001
 10
-147.5
 20
32.50000000000001
 10
-147.5
 20
27.50000000000001
  0
POINT
  5
148
100
AcDbEntity
  8
LED_PAD
  6
ByLayer
 62
  256
370
   -1
100
AcDbPoint
 10
-150
 20
40.00000000000001
  0
LWPOLYLINE
  5
149
100
AcDbEntity
  8
LED_PAD
  6
ByLayer
 62
  256
370
   -1
100
AcDbPolyline
 90
    4
 70
    1
 43
0
 10
-152.5
 20
37.50000000000001
 10
-152.5
 20
42.50000000000001
 10
-147.5
 20
42.50000000000001
 10
-147.5
 20
37.50000000000001
  0
POINT
  5
14A
100
AcDbEntity
  8
LED_PAD
  6
ByLayer
 62
  256
370
   -1
100
AcDbPoint
 10
-150
 20
50.00000000000001
  0
LWPOLYLINE
  5
14B
100
AcDbEntity
  8
LED_PAD
  6
ByLayer
 62
  256
370
   -1
100
AcDbPolyline
 90
    4
 70
    1
 43
0
 10
-152.5
 20
47.50000000000001
 10
-152.5
 20
52.50000000000001
 10
-147.5
 20
52.50000000000001
 10
-147.5
 20
47.50000000000001
  0
POINT
  5
14C
100
AcDbEntity
  8
LED_PAD
  6
ByLayer
 62
  256
370
   -1
100
AcDbPoint
 10
-150
 20
60.00000000000001
  0
LWPOLYLINE
  5
14D
100
AcDbEntity
  8
LED_PAD
  6
ByLayer
 62
  256
370
   -1
100
AcDbPolyline
 90
    4
 70
    1
 43
0
 10
-152.5
 20
57.50000000000001
 10
-152.5
 20
62.50000000000001
 10
-147.5
 20
62.50000000000001
 10
-147.5
 20
57.50000000000001
  0
POINT
  5
14E
100
AcDbEntity
  8
LED_PAD
  6
ByLayer
 62
  256
370
   -1
100
AcDbPoint
 10
-150
 20
70.00000000000001
  0
LWPOLYLINE
  5
14F
100
AcDbEntity
  8
LED_PAD
  6
ByLayer
 62
  256
370
   -1
100
AcDbPolyline
 90
    4
 70
    1
 43
0
 10
-152.5
 20
67.50000000000001
 10
-152.5
 20
72.50000000000001
 10
-147.5
 20
72.50000000000001
 10
-147.5
 20
67.50000000000001
  0
POINT
  5
150
100
AcDbEntity
  8
LED_PAD
  6
ByLayer
 62
  256
370
   -1
100
AcDbPoint
 10
-160
 20
9.491863061406908e-15
  0
LWPOLYLINE
  5
151
100
AcDbEntity
  8
LED_PAD
  6
ByLayer
 62
  256
370
   -1
100
AcDbPolyline
 90
    4
 70
    1
 43
0
 10
-162.5
 20
-2.49999999999999
 10
-162.5
 20
2.50000000000001
 10
-157.5
 20
2.50000000000001
 10
-157.5
 20
-2.49999999999999
  0
POINT
  5
152
100
AcDbEntity
  8
LED_PAD
  6
ByLayer
 62
  256
370
   -1
100
AcDbPoint
 10
-160
 20
10.00000000000001
  0
LWPOLYLINE
  5
153
100
AcDbEntity
  8
LED_PAD
  6
ByLayer
 62
  256
370
   -1
100
AcDbPolyline
 90
    4
 70
    1
 43
0
 10
-162.5
 20
7.50000000000001
 10
-162.5
 20
12.50000000000001
 10
-157.5
 20
12.50000000000001
 10
-157.5
 20
7.50000000000001
  0
POINT
  5
154
100
AcDbEntity
  8
LED_PAD
  6
ByLayer
 62
  256
370
   -1
100
AcDbPoint
 10
-160
 20
20.00000000000001
  0
LWPOLYLINE
  5
155
100
AcDbEntity
  8
LED_PAD
  6
ByLayer
 62
  256
370
   -1
100
AcDbPolyline
 90
    4
 70
    1
 43
0
 10
-162.5
 20
17.50000000000001
 10
-162.5
 20
22.50000000000001
 10
-157.5
 20
22.50000000000001
 10
-157.5
 20
17.50000000000001
  0
POINT
  5
156
100
AcDbEntity
  8
LED_PAD
  6
ByLayer
 62
  256
370
   -1
100
AcDbPoint
 10
-160
 20
30.00000000000001
  0
LWPOLYLINE
  5
157
100
AcDbEntity
  8
LED_PAD
  6
ByLayer
 62
  256
370
   -1
100
AcDbPolyline
 90
    4
 70
    1
 43
0
 10
-162.5
 20
27.50000000000001
 10
-162.5
 20
32.50000000000001
 10
-157.5
 20
32.50000000000001
 10
-157.5
 20
27.50000000000001
  0
POINT
  5
158
100
AcDbEntity
  8
LED_PAD
  6
ByLayer
 62
  256
370
   -1
100
AcDbPoint
 10
-160
 20
40.00000000000001
  0
LWPOLYLINE
  5
159
100
AcDbEntity
  8
LED_PAD
  6
ByLayer
 62
  256
370
   -1
100
AcDbPolyline
 90
    4
 70
    1
 43
0
 10
-162.5
 20
37.50000000000001
 10
-162.5
 20
42.50000000000001
 10
-157.5
 20
42.50000000000001
 10
-157.5
 20
37.50000000000001
  0
POINT
  5
15A
100
AcDbEntity
  8
LED_PAD
  6
ByLayer
 62
  256
370
   -1
100
AcDbPoint
 10
-160
 20
50.00000000000001
  0
LWPOLYLINE
  5
15B
100
AcDbEntity
  8
LED_PAD
  6
ByLayer
 62
  256
370
   -1
100
AcDbPolyline
 90
    4
 70
    1
 43
0
 10
-162.5
 20
47.50000000000001
 10
-162.5
 20
52.50000000000001
 10
-157.5
 20
52.50000000000001
 10
-157.5
 20
47.50000000000001
  0
POINT
  5
15C
100
AcDbEntity
  8
LED_PAD
  6
ByLayer
 62
  256
370
   -1
100
AcDbPoint
 10
-160
 20
60.00000000000001
  0
LWPOLYLINE
  5
15D
100
AcDbEntity
  8
LED_PAD
  6
ByLayer
 62
  256
370
   -1
100
AcDbPolyline
 90
    4
 70
    1
 43
0
 10
-162.5
 20
57.50000000000001
 10
-162.5
 20
62.50000000000001
 10
-157.5
 20
62.50000000000001
 10
-157.5
 20
57.50000000000001
  0
POINT
  5
15E
100
AcDbEntity
  8
LED_PAD
  6
ByLayer
 62
  256
370
   -1
100
AcDbPoint
 10
-160
 20
70.00000000000001
  0
LWPOLYLINE
  5
15F
100
AcDbEntity
  8
LED_PAD
  6
ByLayer
 62
  256
370
   -1
100
AcDbPolyline
 90
    4
 70
    1
 43
0
 10
-162.5
 20
67.50000000000001
 10
-162.5
 20
72.50000000000001
 10
-157.5
 20
72.50000000000001
 10
-157.5
 20
67.50000000000001
  0
POINT
  5
160
100
AcDbEntity
  8
LED_PAD
  6
ByLayer
 62
  256
370
   -1
100
AcDbPoint
 10
-170
 20
1.010418646098058e-14
  0
LWPOLYLINE
  5
161
100
AcDbEntity
  8
LED_PAD
  6
ByLayer
 62
  256
370
   -1
100
AcDbPolyline
 90
    4
 70
    1
 43
0
 10
-172.5
 20
-2.499999999999989
 10
-172.5
 20
2.500000000000011
 10
-167.5
 20
2.50000000000001
 10
-167.5
 20
-2.49999999999999
  0
POINT
  5
162
100
AcDbEntity
  8
LED_PAD
  6
ByLayer
 62
  256
370
   -1
100
AcDbPoint
 10
-170
 20
10.00000000000001
  0
LWPOLYLINE
  5
163
100
AcDbEntity
  8
LED_PAD
  6
ByLayer
 62
  256
370
   -1
100
AcDbPolyline
 90
    4
 70
    1
 43
0
 10
-172.5
 20
7.500000000000011
 10
-172.5
 20
12.50000000000001
 10
-167.5
 20
12.50000000000001
 10
-167.5
 20
7.500000000000011
  0
POINT
  5
164
100
AcDbEntity
  8
LED_PAD
  6
ByLayer
 62
  256
370
   -1
100
AcDbPoint
 10
-170
 20
20.00000000000001
  0
LWPOLYLINE
  5
165
100
AcDbEntity
  8
LED_PAD
  6
ByLayer
 62
  256
370
   -1
100
AcDbPolyline
 90
    4
 70
    1
 43
0
 10
-172.5
 20
17.50000000000001
 10
-172.5
 20
22.50000000000001
 10
-167.5
 20
22.50000000000001
 10
-167.5
 20
17.50000000000001
  0
POINT
  5
166
100
AcDbEntity
  8
LED_PAD
  6
ByLayer
 62
  256
370
   -1
100
AcDbPoint
 10
-170
 20
30.00000000000001
  0
LWPOLYLINE
  5
167
100
AcDbEntity
  8
LED_PAD
  6
ByLayer
 62
  256
370
   -1
100
AcDbPolyline
 90
    4
 70
    1
 43
0
 10
-172.5
 20
27.50000000000001
 10
-172.5
 20
32.50000000000001
 10
-167.5
 20
32.50000000000001
 10
-167.5
 20
27.50000000000001
  0
POINT
  5
168
100
AcDbEntity
  8
LED_PAD
  6
ByLayer
 62
  256
370
   -1
100
AcDbPoint
 10
-170
 20
40.00000000000001
  0
LWPOLYLINE
  5
169
100
AcDbEntity
  8
LED_PAD
  6
ByLayer
 62
  256
370
   -1
100
AcDbPolyline
 90
    4
 70
    1
 43
0
 10
-172.5
 20
37.50000000000001
 10
-172.5
 20
42.50000000000001
 10
-167.5
 20
42.50000000000001
 10
-167.5
 20
37.50000000000001
  0
POINT
  5
16A
100
AcDbEntity
  8
LED_PAD
  6
ByLayer
 62
  256
370
   -1
100
AcDbPoint
 10
-170
 20
50.00000000000001
  0
LWPOLYLINE
  5
16B
100
AcDbEntity
  8
LED_PAD
  6
ByLayer
 62
  256
370
   -1
100
AcDbPolyline
 90
    4
 70
    1
 43
0
 10
-172.5
 20
47.50000000000001
 10
-172.5
 20
52.50000000000001
 10
-167.5
 20
52.50000000000001
 10
-167.5
 20
47.50000000000001
  0
POINT
  5
16C
100
AcDbEntity
  8
LED_PAD
  6
ByLayer
 62
  256
370
   -1
100
AcDbPoint
 10
-170
 20
60.00000000000001
  0
LWPOLYLINE
  5
16D
100
AcDbEntity
  8
LED_PAD
  6
ByLayer
 62
  256
370
   -1
100
AcDbPolyline
 90
    4
 70
    1
 43
0
 10
-172.5
 20
57.50000000000001
 10
-172.5
 20
62.50000000000001
 10
-167.5
 20
62.50000000000001
 10
-167.5
 20
57.50000000000001
  0
POINT
  5
16E
100
AcDbEntity
  8
LED_PAD
  6
ByLayer
 62
  256
370
   -1
100
AcDbPoint
 10
-170
 20
70.00000000000001
  0
LWPOLYLINE
  5
16F
100
AcDbEntity
  8
LED_PAD
  6
ByLayer
 62
  256
370
   -1
100
AcDbPolyline
 90
    4
 70
    1
 43
0
 10
-172.5
 20
67.50000000000001
 10
-172.5
 20
72.50000000000001
 10
-167.5
 20
72.50000000000001
 10
-167.5
 20
67.50000000000001
  0
POINT
  5
170
100
AcDbEntity
  8
LED_PAD
  6
ByLayer
 62
  256
370
   -1
100
AcDbPoint
 10
-180
 20
1.071650986055426e-14
  0
LWPOLYLINE
  5
171
100
AcDbEntity
  8
LED_PAD
  6
ByLayer
 62
  256
370
   -1
100
AcDbPolyline
 90
    4
 70
    1
 43
0
 10
-182.5
 20
-2.499999999999989
 10
-182.5
 20
2.500000000000011
 10
-177.5
 20
2.500000000000011
 10
-177.5
 20
-2.499999999999989
  0
POINT
  5
172
100
AcDbEntity
  8
LED_PAD
  6
ByLayer
 62
  256
370
   -1
100
AcDbPoint
 10
-180
 20
10.00000000000001
  0
LWPOLYLINE
  5
173
100
AcDbEntity
  8
LED_PAD
  6
ByLayer
 62
  256
370
   -1
100
AcDbPolyline
 90
    4
 70
    1
 43
0
 10
-182.5
 20
7.500000000000012
 10
-182.5
 20
12.50000000000001
 10
-177.5
 20
12.50000000000001
 10
-177.5
 20
7.500000000000011
  0
POINT
  5
174
100
AcDbEntity
  8
LED_PAD
  6
ByLayer
 62
  256
370
   -1
100
AcDbPoint
 10
-180
 20
20.00000000000001
  0
LWPOLYLINE
  5
175
100
AcDbEntity
  8
LED_PAD
  6
ByLayer
 62
  256
370
   -1
100
AcDbPolyline
 90
    4
 70
    1
 43
0
 10
-182.5
 20
17.50000000000001
 10
-182.5
 20
22.50000000000001
 10
-177.5
 20
22.50000000000001
 10
-177.5
 20
17.50000000000001
  0
POINT
  5
176
100
AcDbEntity
  8
LED_PAD
  6
ByLayer
 62
  256
370
   -1
100
AcDbPoint
 10
-180
 20
30.00000000000001
  0
LWPOLYLINE
  5
177
100
AcDbEntity
  8
LED_PAD
  6
ByLayer
 62
  256
370
   -1
100
AcDbPolyline
 90
    4
 70
    1
 43
0
 10
-182.5
 20
27.50000000000001
 10
-182.5
 20
32.50000000000001
 10
-177.5
 20
32.50000000000001
 10
-177.5
 20
27.50000000000001
  0
POINT
  5
178
100
AcDbEntity
  8
LED_PAD
  6
ByLayer
 62
  256
370
   -1
100
AcDbPoint
 10
-180
 20
40.00000000000001
  0
LWPOLYLINE
  5
179
100
AcDbEntity
  8
LED_PAD
  6
ByLayer
 62
  256
370
   -1
100
AcDbPolyline
 90
    4
 70
    1
 43
0
 10
-182.5
 20
37.50000000000001
 10
-182.5
 20
42.50000000000001
 10
-177.5
 20
42.50000000000001
 10
-177.5
 20
37.50000000000001
  0
POINT
  5
17A
100
AcDbEntity
  8
LED_PAD
  6
ByLayer
 62
  256
370
   -1
100
AcDbPoint
 10
-180
 20
50.00000000000001
  0
LWPOLYLINE
  5
17B
100
AcDbEntity
  8
LED_PAD
  6
ByLayer
 62
  256
370
   -1
100
AcDbPolyline
 90
    4
 70
    1
 43
0
 10
-182.5
 20
47.50000000000001
 10
-182.5
 20
52.50000000000001
 10
-177.5
 20
52.50000000000001
 10
-177.5
 20
47.50000000000001
  0
POINT
  5
17C
100
AcDbEntity
  8
LED_PAD
  6
ByLayer
 62
  256
370
   -1
100
AcDbPoint
 10
-180
 20
60.00000000000001
  0
LWPOLYLINE
  5
17D
100
AcDbEntity
  8
LED_PAD
  6
ByLayer
 62
  256
370
   -1
100
AcDbPolyline
 90
    4
 70
    1
 43
0
 10
-182.5
 20
57.50000000000001
 10
-182.5
 20
62.50000000000001
 10
-177.5
 20
62.50000000000001
 10
-177.5
 20
57.50000000000001
  0
POINT
  5
17E
100
AcDbEntity
  8
LED_PAD
  6
ByLayer
 62
  256
370
   -1
100
AcDbPoint
 10
-180
 20
70.00000000000001
  0
LWPOLYLINE
  5
17F
100
AcDbEntity
  8
LED_PAD
  6
ByLayer
 62
  256
370
   -1
100
AcDbPolyline
 90
    4
 70
    1
 43
0
 10
-182.5
 20
67.50000000000001
 10
-182.5
 20
72.50000000000001
 10
-177.5
 20
72.50000000000001
 10
-177.5
 20
67.50000000000001
  0
POINT
  5
180
100
AcDbEntity
  8
LED_PAD
  6
ByLayer
 62
  256
370
   -1
100
AcDbPoint
 10
-190
 20
1.132883326012794e-14
  0
LWPOLYLINE
  5
181
100
AcDbEntity
  8
LED_PAD
  6
ByLayer
 62
  256
370
   -1
100
AcDbPolyline
 90
    4
 70
    1
 43
0
 10
-192.5
 20
-2.499999999999988
 10
-192.5
 20
2.500000000000012
 10
-187.5
 20
2.500000000000012
 10
-187.5
 20
-2.499999999999988
  0
POINT
  5
182
100
AcDbEntity
  8
LED_PAD
  6
ByLayer
 62
  256
370
   -1
100
AcDbPoint
 10
-190
 20
10.00000000000001
  0
LWPOLYLINE
  5
183
100
AcDbEntity
  8
LED_PAD
  6
ByLayer
 62
  256
370
   -1
100
AcDbPolyline
 90
    4
 70
    1
 43
0
 10
-192.5
 20
7.500000000000012
 10
-192.5
 20
12.50000000000001
 10
-187.5
 20
12.50000000000001
 10
-187.5
 20
7.500000000000012
  0
POINT
  5
184
100
AcDbEntity
  8
LED_PAD
  6
ByLayer
 62
  256
370
   -1
100
AcDbPoint
 10
-190
 20
20.00000000000001
  0
LWPOLYLINE
  5
185
100
AcDbEntity
  8
LED_PAD
  6
ByLayer
 62
  256
370
   -1
100
AcDbPolyline
 90
    4
 70
    1
 43
0
 10
-192.5
 20
17.50000000000001
 10
-192.5
 20
22.50000000000001
 10
-187.5
 20
22.50000000000001
 10
-187.5
 20
17.50000000000001
  0
POINT
  5
186
100
AcDbEntity
  8
LED_PAD
  6
ByLayer
 62
  256
370
   -1
100
AcDbPoint
 10
-190
 20
30.00000000000001
  0
LWPOLYLINE
  5
187
100
AcDbEntity
  8
LED_PAD
  6
ByLayer
 62
  256
370
   -1
100
AcDbPolyline
 90
    4
 70
    1
 43
0
 10
-192.5
 20
27.50000000000001
 10
-192.5
 20
32.50000000000001
 10
-187.5
 20
32.50000000000001
 10
-187.5
 20
27.50000000000001
  0
POINT
  5
188
100
AcDbEntity
  8
LED_PAD
  6
ByLayer
 62
  256
370
   -1
100
AcDbPoint
 10
-190
 20
40.00000000000001
  0
LWPOLYLINE
  5
189
100
AcDbEntity
  8
LED_PAD
  6
ByLayer
 62
  256
370
   -1
100
AcDbPolyline
 90
    4
 70
    1
 43
0
 10
-192.5
 20
37.50000000000001
 10
-192.5
 20
42.50000000000001
 10
-187.5
 20
42.50000000000001
 10
-187.5
 20
37.50000000000001
  0
POINT
  5
18A
100
AcDbEntity
  8
LED_PAD
  6
ByLayer
 62
  256
370
   -1
100
AcDbPoint
 10
-190
 20
50.00000000000001
  0
LWPOLYLINE
  5
18B
100
AcDbEntity
  8
LED_PAD
  6
ByLayer
 62
  256
370
   -1
100
AcDbPolyline
 90
    4
 70
    1
 43
0
 10
-192.5
 20
47.50000000000001
 10
-192.5
 20
52.50000000000001
 10
-187.5
 20
52.50000000000001
 10
-187.5
 20
47.50000000000001
  0
POINT
  5
18C
100
AcDbEntity
  8
LED_PAD
  6
ByLayer
 62
  256
370
   -1
100
AcDbPoint
 10
-190
 20
60.00000000000001
  0
LWPOLYLINE
  5
18D
100
AcDbEntity
  8
LED_PAD
  6
ByLayer
 62
  256
370
   -1
100
AcDbPolyline
 90
    4
 70
    1
 43
0
 10
-192.5
 20
57.50000000000001
 10
-192.5
 20
62.50000000000001
 10
-187.5
 20
62.50000000000001
 10
-187.5
 20
57.50000000000001
  0
POINT
  5
18E
100
AcDbEntity
  8
LED_PAD
  6
ByLayer
 62
  256
370
   -1
100
AcDbPoint
 10
-190
 20
70.00000000000001
  0
LWPOLYLINE
  5
18F
100
AcDbEntity
  8
LED_PAD
  6
ByLayer
 62
  256
370
   -1
100
AcDbPolyline
 90
    4
 70
    1
 43
0
 10
-192.5
 20
67.50000000000001
 10
-192.5
 20
72.50000000000001
 10
-187.5
 20
72.50000000000001
 10
-187.5
 20
67.50000000000001
  0
POINT
  5
190
100
AcDbEntity
  8
LED_PAD
  6
ByLayer
 62
  256
370
   -1
100
AcDbPoint
 10
-200
 20
1.194115665970161e-14
  0
LWPOLYLINE
  5
191
100
AcDbEntity
  8
LED_PAD
  6
ByLayer
 62
  256
370
   -1
100
AcDbPolyline
 90
    4
 70
    1
 43
0
 10
-202.5
 20
-2.499999999999988
 10
-202.5
 20
2.500000000000012
 10
-197.5
 20
2.500000000000012
 10
-197.5
 20
-2.499999999999988
  0
POINT
  5
192
100
AcDbEntity
  8
LED_PAD
  6
ByLayer
 62
  256
370
   -1
100
AcDbPoint
 10
-200
 20
10.00000000000001
  0
LWPOLYLINE
  5
193
100
AcDbEntity
  8
LED_PAD
  6
ByLayer
 62
  256
370
   -1
100
AcDbPolyline
 90
    4
 70
    1
 43
0
 10
-202.5
 20
7.500000000000012
 10
-202.5
 20
12.50000000000001
 10
-197.5
 20
12.50000000000001
 10
-197.5
 20
7.500000000000012
  0
POINT
  5
194
100
AcDbEntity
  8
LED_PAD
  6
ByLayer
 62
  256
370
   -1
100
AcDbPoint
 10
-200
 20
20.00000000000001
  0
LWPOLYLINE
  5
195
100
AcDbEntity
  8
LED_PAD
  6
ByLayer
 62
  256
370
   -1
100
AcDbPolyline
 90
    4
 70
    1
 43
0
 10
-202.5
 20
17.50000000000001
 10
-202.5
 20
22.50000000000001
 10
-197.5
 20
22.50000000000001
 10
-197.5
 20
17.50000000000001
  0
POINT
  5
196
100
AcDbEntity
  8
LED_PAD
  6
ByLayer
 62
  256
370
   -1
100
AcDbPoint
 10
-200
 20
30.00000000000001
  0
LWPOLYLINE
  5
197
100
AcDbEntity
  8
LED_PAD
  6
ByLayer
 62
  256
370
   -1
100
AcDbPolyline
 90
    4
 70
    1
 43
0
 10
-202.5
 20
27.50000000000001
 10
-202.5
 20
32.50000000000001
 10
-197.5
 20
32.50000000000001
 10
-197.5
 20
27.50000000000001
  0
POINT
  5
198
100
AcDbEntity
  8
LED_PAD
  6
ByLayer
 62
  256
370
   -1
100
AcDbPoint
 10
-200
 20
40.00000000000001
  0
LWPOLYLINE
  5
199
100
AcDbEntity
  8
LED_PAD
  6
ByLayer
 62
  256
370
   -1
100
AcDbPolyline
 90
    4
 70
    1
 43
0
 10
-202.5
 20
37.50000000000001
 10
-202.5
 20
42.50000000000001
 10
-197.5
 20
42.50000000000001
 10
-197.5
 20
37.50000000000001
  0
POINT
  5
19A
100
AcDbEntity
  8
LED_PAD
  6
ByLayer
 62
  256
370
   -1
100
AcDbPoint
 10
-200
 20
50.00000000000001
  0
LWPOLYLINE
  5
19B
100
AcDbEntity
  8
LED_PAD
  6
ByLayer
 62
  256
370
   -1
100
AcDbPolyline
 90
    4
 70
    1
 43
0
 10
-202.5
 20
47.50000000000001
 10
-202.5
 20
52.50000000000001
 10
-197.5
 20
52.50000000000001
 10
-197.5
 20
47.50000000000001
  0
POINT
  5
19C
100
AcDbEntity
  8
LED_PAD
  6
ByLayer
 62
  256
370
   -1
100
AcDbPoint
 10
-200
 20
60.00000000000001
  0
LWPOLYLINE
  5
19D
100
AcDbEntity
  8
LED_PAD
  6
ByLayer
 62
  256
370
   -1
100
AcDbPolyline
 90
    4
 70
    1
 43
0
 10
-202.5
 20
57.50000000000001
 10
-202.5
 20
62.50000000000001
 10
-197.5
 20
62.50000000000001
 10
-197.5
 20
57.50000000000001
  0
POINT
  5
19E
100
AcDbEntity
  8
LED_PAD
  6
ByLayer
 62
  256
370
   -1
100
AcDbPoint
 10
-200
 20
70.00000000000001
  0
LWPOLYLINE
  5
19F
100
AcDbEntity
  8
LED_PAD
  6
ByLayer
 62
  256
370
   -1
100
AcDbPolyline
 90
    4
 70
    1
 43
0
 10
-202.5
 20
67.50000000000001
 10
-202.5
 20
72.50000000000001
 10
-197.5
 20
72.50000000000001
 10
-197.5
 20
67.50000000000001
  0
POINT
  5
1A0
100
AcDbEntity
  8
LED_PAD
  6
ByLayer
 62
  256
370
   -1
100
AcDbPoint
 10
-210
 20
1.255348005927529e-14
  0
LWPOLYLINE
  5
1A1
100
AcDbEntity
  8
LED_PAD
  6
ByLayer
 62
  256
370
   -1
100
AcDbPolyline
 90
    4
 70
    1
 43
0
 10
-212.5
 20
-2.499999999999987
 10
-212.5
 20
2.500000000000013
 10
-207.5
 20
2.500000000000013
 10
-207.5
 20
-2.499999999999987
  0
POINT
  5
1A2
100
AcDbEntity
  8
LED_PAD
  6
ByLayer
 62
  256
370
   -1
100
AcDbPoint
 10
-210
 20
10.00000000000001
  0
LWPOLYLINE
  5
1A3
100
AcDbEntity
  8
LED_PAD
  6
ByLayer
 62
  256
370
   -1
100
AcDbPolyline
 90
    4
 70
    1
 43
0
 10
-212.5
 20
7.500000000000013
 10
-212.5
 20
12.50000000000001
 10
-207.5
 20
12.50000000000001
 10
-207.5
 20
7.500000000000012
  0
POINT
  5
1A4
100
AcDbEntity
  8
LED_PAD
  6
ByLayer
 62
  256
370
   -1
100
AcDbPoint
 10
-210
 20
20.00000000000001
  0
LWPOLYLINE
  5
1A5
100
AcDbEntity
  8
LED_PAD
  6
ByLayer
 62
  256
370
   -1
100
AcDbPolyline
 90
    4
 70
    1
 43
0
 10
-212.5
 20
17.50000000000001
 10
-212.5
 20
22.50000000000001
 10
-207.5
 20
22.50000000000001
 10
-207.5
 20
17.50000000000001
  0
POINT
  5
1A6
100
AcDbEntity
  8
LED_PAD
  6
ByLayer
 62
  256
370
   -1
100
AcDbPoint
 10
-210
 20
30.00000000000001
  0
LWPOLYLINE
  5
1A7
100
AcDbEntity
  8
LED_PAD
  6
ByLayer
 62
  256
370
   -1
100
AcDbPolyline
 90
    4
 70
    1
 43
0
 10
-212.5
 20
27.50000000000001
 10
-212.5
 20
32.50000000000001
 10
-207.5
 20
32.50000000000001
 10
-207.5
 20
27.50000000000001
  0
POINT
  5
1A8
100
AcDbEntity
  8
LED_PAD
  6
ByLayer
 62
  256
370
   -1
100
AcDbPoint
 10
-210
 20
40.00000000000001
  0
LWPOLYLINE
  5
1A9
100
AcDbEntity
  8
LED_PAD
  6
ByLayer
 62
  256
370
   -1
100
AcDbPolyline
 90
    4
 70
    1
 43
0
 10
-212.5
 20
37.50000000000001
 10
-212.5
 20
42.50000000000001
 10
-207.5
 20
42.50000000000001
 10
-207.5
 20
37.50000000000001
  0
POINT
  5
1AA
100
AcDbEntity
  8
LED_PAD
  6
ByLayer
 62
  256
370
   -1
100
AcDbPoint
 10
-210
 20
50.00000000000001
  0
LWPOLYLINE
  5
1AB
100
AcDbEntity
  8
LED_PAD
  6
ByLayer
 62
  256
370
   -1
100
AcDbPolyline
 90
    4
 70
    1
 43
0
 10
-212.5
 20
47.50000000000001
 10
-212.5
 20
52.50000000000001
 10
-207.5
 20
52.50000000000001
 10
-207.5
 20
47.50000000000001
  0
POINT
  5
1AC
100
AcDbEntity
  8
LED_PAD
  6
ByLayer
 62
  256
370
   -1
100
AcDbPoint
 10
-210
 20
60.00000000000001
  0
LWPOLYLINE
  5
1AD
100
AcDbEntity
  8
LED_PAD
  6
ByLayer
 62
  256
370
   -1
100
AcDbPolyline
 90
    4
 70
    1
 43
0
 10
-212.5
 20
57.50000000000001
 10
-212.5
 20
62.50000000000001
 10
-207.5
 20
62.50000000000001
 10
-207.5
 20
57.50000000000001
  0
POINT
  5
1AE
100
AcDbEntity
  8
LED_PAD
  6
ByLayer
 62
  256
370
   -1
100
AcDbPoint
 10
-210
 20
70.00000000000001
  0
LWPOLYLINE
  5
1AF
100
AcDbEntity
  8
LED_PAD
  6
ByLayer
 62
  256
370
   -1
100
AcDbPolyline
 90
    4
 70
    1
 43
0
 10
-212.5
 20
67.50000000000001
 10
-212.5
 20
72.50000000000001
 10
-207.5
 20
72.50000000000001
 10
-207.5
 20
67.50000000000001
  0
POINT
  5
1B0
100
AcDbEntity
  8
LED_PAD
  6
ByLayer
 62
  256
370
   -1
100
AcDbPoint
 10
-220
 20
1.316580345884897e-14
  0
LWPOLYLINE
  5
1B1
100
AcDbEntity
  8
LED_PAD
  6
ByLayer
 62
  256
370
   -1
100
AcDbPolyline
 90
    4
 70
    1
 43
0
 10
-222.5
 20
-2.499999999999986
 10
-222.5
 20
2.500000000000014
 10
-217.5
 20
2.500000000000013
 10
-217.5
 20
-2.499999999999987
  0
POINT
  5
1B2
100
AcDbEntity
  8
LED_PAD
  6
ByLayer
 62
  256
370
   -1
100
AcDbPoint
 10
-220
 20
10.00000000000001
  0
LWPOLYLINE
  5
1B3
100
AcDbEntity
  8
LED_PAD
  6
ByLayer
 62
  256
370
   -1
100
AcDbPolyline
 90
    4
 70
    1
 43
0
 10
-222.5
 20
7.500000000000013
 10
-222.5
 20
12.50000000000001
 10
-217.5
 20
12.50000000000001
 10
-217.5
 20
7.500000000000013
  0
POINT
  5
1B4
100
AcDbEntity
  8
LED_PAD
  6
ByLayer
 62
  256
370
   -1
100
AcDbPoint
 10
-220
 20
20.00000000000001
  0
LWPOLYLINE
  5
1B5
100
AcDbEntity
  8
LED_PAD
  6
ByLayer
 62
  256
370
   -1
100
AcDbPolyline
 90
    4
 70
    1
 43
0
 10
-222.5
 20
17.50000000000001
 10
-222.5
 20
22.50000000000001
 10
-217.5
 20
22.50000000000001
 10
-217.5
 20
17.50000000000001
  0
POINT
  5
1B6
100
AcDbEntity
  8
LED_PAD
  6
ByLayer
 62
  256
370
   -1
100
AcDbPoint
 10
-220
 20
30.00000000000001
  0
LWPOLYLINE
  5
1B7
100
AcDbEntity
  8
LED_PAD
  6
ByLayer
 62
  256
370
   -1
100
AcDbPolyline
 90
    4
 70
    1
 43
0
 10
-222.5
 20
27.50000000000001
 10
-222.5
 20
32.50000000000001
 10
-217.5
 20
32.50000000000001
 10
-217.5
 20
27.50000000000001
  0
POINT
  5
1B8
100
AcDbEntity
  8
LED_PAD
  6
ByLayer
 62
  256
370
   -1
100
AcDbPoint
 10
-220
 20
40.00000000000001
  0
LWPOLYLINE
  5
1B9
100
AcDbEntity
  8
LED_PAD
  6
ByLayer
 62
  256
370
   -1
100
AcDbPolyline
 90
    4
 70
    1
 43
0
 10
-222.5
 20
37.50000000000001
 10
-222.5
 20
42.50000000000001
 10
-217.5
 20
42.50000000000001
 10
-217.5
 20
37.50000000000001
  0
POINT
  5
1BA
100
AcDbEntity
  8
LED_PAD
  6
ByLayer
 62
  256
370
   -1
100
AcDbPoint
 10
-220
 20
50.00000000000001
  0
LWPOLYLINE
  5
1BB
100
AcDbEntity
  8
LED_PAD
  6
ByLayer
 62
  256
370
   -1
100
AcDbPolyline
 90
    4
 70
    1
 43
0
 10
-222.5
 20
47.50000000000001
 10
-222.5
 20
52.50000000000001
 10
-217.5
 20
52.50000000000001
 10
-217.5
 20
47.50000000000001
  0
POINT
  5
1BC
100
AcDbEntity
  8
LED_PAD
  6
ByLayer
 62
  256
370
   -1
100
AcDbPoint
 10
-220
 20
60.00000000000001
  0
LWPOLYLINE
  5
1BD
100
AcDbEntity
  8
LED_PAD
  6
ByLayer
 62
  256
370
   -1
100
AcDbPolyline
 90
    4
 70
    1
 43
0
 10
-222.5
 20
57.50000000000001
 10
-222.5
 20
62.50000000000001
 10
-217.5
 20
62.50000000000001
 10
-217.5
 20
57.50000000000001
  0
POINT
  5
1BE
100
AcDbEntity
  8
LED_PAD
  6
ByLayer
 62
  256
370
   -1
100
AcDbPoint
 10
-220
 20
70.00000000000001
  0
LWPOLYLINE
  5
1BF
100
AcDbEntity
  8
LED_PAD
  6
ByLayer
 62
  256
370
   -1
100
AcDbPolyline
 90
    4
 70
    1
 43
0
 10
-222.5
 20
67.50000000000001
 10
-222.5
 20
72.50000000000001
 10
-217.5
 20
72.50000000000001
 10
-217.5
 20
67.50000000000001
  0
POINT
  5
1C0
100
AcDbEntity
  8
LED_PAD
  6
ByLayer
 62
  256
370
   -1
100
AcDbPoint
 10
-230
 20
1.377812685842264e-14
  0
LWPOLYLINE
  5
1C1
100
AcDbEntity
  8
LED_PAD
  6
ByLayer
 62
  256
370
   -1
100
AcDbPolyline
 90
    4
 70
    1
 43
0
 10
-232.5
 20
-2.499999999999986
 10
-232.5
 20
2.500000000000014
 10
-227.5
 20
2.500000000000014
 10
-227.5
 20
-2.499999999999986
  0
POINT
  5
1C2
100
AcDbEntity
  8
LED_PAD
  6
ByLayer
 62
  256
370
   -1
100
AcDbPoint
 10
-230
 20
10.00000000000001
  0
LWPOLYLINE
  5
1C3
100
AcDbEntity
  8
LED_PAD
  6
ByLayer
 62
  256
370
   -1
100
AcDbPolyline
 90
    4
 70
    1
 43
0
 10
-232.5
 20
7.500000000000014
 10
-232.5
 20
12.50000000000001
 10
-227.5
 20
12.50000000000001
 10
-227.5
 20
7.500000000000014
  0
POINT
  5
1C4
100
AcDbEntity
  8
LED_PAD
  6
ByLayer
 62
  256
370
   -1
100
AcDbPoint
 10
-230
 20
20.00000000000001
  0
LWPOLYLINE
  5
1C5
100
AcDbEntity
  8
LED_PAD
  6
ByLayer
 62
  256
370
   -1
100
AcDbPolyline
 90
    4
 70
    1
 43
0
 10
-232.5
 20
17.50000000000001
 10
-232.5
 20
22.50000000000001
 10
-227.5
 20
22.50000000000001
 10
-227.5
 20
17.50000000000001
  0
POINT
  5
1C6
100
AcDbEntity
  8
LED_PAD
  6
ByLayer
 62
  256
370
   -1
100
AcDbPoint
 10
-230
 20
30.00000000000001
  0
LWPOLYLINE
  5
1C7
100
AcDbEntity
  8
LED_PAD
  6
ByLayer
 62
  256
370
   -1
100
AcDbPolyline
 90
    4
 70
    1
 43
0
 10
-232.5
 20
27.50000000000001
 10
-232.5
 20
32.50000000000001
 10
-227.5
 20
32.50000000000001
 10
-227.5
 20
27.50000000000001
  0
POINT
  5
1C8
100
AcDbEntity
  8
LED_PAD
  6
ByLayer
 62
  256
370
   -1
100
AcDbPoint
 10
-230
 20
40.00000000000001
  0
LWPOLYLINE
  5
1C9
100
AcDbEntity
  8
LED_PAD
  6
ByLayer
 62
  256
370
   -1
100
AcDbPolyline
 90
    4
 70
    1
 43
0
 10
-232.5
 20
37.50000000000001
 10
-232.5
 20
42.50000000000001
 10
-227.5
 20
42.50000000000001
 10
-227.5
 20
37.50000000000001
  0
POINT
  5
1CA
100
AcDbEntity
  8
LED_PAD
  6
ByLayer
 62
  256
370
   -1
100
AcDbPoint
 10
-230
 20
50.00000000000001
  0
LWPOLYLINE
  5
1CB
100
AcDbEntity
  8
LED_PAD
  6
ByLayer
 62
  256
370
   -1
100
AcDbPolyline
 90
    4
 70
    1
 43
0
 10
-232.5
 20
47.50000000000001
 10
-232.5
 20
52.50000000000001
 10
-227.5
 20
52.50000000000001
 10
-227.5
 20
47.50000000000001
  0
POINT
  5
1CC
100
AcDbEntity
  8
LED_PAD
  6
ByLayer
 62
  256
370
   -1
100
AcDbPoint
 10
-230
 20
60.00000000000001
  0
LWPOLYLINE
  5
1CD
100
AcDbEntity
  8
LED_PAD
  6
ByLayer
 62
  256
370
   -1
100
AcDbPolyline
 90
    4
 70
    1
 43
0
 10
-232.5
 20
57.50000000000001
 10
-232.5
 20
62.50000000000001
 10
-227.5
 20
62.50000000000001
 10
-227.5
 20
57.50000000000001
  0
POINT
  5
1CE
100
AcDbEntity
  8
LED_PAD
  6
ByLayer
 62
  256
370
   -1
100
AcDbPoint
 10
-230
 20
70.00000000000001
  0
LWPOLYLINE
  5
1CF
100
AcDbEntity
  8
LED_PAD
  6
ByLayer
 62
  256
370
   -1
100
AcDbPolyline
 90
    4
 70
    1
 43
0
 10
-232.5
 20
67.50000000000001
 10
-232.5
 20
72.50000000000001
 10
-227.5
 20
72.50000000000001
 10
-227.5
 20
67.50000000000001
  0
POINT
  5
1D0
100
AcDbEntity
  8
LED_PAD
  6
ByLayer
 62
  256
370
   -1
100
AcDbPoint
 10
-240
 20
1.439045025799632e-14
  0
LWPOLYLINE
  5
1D1
100
AcDbEntity
  8
LED_PAD
  6
ByLayer
 62
  256
370
   -1
100
AcDbPolyline
 90
    4
 70
    1
 43
0
 10
-242.5
 20
-2.499999999999985
 10
-242.5
 20
2.500000000000015
 10
-237.5
 20
2.500000000000015
 10
-237.5
 20
-2.499999999999985
  0
POINT
  5
1D2
100
AcDbEntity
  8
LED_PAD
  6
ByLayer
 62
  256
370
   -1
100
AcDbPoint
 10
-240
 20
10.00000000000001
  0
LWPOLYLINE
  5
1D3
100
AcDbEntity
  8
LED_PAD
  6
ByLayer
 62
  256
370
   -1
100
AcDbPolyline
 90
    4
 70
    1
 43
0
 10
-242.5
 20
7.500000000000015
 10
-242.5
 20
12.50000000000001
 10
-237.5
 20
12.50000000000001
 10
-237.5
 20
7.500000000000014
  0
POINT
  5
1D4
100
AcDbEntity
  8
LED_PAD
  6
ByLayer
 62
  256
370
   -1
100
AcDbPoint
 10
-240
 20
20.00000000000001
  0
LWPOLYLINE
  5
1D5
100
AcDbEntity
  8
LED_PAD
  6
ByLayer
 62
  256
370
   -1
100
AcDbPolyline
 90
    4
 70
    1
 43
0
 10
-242.5
 20
17.50000000000001
 10
-242.5
 20
22.50000000000001
 10
-237.5
 20
22.50000000000001
 10
-237.5
 20
17.50000000000001
  0
POINT
  5
1D6
100
AcDbEntity
  8
LED_PAD
  6
ByLayer
 62
  256
370
   -1
100
AcDbPoint
 10
-240
 20
30.00000000000001
  0
LWPOLYLINE
  5
1D7
100
AcDbEntity
  8
LED_PAD
  6
ByLayer
 62
  256
370
   -1
100
AcDbPolyline
 90
    4
 70
    1
 43
0
 10
-242.5
 20
27.50000000000001
 10
-242.5
 20
32.50000000000001
 10
-237.5
 20
32.50000000000001
 10
-237.5
 20
27.50000000000001
  0
POINT
  5
1D8
100
AcDbEntity
  8
LED_PAD
  6
ByLayer
 62
  256
370
   -1
100
AcDbPoint
 10
-240
 20
40.00000000000001
  0
LWPOLYLINE
  5
1D9
100
AcDbEntity
  8
LED_PAD
  6
ByLayer
 62
  256
370
   -1
100
AcDbPolyline
 90
    4
 70
    1
 43
0
 10
-242.5
 20
37.50000000000001
 10
-242.5
 20
42.50000000000001
 10
-237.5
 20
42.50000000000001
 10
-237.5
 20
37.50000000000001
  0
POINT
  5
1DA
100
AcDbEntity
  8
LED_PAD
  6
ByLayer
 62
  256
370
   -1
100
AcDbPoint
 10
-240
 20
50.00000000000001
  0
LWPOLYLINE
  5
1DB
100
AcDbEntity
  8
LED_PAD
  6
ByLayer
 62
  256
370
   -1
100
AcDbPolyline
 90
    4
 70
    1
 43
0
 10
-242.5
 20
47.50000000000001
 10
-242.5
 20
52.50000000000001
 10
-237.5
 20
52.50000000000001
 10
-237.5
 20
47.50000000000001
  0
POINT
  5
1DC
100
AcDbEntity
  8
LED_PAD
  6
ByLayer
 62
  256
370
   -1
100
AcDbPoint
 10
-240
 20
60.00000000000001
  0
LWPOLYLINE
  5
1DD
100
AcDbEntity
  8
LED_PAD
  6
ByLayer
 62
  256
370
   -1
100
AcDbPolyline
 90
    4
 70
    1
 43
0
 10
-242.5
 20
57.50000000000001
 10
-242.5
 20
62.50000000000001
 10
-237.5
 20
62.50000000000001
 10
-237.5
 20
57.50000000000001
  0
POINT
  5
1DE
100
AcDbEntity
  8
LED_PAD
  6
ByLayer
 62
  256
370
   -1
100
AcDbPoint
 10
-240
 20
70.00000000000001
  0
LWPOLYLINE
  5
1DF
100
AcDbEntity
  8
LED_PAD
  6
ByLayer
 62
  256
370
   -1
100
AcDbPolyline
 90
    4
 70
    1
 43
0
 10
-242.5
 20
67.50000000000001
 10
-242.5
 20
72.50000000000001
 10
-237.5
 20
72.50000000000001
 10
-237.5
 20
67.50000000000001
  0
POINT
  5
1E0
100
AcDbEntity
  8
LED_PAD
  6
ByLayer
 62
  256
370
   -1
100
AcDbPoint
 10
-250
 20
1.500277365757e-14
  0
LWPOLYLINE
  5
1E1
100
AcDbEntity
  8
LED_PAD
  6
ByLayer
 62
  256
370
   -1
100
AcDbPolyline
 90
    4
 70
    1
 43
0
 10
-252.5
 20
-2.499999999999984
 10
-252.5
 20
2.500000000000016
 10
-247.5
 20
2.500000000000015
 10
-247.5
 20
-2.499999999999985
  0
POINT
  5
1E2
100
AcDbEntity
  8
LED_PAD
  6
ByLayer
 62
  256
370
   -1
100
AcDbPoint
 10
-250
 20
10.00000000000002
  0
LWPOLYLINE
  5
1E3
100
AcDbEntity
  8
LED_PAD
  6
ByLayer
 62
  256
370
   -1
100
AcDbPolyline
 90
    4
 70
    1
 43
0
 10
-252.5
 20
7.500000000000015
 10
-252.5
 20
12.50000000000002
 10
-247.5
 20
12.50000000000002
 10
-247.5
 20
7.500000000000015
  0
POINT
  5
1E4
100
AcDbEntity
  8
LED_PAD
  6
ByLayer
 62
  256
370
   -1
100
AcDbPoint
 10
-250
 20
20.00000000000001
  0
LWPOLYLINE
  5
1E5
100
AcDbEntity
  8
LED_PAD
  6
ByLayer
 62
  256
370
   -1
100
AcDbPolyline
 90
    4
 70
    1
 43
0
 10
-252.5
 20
17.50000000000001
 10
-252.5
 20
22.50000000000001
 10
-247.5
 20
22.50000000000001
 10
-247.5
 20
17.50000000000001
  0
POINT
  5
1E6
100
AcDbEntity
  8
LED_PAD
  6
ByLayer
 62
  256
370
   -1
100
AcDbPoint
 10
-250
 20
30.00000000000001
  0
LWPOLYLINE
  5
1E7
100
AcDbEntity
  8
LED_PAD
  6
ByLayer
 62
  256
370
   -1
100
AcDbPolyline
 90
    4
 70
    1
 43
0
 10
-252.5
 20
27.50000000000001
 10
-252.5
 20
32.50000000000001
 10
-247.5
 20
32.50000000000001
 10
-247.5
 20
27.50000000000001
  0
POINT
  5
1E8
100
AcDbEntity
  8
LED_PAD
  6
ByLayer
 62
  256
370
   -1
100
AcDbPoint
 10
-250
 20
40.00000000000001
  0
LWPOLYLINE
  5
1E9
100
AcDbEntity
  8
LED_PAD
  6
ByLayer
 62
  256
370
   -1
100
AcDbPolyline
 90
    4
 70
    1
 43
0
 10
-252.5
 20
37.50000000000001
 10
-252.5
 20
42.50000000000001
 10
-247.5
 20
42.50000000000001
 10
-247.5
 20
37.50000000000001
  0
POINT
  5
1EA
100
AcDbEntity
  8
LED_PAD
  6
ByLayer
 62
  256
370
   -1
100
AcDbPoint
 10
-250
 20
50.00000000000001
  0
LWPOLYLINE
  5
1EB
100
AcDbEntity
  8
LED_PAD
  6
ByLayer
 62
  256
370
   -1
100
AcDbPolyline
 90
    4
 70
    1
 43
0
 10
-252.5
 20
47.50000000000001
 10
-252.5
 20
52.50000000000001
 10
-247.5
 20
52.50000000000001
 10
-247.5
 20
47.50000000000001
  0
POINT
  5
1EC
100
AcDbEntity
  8
LED_PAD
  6
ByLayer
 62
  256
370
   -1
100
AcDbPoint
 10
-250
 20
60.00000000000001
  0
LWPOLYLINE
  5
1ED
100
AcDbEntity
  8
LED_PAD
  6
ByLayer
 62
  256
370
   -1
100
AcDbPolyline
 90
    4
 70
    1
 43
0
 10
-252.5
 20
57.50000000000001
 10
-252.5
 20
62.50000000000001
 10
-247.5
 20
62.50000000000001
 10
-247.5
 20
57.50000000000001
  0
POINT
  5
1EE
100
AcDbEntity
  8
LED_PAD
  6
ByLayer
 62
  256
370
   -1
100
AcDbPoint
 10
-250
 20
70.00000000000001
  0
LWPOLYLINE
  5
1EF
100
AcDbEntity
  8
LED_PAD
  6
ByLayer
 62
  256
370
   -1
100
AcDbPolyline
 90
    4
 70
    1
 43
0
 10
-252.5
 20
67.50000000000001
 10
-252.5
 20
72.50000000000001
 10
-247.5
 20
72.50000000000001
 10
-247.5
 20
67.50000000000001
  0
POINT
  5
1F0
100
AcDbEntity
  8
LED_PAD
  6
ByLayer
 62
  256
370
   -1
100
AcDbPoint
 10
-260
 20
1.561509705714367e-14
  0
LWPOLYLINE
  5
1F1
100
AcDbEntity
  8
LED_PAD
  6
ByLayer
 62
  256
370
   -1
100
AcDbPolyline
 90
    4
 70
    1
 43
0
 10
-262.5
 20
-2.499999999999984
 10
-262.5
 20
2.500000000000016
 10
-257.5
 20
2.500000000000016
 10
-257.5
 20
-2.499999999999984
  0
POINT
  5
1F2
100
AcDbEntity
  8
LED_PAD
  6
ByLayer
 62
  256
370
   -1
100
AcDbPoint
 10
-260
 20
10.00000000000002
  0
LWPOLYLINE
  5
1F3
100
AcDbEntity
  8
LED_PAD
  6
ByLayer
 62
  256
370
   -1
100
AcDbPolyline
 90
    4
 70
    1
 43
0
 10
-262.5
 20
7.500000000000016
 10
-262.5
 20
12.50000000000002
 10
-257.5
 20
12.50000000000002
 10
-257.5
 20
7.500000000000016
  0
POINT
  5
1F4
100
AcDbEntity
  8
LED_PAD
  6
ByLayer
 62
  256
370
   -1
100
AcDbPoint
 10
-260
 20
20.00000000000001
  0
LWPOLYLINE
  5
1F5
100
AcDbEntity
  8
LED_PAD
  6
ByLayer
 62
  256
370
   -1
100
AcDbPolyline
 90
    4
 70
    1
 43
0
 10
-262.5
 20
17.50000000000002
 10
-262.5
 20
22.50000000000002
 10
-257.5
 20
22.50000000000001
 10
-257.5
 20
17.50000000000001
  0
POINT
  5
1F6
100
AcDbEntity
  8
LED_PAD
  6
ByLayer
 62
  256
370
   -1
100
AcDbPoint
 10
-260
 20
30.00000000000001
  0
LWPOLYLINE
  5
1F7
100
AcDbEntity
  8
LED_PAD
  6
ByLayer
 62
  256
370
   -1
100
AcDbPolyline
 90
    4
 70
    1
 43
0
 10
-262.5
 20
27.50000000000002
 10
-262.5
 20
32.50000000000001
 10
-257.5
 20
32.50000000000001
 10
-257.5
 20
27.50000000000001
  0
POINT
  5
1F8
100
AcDbEntity
  8
LED_PAD
  6
ByLayer
 62
  256
370
   -1
100
AcDbPoint
 10
-260
 20
40.00000000000001
  0
LWPOLYLINE
  5
1F9
100
AcDbEntity
  8
LED_PAD
  6
ByLayer
 62
  256
370
   -1
100
AcDbPolyline
 90
    4
 70
    1
 43
0
 10
-262.5
 20
37.50000000000001
 10
-262.5
 20
42.50000000000001
 10
-257.5
 20
42.50000000000001
 10
-257.5
 20
37.50000000000001
  0
POINT
  5
1FA
100
AcDbEntity
  8
LED_PAD
  6
ByLayer
 62
  256
370
   -1
100
AcDbPoint
 10
-260
 20
50.00000000000001
  0
LWPOLYLINE
  5
1FB
100
AcDbEntity
  8
LED_PAD
  6
ByLayer
 62
  256
370
   -1
100
AcDbPolyline
 90
    4
 70
    1
 43
0
 10
-262.5
 20
47.50000000000001
 10
-262.5
 20
52.50000000000001
 10
-257.5
 20
52.50000000000001
 10
-257.5
 20
47.50000000000001
  0
POINT
  5
1FC
100
AcDbEntity
  8
LED_PAD
  6
ByLayer
 62
  256
370
   -1
100
AcDbPoint
 10
-260
 20
60.00000000000001
  0
LWPOLYLINE
  5
1FD
100
AcDbEntity
  8
LED_PAD
  6
ByLayer
 62
  256
370
   -1
100
AcDbPolyline
 90
    4
 70
    1
 43
0
 10
-262.5
 20
57.50000000000001
 10
-262.5
 20
62.50000000000001
 10
-257.5
 20
62.50000000000001
 10
-257.5
 20
57.50000000000001
  0
POINT
  5
1FE
100
AcDbEntity
  8
LED_PAD
  6
ByLayer
 62
  256
370
   -1
100
AcDbPoint
 10
-260
 20
70.00000000000001
  0
LWPOLYLINE
  5
1FF
100
AcDbEntity
  8
LED_PAD
  6
ByLayer
 62
  256
370
   -1
100
AcDbPolyline
 90
    4
 70
    1
 43
0
 10
-262.5
 20
67.50000000000001
 10
-262.5
 20
72.50000000000001
 10
-257.5
 20
72.50000000000001
 10
-257.5
 20
67.50000000000001
  0
POINT
  5
200
100
AcDbEntity
  8
LED_PAD
  6
ByLayer
 62
  256
370
   -1
100
AcDbPoint
 10
-270
 20
1.622742045671735e-14
  0
LWPOLYLINE
  5
201
100
AcDbEntity
  8
LED_PAD
  6
ByLayer
 62
  256
370
   -1
100
AcDbPolyline
 90
    4
 70
    1
 43
0
 10
-272.5
 20
-2.499999999999983
 10
-272.5
 20
2.500000000000017
 10
-267.5
 20
2.500000000000016
 10
-267.5
 20
-2.499999999999984
  0
POINT
  5
202
100
AcDbEntity
  8
LED_PAD
  6
ByLayer
 62
  256
370
   -1
100
AcDbPoint
 10
-270
 20
10.00000000000002
  0
LWPOLYLINE
  5
203
100
AcDbEntity
  8
LED_PAD
  6
ByLayer
 62
  256
370
   -1
100
AcDbPolyline
 90
    4
 70
    1
 43
0
 10
-272.5
 20
7.500000000000017
 10
-272.5
 20
12.50000000000002
 10
-267.5
 20
12.50000000000002
 10
-267.5
 20
7.500000000000016
  0
POINT
  5
204
100
AcDbEntity
  8
LED_PAD
  6
ByLayer
 62
  256
370
   -1
100
AcDbPoint
 10
-270
 20
20.00000000000002
  0
LWPOLYLINE
  5
205
100
AcDbEntity
  8
LED_PAD
  6
ByLayer
 62
  256
370
   -1
100
AcDbPolyline
 90
    4
 70
    1
 43
0
 10
-272.5
 20
17.50000000000002
 10
-272.5
 20
22.50000000000002
 10
-267.5
 20
22.50000000000002
 10
-267.5
 20
17.50000000000002
  0
POINT
  5
206
100
AcDbEntity
  8
LED_PAD
  6
ByLayer
 62
  256
370
   -1
100
AcDbPoint
 10
-270
 20
30.00000000000002
  0
LWPOLYLINE
  5
207
100
AcDbEntity
  8
LED_PAD
  6
ByLayer
 62
  256
370
   -1
100
AcDbPolyline
 90
    4
 70
    1
 43
0
 10
-272.5
 20
27.50000000000002
 10
-272.5
 20
32.50000000000001
 10
-267.5
 20
32.50000000000001
 10
-267.5
 20
27.50000000000002
  0
POINT
  5
208
100
AcDbEntity
  8
LED_PAD
  6
ByLayer
 62
  256
370
   -1
100
AcDbPoint
 10
-270
 20
40.00000000000001
  0
LWPOLYLINE
  5
209
100
AcDbEntity
  8
LED_PAD
  6
ByLayer
 62
  256
370
   -1
100
AcDbPolyline
 90
    4
 70
    1
 43
0
 10
-272.5
 20
37.50000000000001
 10
-272.5
 20
42.50000000000001
 10
-267.5
 20
42.50000000000001
 10
-267.5
 20
37.50000000000001
  0
POINT
  5
20A
100
AcDbEntity
  8
LED_PAD
  6
ByLayer
 62
  256
370
   -1
100
AcDbPoint
 10
-270
 20
50.00000000000001
  0
LWPOLYLINE
  5
20B
100
AcDbEntity
  8
LED_PAD
  6
ByLayer
 62
  256
370
   -1
100
AcDbPolyline
 90
    4
 70
    1
 43
0
 10
-272.5
 20
47.50000000000001
 10
-272.5
 20
52.50000000000001
 10
-267.5
 20
52.50000000000001
 10
-267.5
 20
47.50000000000001
  0
POINT
  5
20C
100
AcDbEntity
  8
LED_PAD
  6
ByLayer
 62
  256
370
   -1
100
AcDbPoint
 10
-270
 20
60.00000000000001
  0
LWPOLYLINE
  5
20D
100
AcDbEntity
  8
LED_PAD
  6
ByLayer
 62
  256
370
   -1
100
AcDbPolyline
 90
    4
 70
    1
 43
0
 10
-272.5
 20
57.50000000000001
 10
-272.5
 20
62.50000000000001
 10
-267.5
 20
62.50000000000001
 10
-267.5
 20
57.50000000000001
  0
POINT
  5
20E
100
AcDbEntity
  8
LED_PAD
  6
ByLayer
 62
  256
370
   -1
100
AcDbPoint
 10
-270
 20
70.00000000000001
  0
LWPOLYLINE
  5
20F
100
AcDbEntity
  8
LED_PAD
  6
ByLayer
 62
  256
370
   -1
100
AcDbPolyline
 90
    4
 70
    1
 43
0
 10
-272.5
 20
67.50000000000001
 10
-272.5
 20
72.50000000000001
 10
-267.5
 20
72.50000000000001
 10
-267.5
 20
67.50000000000001
  0
POINT
  5
210
100
AcDbEntity
  8
LED_PAD
  6
ByLayer
 62
  256
370
   -1
100
AcDbPoint
 10
-280
 20
1.683974385629103e-14
  0
LWPOLYLINE
  5
211
100
AcDbEntity
  8
LED_PAD
  6
ByLayer
 62
  256
370
   -1
100
AcDbPolyline
 90
    4
 70
    1
 43
0
 10
-282.5
 20
-2.499999999999983
 10
-282.5
 20
2.500000000000017
 10
-277.5
 20
2.500000000000017
 10
-277.5
 20
-2.499999999999983
  0
POINT
  5
212
100
AcDbEntity
  8
LED_PAD
  6
ByLayer
 62
  256
370
   -1
100
AcDbPoint
 10
-280
 20
10.00000000000002
  0
LWPOLYLINE
  5
213
100
AcDbEntity
  8
LED_PAD
  6
ByLayer
 62
  256
370
   -1
100
AcDbPolyline
 90
    4
 70
    1
 43
0
 10
-282.5
 20
7.500000000000017
 10
-282.5
 20
12.50000000000002
 10
-277.5
 20
12.50000000000002
 10
-277.5
 20
7.500000000000017
  0
POINT
  5
214
100
AcDbEntity
  8
LED_PAD
  6
ByLayer
 62
  256
370
   -1
100
AcDbPoint
 10
-280
 20
20.00000000000002
  0
LWPOLYLINE
  5
215
100
AcDbEntity
  8
LED_PAD
  6
ByLayer
 62
  256
370
   -1
100
AcDbPolyline
 90
    4
 70
    1
 43
0
 10
-282.5
 20
17.50000000000002
 10
-282.5
 20
22.50000000000002
 10
-277.5
 20
22.50000000000002
 10
-277.5
 20
17.50000000000002
  0
POINT
  5
216
100
AcDbEntity
  8
LED_PAD
  6
ByLayer
 62
  256
370
   -1
100
AcDbPoint
 10
-280
 20
30.00000000000002
  0
LWPOLYLINE
  5
217
100
AcDbEntity
  8
LED_PAD
  6
ByLayer
 62
  256
370
   -1
100
AcDbPolyline
 90
    4
 70
    1
 43
0
 10
-282.5
 20
27.50000000000002
 10
-282.5
 20
32.50000000000001
 10
-277.5
 20
32.50000000000001
 10
-277.5
 20
27.50000000000002
  0
POINT
  5
218
100
AcDbEntity
  8
LED_PAD
  6
ByLayer
 62
  256
370
   -1
100
AcDbPoint
 10
-280
 20
40.00000000000001
  0
LWPOLYLINE
  5
219
100
AcDbEntity
  8
LED_PAD
  6
ByLayer
 62
  256
370
   -1
100
AcDbPolyline
 90
    4
 70
    1
 43
0
 10
-282.5
 20
37.50000000000001
 10
-282.5
 20
42.50000000000001
 10
-277.5
 20
42.50000000000001
 10
-277.5
 20
37.50000000000001
  0
POINT
  5
21A
100
AcDbEntity
  8
LED_PAD
  6
ByLayer
 62
  256
370
   -1
100
AcDbPoint
 10
-280
 20
50.00000000000001
  0
LWPOLYLINE
  5
21B
100
AcDbEntity
  8
LED_PAD
  6
ByLayer
 62
  256
370
   -1
100
AcDbPolyline
 90
    4
 70
    1
 43
0
 10
-282.5
 20
47.50000000000001
 10
-282.5
 20
52.50000000000001
 10
-277.5
 20
52.50000000000001
 10
-277.5
 20
47.50000000000001
  0
POINT
  5
21C
100
AcDbEntity
  8
LED_PAD
  6
ByLayer
 62
  256
370
   -1
100
AcDbPoint
 10
-280
 20
60.00000000000001
  0
LWPOLYLINE
  5
21D
100
AcDbEntity
  8
LED_PAD
  6
ByLayer
 62
  256
370
   -1
100
AcDbPolyline
 90
    4
 70
    1
 43
0
 10
-282.5
 20
57.50000000000001
 10
-282.5
 20
62.50000000000001
 10
-277.5
 20
62.50000000000001
 10
-277.5
 20
57.50000000000001
  0
POINT
  5
21E
100
AcDbEntity
  8
LED_PAD
  6
ByLayer
 62
  256
370
   -1
100
AcDbPoint
 10
-280
 20
70.00000000000001
  0
LWPOLYLINE
  5
21F
100
AcDbEntity
  8
LED_PAD
  6
ByLayer
 62
  256
370
   -1
100
AcDbPolyline
 90
    4
 70
    1
 43
0
 10
-282.5
 20
67.50000000000001
 10
-282.5
 20
72.50000000000001
 10
-277.5
 20
72.50000000000001
 10
-277.5
 20
67.50000000000001
  0
POINT
  5
220
100
AcDbEntity
  8
LED_PAD
  6
ByLayer
 62
  256
370
   -1
100
AcDbPoint
 10
-290
 20
1.74520672558647e-14
  0
LWPOLYLINE
  5
221
100
AcDbEntity
  8
LED_PAD
  6
ByLayer
 62
  256
370
   -1
100
AcDbPolyline
 90
    4
 70
    1
 43
0
 10
-292.5
 20
-2.499999999999982
 10
-292.5
 20
2.500000000000018
 10
-287.5
 20
2.500000000000018
 10
-287.5
 20
-2.499999999999982
  0
POINT
  5
222
100
AcDbEntity
  8
LED_PAD
  6
ByLayer
 62
  256
370
   -1
100
AcDbPoint
 10
-290
 20
10.00000000000002
  0
LWPOLYLINE
  5
223
100
AcDbEntity
  8
LED_PAD
  6
ByLayer
 62
  256
370
   -1
100
AcDbPolyline
 90
    4
 70
    1
 43
0
 10
-292.5
 20
7.500000000000018
 10
-292.5
 20
12.50000000000002
 10
-287.5
 20
12.50000000000002
 10
-287.5
 20
7.500000000000018
  0
POINT
  5
224
100
AcDbEntity
  8
LED_PAD
  6
ByLayer
 62
  256
370
   -1
100
AcDbPoint
 10
-290
 20
20.00000000000002
  0
LWPOLYLINE
  5
225
100
AcDbEntity
  8
LED_PAD
  6
ByLayer
 62
  256
370
   -1
100
AcDbPolyline
 90
    4
 70
    1
 43
0
 10
-292.5
 20
17.50000000000002
 10
-292.5
 20
22.50000000000002
 10
-287.5
 20
22.50000000000002
 10
-287.5
 20
17.50000000000002
  0
POINT
  5
226
100
AcDbEntity
  8
LED_PAD
  6
ByLayer
 62
  256
370
   -1
100
AcDbPoint
 10
-290
 20
30.00000000000002
  0
LWPOLYLINE
  5
227
100
AcDbEntity
  8
LED_PAD
  6
ByLayer
 62
  256
370
   -1
100
AcDbPolyline
 90
    4
 70
    1
 43
0
 10
-292.5
 20
27.50000000000002
 10
-292.5
 20
32.50000000000002
 10
-287.5
 20
32.50000000000001
 10
-287.5
 20
27.50000000000002
  0
POINT
  5
228
100
AcDbEntity
  8
LED_PAD
  6
ByLayer
 62
  256
370
   -1
100
AcDbPoint
 10
-290
 20
40.00000000000001
  0
LWPOLYLINE
  5
229
100
AcDbEntity
  8
LED_PAD
  6
ByLayer
 62
  256
370
   -1
100
AcDbPolyline
 90
    4
 70
    1
 43
0
 10
-292.5
 20
37.50000000000002
 10
-292.5
 20
42.50000000000002
 10
-287.5
 20
42.50000000000001
 10
-287.5
 20
37.50000000000001
  0
POINT
  5
22A
100
AcDbEntity
  8
LED_PAD
  6
ByLayer
 62
  256
370
   -1
100
AcDbPoint
 10
-290
 20
50.00000000000001
  0
LWPOLYLINE
  5
22B
100
AcDbEntity
  8
LED_PAD
  6
ByLayer
 62
  256
370
   -1
100
AcDbPolyline
 90
    4
 70
    1
 43
0
 10
-292.5
 20
47.50000000000002
 10
-292.5
 20
52.50000000000002
 10
-287.5
 20
52.50000000000001
 10
-287.5
 20
47.50000000000001
  0
POINT
  5
22C
100
AcDbEntity
  8
LED_PAD
  6
ByLayer
 62
  256
370
   -1
100
AcDbPoint
 10
-290
 20
60.00000000000001
  0
LWPOLYLINE
  5
22D
100
AcDbEntity
  8
LED_PAD
  6
ByLayer
 62
  256
370
   -1
100
AcDbPolyline
 90
    4
 70
    1
 43
0
 10
-292.5
 20
57.50000000000002
 10
-292.5
 20
62.50000000000002
 10
-287.5
 20
62.50000000000001
 10
-287.5
 20
57.50000000000001
  0
POINT
  5
22E
100
AcDbEntity
  8
LED_PAD
  6
ByLayer
 62
  256
370
   -1
100
AcDbPoint
 10
-290
 20
70.00000000000001
  0
LWPOLYLINE
  5
22F
100
AcDbEntity
  8
LED_PAD
  6
ByLayer
 62
  256
370
   -1
100
AcDbPolyline
 90
    4
 70
    1
 43
0
 10
-292.5
 20
67.50000000000001
 10
-292.5
 20
72.50000000000001
 10
-287.5
 20
72.50000000000001
 10
-287.5
 20
67.50000000000001
  0
POINT
  5
230
100
AcDbEntity
  8
LED_PAD
  6
ByLayer
 62
  256
370
   -1
100
AcDbPoint
 10
-300
 20
1.806439065543838e-14
  0
LWPOLYLINE
  5
231
100
AcDbEntity
  8
LED_PAD
  6
ByLayer
 62
  256
370
   -1
100
AcDbPolyline
 90
    4
 70
    1
 43
0
 10
-302.5
 20
-2.499999999999981
 10
-302.5
 20
2.500000000000019
 10
-297.5
 20
2.500000000000018
 10
-297.5
 20
-2.499999999999982
  0
POINT
  5
232
100
AcDbEntity
  8
LED_PAD
  6
ByLayer
 62
  256
370
   -1
100
AcDbPoint
 10
-300
 20
10.00000000000002
  0
LWPOLYLINE
  5
233
100
AcDbEntity
  8
LED_PAD
  6
ByLayer
 62
  256
370
   -1
100
AcDbPolyline
 90
    4
 70
    1
 43
0
 10
-302.5
 20
7.500000000000019
 10
-302.5
 20
12.50000000000002
 10
-297.5
 20
12.50000000000002
 10
-297.5
 20
7.500000000000019
  0
POINT
  5
234
100
AcDbEntity
  8
LED_PAD
  6
ByLayer
 62
  256
370
   -1
100
AcDbPoint
 10
-300
 20
20.00000000000002
  0
LWPOLYLINE
  5
235
100
AcDbEntity
  8
LED_PAD
  6
ByLayer
 62
  256
370
   -1
100
AcDbPolyline
 90
    4
 70
    1
 43
0
 10
-302.5
 20
17.50000000000002
 10
-302.5
 20
22.50000000000002
 10
-297.5
 20
22.50000000000002
 10
-297.5
 20
17.50000000000002
  0
POINT
  5
236
100
AcDbEntity
  8
LED_PAD
  6
ByLayer
 62
  256
370
   -1
100
AcDbPoint
 10
-300
 20
30.00000000000002
  0
LWPOLYLINE
  5
237
100
AcDbEntity
  8
LED_PAD
  6
ByLayer
 62
  256
370
   -1
100
AcDbPolyline
 90
    4
 70
    1
 43
0
 10
-302.5
 20
27.50000000000002
 10
-302.5
 20
32.50000000000002
 10
-297.5
 20
32.50000000000002
 10
-297.5
 20
27.50000000000002
  0
POINT
  5
238
100
AcDbEntity
  8
LED_PAD
  6
ByLayer
 62
  256
370
   -1
100
AcDbPoint
 10
-300
 20
40.00000000000002
  0
LWPOLYLINE
  5
239
100
AcDbEntity
  8
LED_PAD
  6
ByLayer
 62
  256
370
   -1
100
AcDbPolyline
 90
    4
 70
    1
 43
0
 10
-302.5
 20
37.50000000000002
 10
-302.5
 20
42.50000000000002
 10
-297.5
 20
42.50000000000002
 10
-297.5
 20
37.50000000000002
  0
POINT
  5
23A
100
AcDbEntity
  8
LED_PAD
  6
ByLayer
 62
  256
370
   -1
100
AcDbPoint
 10
-300
 20
50.00000000000002
  0
LWPOLYLINE
  5
23B
100
AcDbEntity
  8
LED_PAD
  6
ByLayer
 62
  256
370
   -1
100
AcDbPolyline
 90
    4
 70
    1
 43
0
 10
-302.5
 20
47.50000000000002
 10
-302.5
 20
52.50000000000002
 10
-297.5
 20
52.50000000000002
 10
-297.5
 20
47.50000000000002
  0
POINT
  5
23C
100
AcDbEntity
  8
LED_PAD
  6
ByLayer
 62
  256
370
   -1
100
AcDbPoint
 10
-300
 20
60.00000000000002
  0
LWPOLYLINE
  5
23D
100
AcDbEntity
  8
LED_PAD
  6
ByLayer
 62
  256
370
   -1
100
AcDbPolyline
 90
    4
 70
    1
 43
0
 10
-302.5
 20
57.50000000000002
 10
-302.5
 20
62.50000000000002
 10
-297.5
 20
62.50000000000002
 10
-297.5
 20
57.50000000000002
  0
POINT
  5
23E
100
AcDbEntity
  8
LED_PAD
  6
ByLayer
 62
  256
370
   -1
100
AcDbPoint
 10
-300
 20
70.00000000000001
  0
LWPOLYLINE
  5
23F
100
AcDbEntity
  8
LED_PAD
  6
ByLayer
 62
  256
370
   -1
100
AcDbPolyline
 90
    4
 70
    1
 43
0
 10
-302.5
 20
67.50000000000001
 10
-302.5
 20
72.50000000000001
 10
-297.5
 20
72.50000000000001
 10
-297.5
 20
67.50000000000001
  0
POINT
  5
240
100
AcDbEntity
  8
LED_PAD
  6
ByLayer
 62
  256
370
   -1
100
AcDbPoint
 10
-310
 20
1.867671405501206e-14
  0
LWPOLYLINE
  5
241
100
AcDbEntity
  8
LED_PAD
  6
ByLayer
 62
  256
370
   -1
100
AcDbPolyline
 90
    4
 70
    1
 43
0
 10
-312.5
 20
-2.499999999999981
 10
-312.5
 20
2.500000000000019
 10
-307.5
 20
2.500000000000019
 10
-307.5
 20
-2.499999999999981
  0
POINT
  5
242
100
AcDbEntity
  8
LED_PAD
  6
ByLayer
 62
  256
370
   -1
100
AcDbPoint
 10
-310
 20
10.00000000000002
  0
LWPOLYLINE
  5
243
100
AcDbEntity
  8
LED_PAD
  6
ByLayer
 62
  256
370
   -1
100
AcDbPolyline
 90
    4
 70
    1
 43
0
 10
-312.5
 20
7.50000000000002
 10
-312.5
 20
12.50000000000002
 10
-307.5
 20
12.50000000000002
 10
-307.5
 20
7.500000000000019
  0
POINT
  5
244
100
AcDbEntity
  8
LED_PAD
  6
ByLayer
 62
  256
370
   -1
100
AcDbPoint
 10
-310
 20
20.00000000000002
  0
LWPOLYLINE
  5
245
100
AcDbEntity
  8
LED_PAD
  6
ByLayer
 62
  256
370
   -1
100
AcDbPolyline
 90
    4
 70
    1
 43
0
 10
-312.5
 20
17.50000000000002
 10
-312.5
 20
22.50000000000002
 10
-307.5
 20
22.50000000000002
 10
-307.5
 20
17.50000000000002
  0
POINT
  5
246
100
AcDbEntity
  8
LED_PAD
  6
ByLayer
 62
  256
370
   -1
100
AcDbPoint
 10
-310
 20
30.00000000000002
  0
LWPOLYLINE
  5
247
100
AcDbEntity
  8
LED_PAD
  6
ByLayer
 62
  256
370
   -1
100
AcDbPolyline
 90
    4
 70
    1
 43
0
 10
-312.5
 20
27.50000000000002
 10
-312.5
 20
32.50000000000002
 10
-307.5
 20
32.50000000000002
 10
-307.5
 20
27.50000000000002
  0
POINT
  5
248
100
AcDbEntity
  8
LED_PAD
  6
ByLayer
 62
  256
370
   -1
100
AcDbPoint
 10
-310
 20
40.00000000000002
  0
LWPOLYLINE
  5
249
100
AcDbEntity
  8
LED_PAD
  6
ByLayer
 62
  256
370
   -1
100
AcDbPolyline
 90
    4
 70
    1
 43
0
 10
-312.5
 20
37.50000000000002
 10
-312.5
 20
42.50000000000002
 10
-307.5
 20
42.50000000000002
 10
-307.5
 20
37.50000000000002
  0
POINT
  5
24A
100
AcDbEntity
  8
LED_PAD
  6
ByLayer
 62
  256
370
   -1
100
AcDbPoint
 10
-310
 20
50.00000000000002
  0
LWPOLYLINE
  5
24B
100
AcDbEntity
  8
LED_PAD
  6
ByLayer
 62
  256
370
   -1
100
AcDbPolyline
 90
    4
 70
    1
 43
0
 10
-312.5
 20
47.50000000000002
 10
-312.5
 20
52.50000000000002
 10
-307.5
 20
52.50000000000002
 10
-307.5
 20
47.50000000000002
  0
POINT
  5
24C
100
AcDbEntity
  8
LED_PAD
  6
ByLayer
 62
  256
370
   -1
100
AcDbPoint
 10
-310
 20
60.00000000000002
  0
LWPOLYLINE
  5
24D
100
AcDbEntity
  8
LED_PAD
  6
ByLayer
 62
  256
370
   -1
100
AcDbPolyline
 90
    4
 70
    1
 43
0
 10
-312.5
 20
57.50000000000002
 10
-312.5
 20
62.50000000000002
 10
-307.5
 20
62.50000000000002
 10
-307.5
 20
57.50000000000002
  0
POINT
  5
24E
100
AcDbEntity
  8
LED_PAD
  6
ByLayer
 62
  256
370
   -1
100
AcDbPoint
 10
-310
 20
70.00000000000001
  0
LWPOLYLINE
  5
24F
100
AcDbEntity
  8
LED_PAD
  6
ByLayer
 62
  256
370
   -1
100
AcDbPolyline
 90
    4
 70
    1
 43
0
 10
-312.5
 20
67.50000000000001
 10
-312.5
 20
72.50000000000001
 10
-307.5
 20
72.50000000000001
 10
-307.5
 20
67.50000000000001
  0
POINT
  5
250
100
AcDbEntity
  8
LED_PAD
  6
ByLayer
 62
  256
370
   -1
100
AcDbPoint
 10
0
 20
0
  0
LINE
  5
251
100
AcDbEntity
  8
LED_PAD
  6
ByLayer
 62
  256
370
   -1
100
AcDbLine
 10
5
 20
-5
 11
5.000000000000004
 21
75
  0
LINE
  5
252
100
AcDbEntity
  8
LED_PAD
  6
ByLayer
 62
  256
370
   -1
100
AcDbLine
 10
-315
 20
75.00000000000001
 11
5.000000000000004
 21
75
  0
LINE
  5
253
100
AcDbEntity
  8
LED_PAD
  6
ByLayer
 62
  256
370
   -1
100
AcDbLine
 10
-315
 20
-4.99999999999998
 11
5
 21
-5
  0
LINE
  5
254
100
AcDbEntity
  8
LED_PAD
  6
ByLayer
 62
  256
370
   -1
100
AcDbLine
 10
-315
 20
75.00000000000001
 11
-315
 21
-4.99999999999998
  0
LINE
  5
255
100
AcDbEntity
  8
LED_PAD
  6
ByLayer
 62
  256
370
   -1
100
AcDbLine
 10
-315
 20
-4.99999999999998
 11
-315
 21
75.00000000000001
  0
POINT
  5
256
100
AcDbEntity
  8
holes
  6
ByLayer
 62
  256
370
   -1
100
AcDbPoint
 10
-10
 20
0
  0
LWPOLYLINE
  5
257
100
AcDbEntity
  8
holes
  6
ByLayer
 62
  256
370
   -1
100
AcDbPolyline
 90
    4
 70
    1
 43
0
 10
-7.2
 20
-2.8
 10
-12.8
 20
-2.8
 10
-12.8
 20
2.8
 10
-7.2
 20
2.8
  0
POINT
  5
258
100
AcDbEntity
  8
holes
  6
ByLayer
 62
  256
370
   -1
100
AcDbPoint
 10
-20
 20
0
  0
LWPOLYLINE
  5
259
100
AcDbEntity
  8
holes
  6
ByLayer
 62
  256
370
   -1
100
AcDbPolyline
 90
    4
 70
    1
 43
0
 10
-17.2
 20
-2.8
 10
-22.8
 20
-2.8
 10
-22.8
 20
2.8
 10
-17.2
 20
2.8
  0
POINT
  5
25A
100
AcDbEntity
  8
holes
  6
ByLayer
 62
  256
370
   -1
100
AcDbPoint
 10
-30
 20
0
  0
LWPOLYLINE
  5
25B
100
AcDbEntity
  8
holes
  6
ByLayer
 62
  256
370
   -1
100
AcDbPolyline
 90
    4
 70
    1
 43
0
 10
-27.2
 20
-2.8
 10
-32.8
 20
-2.8
 10
-32.8
 20
2.8
 10
-27.2
 20
2.8
  0
POINT
  5
25C
100
AcDbEntity
  8
holes
  6
ByLayer
 62
  256
370
   -1
100
AcDbPoint
 10
-40
 20
0
  0
LWPOLYLINE
  5
25D
100
AcDbEntity
  8
holes
  6
ByLayer
 62
  256
370
   -1
100
AcDbPolyline
 90
    4
 70
    1
 43
0
 10
-37.2
 20
-2.8
 10
-42.8
 20
-2.8
 10
-42.8
 20
2.8
 10
-37.2
 20
2.8
  0
POINT
  5
25E
100
AcDbEntity
  8
holes
  6
ByLayer
 62
  256
370
   -1
100
AcDbPoint
 10
-50
 20
0
  0
LWPOLYLINE
  5
25F
100
AcDbEntity
  8
holes
  6
ByLayer
 62
  256
370
   -1
100
AcDbPolyline
 90
    4
 70
    1
 43
0
 10
-47.2
 20
-2.8
 10
-52.8
 20
-2.8
 10
-52.8
 20
2.8
 10
-47.2
 20
2.8
  0
POINT
  5
260
100
AcDbEntity
  8
holes
  6
ByLayer
 62
  256
370
   -1
100
AcDbPoint
 10
-60
 20
0
  0
LWPOLYLINE
  5
261
100
AcDbEntity
  8
holes
  6
ByLayer
 62
  256
370
   -1
100
AcDbPolyline
 90
    4
 70
    1
 43
0
 10
-57.2
 20
-2.8
 10
-62.8
 20
-2.8
 10
-62.8
 20
2.8
 10
-57.2
 20
2.8
  0
POINT
  5
262
100
AcDbEntity
  8
holes
  6
ByLayer
 62
  256
370
   -1
100
AcDbPoint
 10
0
 20
10
  0
LWPOLYLINE
  5
263
100
AcDbEntity
  8
holes
  6
ByLayer
 62
  256
370
   -1
100
AcDbPolyline
 90
    4
 70
    1
 43
0
 10
2.8
 20
7.2
 10
-2.799999999999999
 20
7.2
 10
-2.799999999999999
 20
12.8
 10
2.8
 20
12.8
  0
POINT
  5
264
100
AcDbEntity
  8
holes
  6
ByLayer
 62
  256
370
   -1
100
AcDbPoint
 10
-10
 20
10
  0
LWPOLYLINE
  5
265
100
AcDbEntity
  8
holes
  6
ByLayer
 62
  256
370
   -1
100
AcDbPolyline
 90
    4
 70
    1
 43
0
 10
-7.2
 20
7.2
 10
-12.8
 20
7.2
 10
-12.8
 20
12.8
 10
-7.2
 20
12.8
  0
POINT
  5
266
100
AcDbEntity
  8
holes
  6
ByLayer
 62
  256
370
   -1
100
AcDbPoint
 10
-20
 20
10
  0
LWPOLYLINE
  5
267
100
AcDbEntity
  8
holes
  6
ByLayer
 62
  256
370
   -1
100
AcDbPolyline
 90
    4
 70
    1
 43
0
 10
-17.2
 20
7.2
 10
-22.8
 20
7.2
 10
-22.8
 20
12.8
 10
-17.2
 20
12.8
  0
POINT
  5
268
100
AcDbEntity
  8
holes
  6
ByLayer
 62
  256
370
   -1
100
AcDbPoint
 10
-30
 20
10
  0
LWPOLYLINE
  5
269
100
AcDbEntity
  8
holes
  6
ByLayer
 62
  256
370
   -1
100
AcDbPolyline
 90
    4
 70
    1
 43
0
 10
-27.2
 20
7.2
 10
-32.8
 20
7.2
 10
-32.8
 20
12.8
 10
-27.2
 20
12.8
  0
POINT
  5
26A
100
AcDbEntity
  8
holes
  6
ByLayer
 62
  256
370
   -1
100
AcDbPoint
 10
-40
 20
10
  0
LWPOLYLINE
  5
26B
100
AcDbEntity
  8
holes
  6
ByLayer
 62
  256
370
   -1
100
AcDbPolyline
 90
    4
 70
    1
 43
0
 10
-37.2
 20
7.2
 10
-42.8
 20
7.2
 10
-42.8
 20
12.8
 10
-37.2
 20
12.8
  0
POINT
  5
26C
100
AcDbEntity
  8
holes
  6
ByLayer
 62
  256
370
   -1
100
AcDbPoint
 10
-50
 20
10
  0
LWPOLYLINE
  5
26D
100
AcDbEntity
  8
holes
  6
ByLayer
 62
  256
370
   -1
100
AcDbPolyline
 90
    4
 70
    1
 43
0
 10
-47.2
 20
7.2
 10
-52.8
 20
7.2
 10
-52.8
 20
12.8
 10
-47.2
 20
12.8
  0
POINT
  5
26E
100
AcDbEntity
  8
holes
  6
ByLayer
 62
  256
370
   -1
100
AcDbPoint
 10
-60
 20
10
  0
LWPOLYLINE
  5
26F
100
AcDbEntity
  8
holes
  6
ByLayer
 62
  256
370
   -1
100
AcDbPolyline
 90
    4
 70
    1
 43
0
 10
-57.2
 20
7.2
 10
-62.8
 20
7.2
 10
-62.8
 20
12.8
 10
-57.2
 20
12.8
  0
POINT
  5
270
100
AcDbEntity
  8
holes
  6
ByLayer
 62
  256
370
   -1
100
AcDbPoint
 10
-70
 20
10
  0
LWPOLYLINE
  5
271
100
AcDbEntity
  8
holes
  6
ByLayer
 62
  256
370
   -1
100
AcDbPolyline
 90
    4
 70
    1
 43
0
 10
-67.2
 20
7.2
 10
-72.8
 20
7.2
 10
-72.8
 20
12.8
 10
-67.2
 20
12.8
  0
POINT
  5
272
100
AcDbEntity
  8
holes
  6
ByLayer
 62
  256
370
   -1
100
AcDbPoint
 10
0
 20
20
  0
LWPOLYLINE
  5
273
100
AcDbEntity
  8
holes
  6
ByLayer
 62
  256
370
   -1
100
AcDbPolyline
 90
    4
 70
    1
 43
0
 10
2.8
 20
17.2
 10
-2.799999999999999
 20
17.2
 10
-2.799999999999999
 20
22.8
 10
2.8
 20
22.8
  0
POINT
  5
274
100
AcDbEntity
  8
holes
  6
ByLayer
 62
  256
370
   -1
100
AcDbPoint
 10
-10
 20
20
  0
LWPOLYLINE
  5
275
100
AcDbEntity
  8
holes
  6
ByLayer
 62
  256
370
   -1
100
AcDbPolyline
 90
    4
 70
    1
 43
0
 10
-7.2
 20
17.2
 10
-12.8
 20
17.2
 10
-12.8
 20
22.8
 10
-7.2
 20
22.8
  0
POINT
  5
276
100
AcDbEntity
  8
holes
  6
ByLayer
 62
  256
370
   -1
100
AcDbPoint
 10
-20
 20
20
  0
LWPOLYLINE
  5
277
100
AcDbEntity
  8
holes
  6
ByLayer
 62
  256
370
   -1
100
AcDbPolyline
 90
    4
 70
    1
 43
0
 10
-17.2
 20
17.2
 10
-22.8
 20
17.2
 10
-22.8
 20
22.8
 10
-17.2
 20
22.8
  0
POINT
  5
278
100
AcDbEntity
  8
holes
  6
ByLayer
 62
  256
370
   -1
100
AcDbPoint
 10
-30
 20
20
  0
LWPOLYLINE
  5
279
100
AcDbEntity
  8
holes
  6
ByLayer
 62
  256
370
   -1
100
AcDbPolyline
 90
    4
 70
    1
 43
0
 10
-27.2
 20
17.2
 10
-32.8
 20
17.2
 10
-32.8
 20
22.8
 10
-27.2
 20
22.8
  0
POINT
  5
27A
100
AcDbEntity
  8
holes
  6
ByLayer
 62
  256
370
   -1
100
AcDbPoint
 10
-40
 20
20
  0
LWPOLYLINE
  5
27B
100
AcDbEntity
  8
holes
  6
ByLayer
 62
  256
370
   -1
100
AcDbPolyline
 90
    4
 70
    1
 43
0
 10
-37.2
 20
17.2
 10
-42.8
 20
17.2
 10
-42.8
 20
22.8
 10
-37.2
 20
22.8
  0
POINT
  5
27C
100
AcDbEntity
  8
holes
  6
ByLayer
 62
  256
370
   -1
100
AcDbPoint
 10
-50
 20
20
  0
LWPOLYLINE
  5
27D
100
AcDbEntity
  8
holes
  6
ByLayer
 62
  256
370
   -1
100
AcDbPolyline
 90
    4
 70
    1
 43
0
 10
-47.2
 20
17.2
 10
-52.8
 20
17.2
 10
-52.8
 20
22.8
 10
-47.2
 20
22.8
  0
POINT
  5
27E
100
AcDbEntity
  8
holes
  6
ByLayer
 62
  256
370
   -1
100
AcDbPoint
 10
-60
 20
20
  0
LWPOLYLINE
  5
27F
100
AcDbEntity
  8
holes
  6
ByLayer
 62
  256
370
   -1
100
AcDbPolyline
 90
    4
 70
    1
 43
0
 10
-57.2
 20
17.2
 10
-62.8
 20
17.2
 10
-62.8
 20
22.8
 10
-57.2
 20
22.8
  0
POINT
  5
280
100
AcDbEntity
  8
holes
  6
ByLayer
 62
  256
370
   -1
100
AcDbPoint
 10
-70
 20
20
  0
LWPOLYLINE
  5
281
100
AcDbEntity
  8
holes
  6
ByLayer
 62
  256
370
   -1
100
AcDbPolyline
 90
    4
 70
    1
 43
0
 10
-67.2
 20
17.2
 10
-72.8
 20
17.2
 10
-72.8
 20
22.8
 10
-67.2
 20
22.8
  0
POINT
  5
282
100
AcDbEntity
  8
holes
  6
ByLayer
 62
  256
370
   -1
100
AcDbPoint
 10
0
 20
30
  0
LWPOLYLINE
  5
283
100
AcDbEntity
  8
holes
  6
ByLayer
 62
  256
370
   -1
100
AcDbPolyline
 90
    4
 70
    1
 43
0
 10
2.8
 20
27.2
 10
-2.799999999999999
 20
27.2
 10
-2.799999999999999
 20
32.8
 10
2.8
 20
32.8
  0
POINT
  5
284
100
AcDbEntity
  8
holes
  6
ByLayer
 62
  256
370
   -1
100
AcDbPoint
 10
-10
 20
30
  0
LWPOLYLINE
  5
285
100
AcDbEntity
  8
holes
  6
ByLayer
 62
  256
370
   -1
100
AcDbPolyline
 90
    4
 70
    1
 43
0
 10
-7.2
 20
27.2
 10
-12.8
 20
27.2
 10
-12.8
 20
32.8
 10
-7.2
 20
32.8
  0
POINT
  5
286
100
AcDbEntity
  8
holes
  6
ByLayer
 62
  256
370
   -1
100
AcDbPoint
 10
-20
 20
30
  0
LWPOLYLINE
  5
287
100
AcDbEntity
  8
holes
  6
ByLayer
 62
  256
370
   -1
100
AcDbPolyline
 90
    4
 70
    1
 43
0
 10
-17.2
 20
27.2
 10
-22.8
 20
27.2
 10
-22.8
 20
32.8
 10
-17.2
 20
32.8
  0
POINT
  5
288
100
AcDbEntity
  8
holes
  6
ByLayer
 62
  256
370
   -1
100
AcDbPoint
 10
-30
 20
30
  0
LWPOLYLINE
  5
289
100
AcDbEntity
  8
holes
  6
ByLayer
 62
  256
370
   -1
100
AcDbPolyline
 90
    4
 70
    1
 43
0
 10
-27.2
 20
27.2
 10
-32.8
 20
27.2
 10
-32.8
 20
32.8
 10
-27.2
 20
32.8
  0
POINT
  5
28A
100
AcDbEntity
  8
holes
  6
ByLayer
 62
  256
370
   -1
100
AcDbPoint
 10
-40
 20
30
  0
LWPOLYLINE
  5
28B
100
AcDbEntity
  8
holes
  6
ByLayer
 62
  256
370
   -1
100
AcDbPolyline
 90
    4
 70
    1
 43
0
 10
-37.2
 20
27.2
 10
-42.8
 20
27.2
 10
-42.8
 20
32.8
 10
-37.2
 20
32.8
  0
POINT
  5
28C
100
AcDbEntity
  8
holes
  6
ByLayer
 62
  256
370
   -1
100
AcDbPoint
 10
-50
 20
30
  0
LWPOLYLINE
  5
28D
100
AcDbEntity
  8
holes
  6
ByLayer
 62
  256
370
   -1
100
AcDbPolyline
 90
    4
 70
    1
 43
0
 10
-47.2
 20
27.2
 10
-52.8
 20
27.2
 10
-52.8
 20
32.8
 10
-47.2
 20
32.8
  0
POINT
  5
28E
100
AcDbEntity
  8
holes
  6
ByLayer
 62
  256
370
   -1
100
AcDbPoint
 10
-60
 20
30
  0
LWPOLYLINE
  5
28F
100
AcDbEntity
  8
holes
  6
ByLayer
 62
  256
370
   -1
100
AcDbPolyline
 90
    4
 70
    1
 43
0
 10
-57.2
 20
27.2
 10
-62.8
 20
27.2
 10
-62.8
 20
32.8
 10
-57.2
 20
32.8
  0
POINT
  5
290
100
AcDbEntity
  8
holes
  6
ByLayer
 62
  256
370
   -1
100
AcDbPoint
 10
-70
 20
30
  0
LWPOLYLINE
  5
291
100
AcDbEntity
  8
holes
  6
ByLayer
 62
  256
370
   -1
100
AcDbPolyline
 90
    4
 70
    1
 43
0
 10
-67.2
 20
27.2
 10
-72.8
 20
27.2
 10
-72.8
 20
32.8
 10
-67.2
 20
32.8
  0
POINT
  5
292
100
AcDbEntity
  8
holes
  6
ByLayer
 62
  256
370
   -1
100
AcDbPoint
 10
0
 20
40
  0
LWPOLYLINE
  5
293
100
AcDbEntity
  8
holes
  6
ByLayer
 62
  256
370
   -1
100
AcDbPolyline
 90
    4
 70
    1
 43
0
 10
2.8
 20
37.2
 10
-2.799999999999999
 20
37.2
 10
-2.799999999999999
 20
42.8
 10
2.8
 20
42.8
  0
POINT
  5
294
100
AcDbEntity
  8
holes
  6
ByLayer
 62
  256
370
   -1
100
AcDbPoint
 10
-10
 20
40
  0
LWPOLYLINE
  5
295
100
AcDbEntity
  8
holes
  6
ByLayer
 62
  256
370
   -1
100
AcDbPolyline
 90
    4
 70
    1
 43
0
 10
-7.2
 20
37.2
 10
-12.8
 20
37.2
 10
-12.8
 20
42.8
 10
-7.2
 20
42.8
  0
POINT
  5
296
100
AcDbEntity
  8
holes
  6
ByLayer
 62
  256
370
   -1
100
AcDbPoint
 10
-20
 20
40
  0
LWPOLYLINE
  5
297
100
AcDbEntity
  8
holes
  6
ByLayer
 62
  256
370
   -1
100
AcDbPolyline
 90
    4
 70
    1
 43
0
 10
-17.2
 20
37.2
 10
-22.8
 20
37.2
 10
-22.8
 20
42.8
 10
-17.2
 20
42.8
  0
POINT
  5
298
100
AcDbEntity
  8
holes
  6
ByLayer
 62
  256
370
   -1
100
AcDbPoint
 10
-30
 20
40
  0
LWPOLYLINE
  5
299
100
AcDbEntity
  8
holes
  6
ByLayer
 62
  256
370
   -1
100
AcDbPolyline
 90
    4
 70
    1
 43
0
 10
-27.2
 20
37.2
 10
-32.8
 20
37.2
 10
-32.8
 20
42.8
 10
-27.2
 20
42.8
  0
POINT
  5
29A
100
AcDbEntity
  8
holes
  6
ByLayer
 62
  256
370
   -1
100
AcDbPoint
 10
-40
 20
40
  0
LWPOLYLINE
  5
29B
100
AcDbEntity
  8
holes
  6
ByLayer
 62
  256
370
   -1
100
AcDbPolyline
 90
    4
 70
    1
 43
0
 10
-37.2
 20
37.2
 10
-42.8
 20
37.2
 10
-42.8
 20
42.8
 10
-37.2
 20
42.8
  0
POINT
  5
29C
100
AcDbEntity
  8
holes
  6
ByLayer
 62
  256
370
   -1
100
AcDbPoint
 10
-50
 20
40
  0
LWPOLYLINE
  5
29D
100
AcDbEntity
  8
holes
  6
ByLayer
 62
  256
370
   -1
100
AcDbPolyline
 90
    4
 70
    1
 43
0
 10
-47.2
 20
37.2
 10
-52.8
 20
37.2
 10
-52.8
 20
42.8
 10
-47.2
 20
42.8
  0
POINT
  5
29E
100
AcDbEntity
  8
holes
  6
ByLayer
 62
  256
370
   -1
100
AcDbPoint
 10
-60
 20
40
  0
LWPOLYLINE
  5
29F
100
AcDbEntity
  8
holes
  6
ByLayer
 62
  256
370
   -1
100
AcDbPolyline
 90
    4
 70
    1
 43
0
 10
-57.2
 20
37.2
 10
-62.8
 20
37.2
 10
-62.8
 20
42.8
 10
-57.2
 20
42.8
  0
POINT
  5
2A0
100
AcDbEntity
  8
holes
  6
ByLayer
 62
  256
370
   -1
100
AcDbPoint
 10
-70
 20
40
  0
LWPOLYLINE
  5
2A1
100
AcDbEntity
  8
holes
  6
ByLayer
 62
  256
370
   -1
100
AcDbPolyline
 90
    4
 70
    1
 43
0
 10
-67.2
 20
37.2
 10
-72.8
 20
37.2
 10
-72.8
 20
42.8
 10
-67.2
 20
42.8
  0
POINT
  5
2A2
100
AcDbEntity
  8
holes
  6
ByLayer
 62
  256
370
   -1
100
AcDbPoint
 10
0
 20
50
  0
LWPOLYLINE
  5
2A3
100
AcDbEntity
  8
holes
  6
ByLayer
 62
  256
370
   -1
100
AcDbPolyline
 90
    4
 70
    1
 43
0
 10
2.8
 20
47.2
 10
-2.799999999999999
 20
47.2
 10
-2.799999999999999
 20
52.8
 10
2.8
 20
52.8
  0
POINT
  5
2A4
100
AcDbEntity
  8
holes
  6
ByLayer
 62
  256
370
   -1
100
AcDbPoint
 10
-10
 20
50
  0
LWPOLYLINE
  5
2A5
100
AcDbEntity
  8
holes
  6
ByLayer
 62
  256
370
   -1
100
AcDbPolyline
 90
    4
 70
    1
 43
0
 10
-7.2
 20
47.2
 10
-12.8
 20
47.2
 10
-12.8
 20
52.8
 10
-7.2
 20
52.8
  0
POINT
  5
2A6
100
AcDbEntity
  8
holes
  6
ByLayer
 62
  256
370
   -1
100
AcDbPoint
 10
-20
 20
50
  0
LWPOLYLINE
  5
2A7
100
AcDbEntity
  8
holes
  6
ByLayer
 62
  256
370
   -1
100
AcDbPolyline
 90
    4
 70
    1
 43
0
 10
-17.2
 20
47.2
 10
-22.8
 20
47.2
 10
-22.8
 20
52.8
 10
-17.2
 20
52.8
  0
POINT
  5
2A8
100
AcDbEntity
  8
holes
  6
ByLayer
 62
  256
370
   -1
100
AcDbPoint
 10
-30
 20
50
  0
LWPOLYLINE
  5
2A9
100
AcDbEntity
  8
holes
  6
ByLayer
 62
  256
370
   -1
100
AcDbPolyline
 90
    4
 70
    1
 43
0
 10
-27.2
 20
47.2
 10
-32.8
 20
47.2
 10
-32.8
 20
52.8
 10
-27.2
 20
52.8
  0
POINT
  5
2AA
100
AcDbEntity
  8
holes
  6
ByLayer
 62
  256
370
   -1
100
AcDbPoint
 10
-40
 20
50
  0
LWPOLYLINE
  5
2AB
100
AcDbEntity
  8
holes
  6
ByLayer
 62
  256
370
   -1
100
AcDbPolyline
 90
    4
 70
    1
 43
0
 10
-37.2
 20
47.2
 10
-42.8
 20
47.2
 10
-42.8
 20
52.8
 10
-37.2
 20
52.8
  0
POINT
  5
2AC
100
AcDbEntity
  8
holes
  6
ByLayer
 62
  256
370
   -1
100
AcDbPoint
 10
-50
 20
50
  0
LWPOLYLINE
  5
2AD
100
AcDbEntity
  8
holes
  6
ByLayer
 62
  256
370
   -1
100
AcDbPolyline
 90
    4
 70
    1
 43
0
 10
-47.2
 20
47.2
 10
-52.8
 20
47.2
 10
-52.8
 20
52.8
 10
-47.2
 20
52.8
  0
POINT
  5
2AE
100
AcDbEntity
  8
holes
  6
ByLayer
 62
  256
370
   -1
100
AcDbPoint
 10
-60
 20
50
  0
LWPOLYLINE
  5
2AF
100
AcDbEntity
  8
holes
  6
ByLayer
 62
  256
370
   -1
100
AcDbPolyline
 90
    4
 70
    1
 43
0
 10
-57.2
 20
47.2
 10
-62.8
 20
47.2
 10
-62.8
 20
52.8
 10
-57.2
 20
52.8
  0
POINT
  5
2B0
100
AcDbEntity
  8
holes
  6
ByLayer
 62
  256
370
   -1
100
AcDbPoint
 10
-70
 20
50
  0
LWPOLYLINE
  5
2B1
100
AcDbEntity
  8
holes
  6
ByLayer
 62
  256
370
   -1
100
AcDbPolyline
 90
    4
 70
    1
 43
0
 10
-67.2
 20
47.2
 10
-72.8
 20
47.2
 10
-72.8
 20
52.8
 10
-67.2
 20
52.8
  0
POINT
  5
2B2
100
AcDbEntity
  8
holes
  6
ByLayer
 62
  256
370
   -1
100
AcDbPoint
 10
0
 20
60
  0
LWPOLYLINE
  5
2B3
100
AcDbEntity
  8
holes
  6
ByLayer
 62
  256
370
   -1
100
AcDbPolyline
 90
    4
 70
    1
 43
0
 10
2.8
 20
57.2
 10
-2.799999999999999
 20
57.2
 10
-2.799999999999999
 20
62.8
 10
2.8
 20
62.8
  0
POINT
  5
2B4
100
AcDbEntity
  8
holes
  6
ByLayer
 62
  256
370
   -1
100
AcDbPoint
 10
-10
 20
60
  0
LWPOLYLINE
  5
2B5
100
AcDbEntity
  8
holes
  6
ByLayer
 62
  256
370
   -1
100
AcDbPolyline
 90
    4
 70
    1
 43
0
 10
-7.2
 20
57.2
 10
-12.8
 20
57.2
 10
-12.8
 20
62.8
 10
-7.2
 20
62.8
  0
POINT
  5
2B6
100
AcDbEntity
  8
holes
  6
ByLayer
 62
  256
370
   -1
100
AcDbPoint
 10
-20
 20
60
  0
LWPOLYLINE
  5
2B7
100
AcDbEntity
  8
holes
  6
ByLayer
 62
  256
370
   -1
100
AcDbPolyline
 90
    4
 70
    1
 43
0
 10
-17.2
 20
57.2
 10
-22.8
 20
57.2
 10
-22.8
 20
62.8
 10
-17.2
 20
62.8
  0
POINT
  5
2B8
100
AcDbEntity
  8
holes
  6
ByLayer
 62
  256
370
   -1
100
AcDbPoint
 10
-30
 20
60
  0
LWPOLYLINE
  5
2B9
100
AcDbEntity
  8
holes
  6
ByLayer
 62
  256
370
   -1
100
AcDbPolyline
 90
    4
 70
    1
 43
0
 10
-27.2
 20
57.2
 10
-32.8
 20
57.2
 10
-32.8
 20
62.8
 10
-27.2
 20
62.8
  0
POINT
  5
2BA
100
AcDbEntity
  8
holes
  6
ByLayer
 62
  256
370
   -1
100
AcDbPoint
 10
-40
 20
60
  0
LWPOLYLINE
  5
2BB
100
AcDbEntity
  8
holes
  6
ByLayer
 62
  256
370
   -1
100
AcDbPolyline
 90
    4
 70
    1
 43
0
 10
-37.2
 20
57.2
 10
-42.8
 20
57.2
 10
-42.8
 20
62.8
 10
-37.2
 20
62.8
  0
POINT
  5
2BC
100
AcDbEntity
  8
holes
  6
ByLayer
 62
  256
370
   -1
100
AcDbPoint
 10
-50
 20
60
  0
LWPOLYLINE
  5
2BD
100
AcDbEntity
  8
holes
  6
ByLayer
 62
  256
370
   -1
100
AcDbPolyline
 90
    4
 70
    1
 43
0
 10
-47.2
 20
57.2
 10
-52.8
 20
57.2
 10
-52.8
 20
62.8
 10
-47.2
 20
62.8
  0
POINT
  5
2BE
100
AcDbEntity
  8
holes
  6
ByLayer
 62
  256
370
   -1
100
AcDbPoint
 10
-60
 20
60
  0
LWPOLYLINE
  5
2BF
100
AcDbEntity
  8
holes
  6
ByLayer
 62
  256
370
   -1
100
AcDbPolyline
 90
    4
 70
    1
 43
0
 10
-57.2
 20
57.2
 10
-62.8
 20
57.2
 10
-62.8
 20
62.8
 10
-57.2
 20
62.8
  0
POINT
  5
2C0
100
AcDbEntity
  8
holes
  6
ByLayer
 62
  256
370
   -1
100
AcDbPoint
 10
-70
 20
60
  0
LWPOLYLINE
  5
2C1
100
AcDbEntity
  8
holes
  6
ByLayer
 62
  256
370
   -1
100
AcDbPolyline
 90
    4
 70
    1
 43
0
 10
-67.2
 20
57.2
 10
-72.8
 20
57.2
 10
-72.8
 20
62.8
 10
-67.2
 20
62.8
  0
POINT
  5
2C2
100
AcDbEntity
  8
holes
  6
ByLayer
 62
  256
370
   -1
100
AcDbPoint
 10
-10
 20
70
  0
LWPOLYLINE
  5
2C3
100
AcDbEntity
  8
holes
  6
ByLayer
 62
  256
370
   -1
100
AcDbPolyline
 90
    4
 70
    1
 43
0
 10
-7.2
 20
67.2
 10
-12.8
 20
67.2
 10
-12.8
 20
72.8
 10
-7.2
 20
72.8
  0
POINT
  5
2C4
100
AcDbEntity
  8
holes
  6
ByLayer
 62
  256
370
   -1
100
AcDbPoint
 10
-20
 20
70
  0
LWPOLYLINE
  5
2C5
100
AcDbEntity
  8
holes
  6
ByLayer
 62
  256
370
   -1
100
AcDbPolyline
 90
    4
 70
    1
 43
0
 10
-17.2
 20
67.2
 10
-22.8
 20
67.2
 10
-22.8
 20
72.8
 10
-17.2
 20
72.8
  0
POINT
  5
2C6
100
AcDbEntity
  8
holes
  6
ByLayer
 62
  256
370
   -1
100
AcDbPoint
 10
-30
 20
70
  0
LWPOLYLINE
  5
2C7
100
AcDbEntity
  8
holes
  6
ByLayer
 62
  256
370
   -1
100
AcDbPolyline
 90
    4
 70
    1
 43
0
 10
-27.2
 20
67.2
 10
-32.8
 20
67.2
 10
-32.8
 20
72.8
 10
-27.2
 20
72.8
  0
POINT
  5
2C8
100
AcDbEntity
  8
holes
  6
ByLayer
 62
  256
370
   -1
100
AcDbPoint
 10
-40
 20
70
  0
LWPOLYLINE
  5
2C9
100
AcDbEntity
  8
holes
  6
ByLayer
 62
  256
370
   -1
100
AcDbPolyline
 90
    4
 70
    1
 43
0
 10
-37.2
 20
67.2
 10
-42.8
 20
67.2
 10
-42.8
 20
72.8
 10
-37.2
 20
72.8
  0
POINT
  5
2CA
100
AcDbEntity
  8
holes
  6
ByLayer
 62
  256
370
   -1
100
AcDbPoint
 10
-50
 20
70
  0
LWPOLYLINE
  5
2CB
100
AcDbEntity
  8
holes
  6
ByLayer
 62
  256
370
   -1
100
AcDbPolyline
 90
    4
 70
    1
 43
0
 10
-47.2
 20
67.2
 10
-52.8
 20
67.2
 10
-52.8
 20
72.8
 10
-47.2
 20
72.8
  0
POINT
  5
2CC
100
AcDbEntity
  8
holes
  6
ByLayer
 62
  256
370
   -1
100
AcDbPoint
 10
-60
 20
70
  0
LWPOLYLINE
  5
2CD
100
AcDbEntity
  8
holes
  6
ByLayer
 62
  256
370
   -1
100
AcDbPolyline
 90
    4
 70
    1
 43
0
 10
-57.2
 20
67.2
 10
-62.8
 20
67.2
 10
-62.8
 20
72.8
 10
-57.2
 20
72.8
  0
LINE
  5
2CE
100
AcDbEntity
  8
leather
  6
ByLayer
 62
  256
370
   -1
100
AcDbLine
 10
20
 20
70
 11
20
 21
0
  0
LINE
  5
2CF
100
AcDbEntity
  8
leather
  6
ByLayer
 62
  256
370
   -1
100
AcDbLine
 10
0
 20
-20
 11
20
 21
0
  0
LINE
  5
2D0
100
AcDbEntity
  8
leather
  6
ByLayer
 62
  256
370
   -1
100
AcDbLine
 10
0
 20
-20
 11
-70
 21
-20
  0
LINE
  5
2D1
100
AcDbEntity
  8
leather
  6
ByLayer
 62
  256
370
   -1
100
AcDbLine
 10
-70
 20
-20
 11
-90
 21
0
  0
LINE
  5
2D2
100
AcDbEntity
  8
leather
  6
ByLayer
 62
  256
370
   -1
100
AcDbLine
 10
0
 20
90
 11
20
 21
70
  0
LINE
  5
2D3
100
AcDbEntity
  8
leather
  6
ByLayer
 62
  256
370
   -1
100
AcDbLine
 10
-70
 20
90
 11
0
 21
90
  0
LINE
  5
2D4
100
AcDbEntity
  8
leather
  6
ByLayer
 62
  256
370
   -1
100
AcDbLine
 10
-90
 20
0
 11
-90
 21
70
  0
LINE
  5
2D5
100
AcDbEntity
  8
leather
  6
ByLayer
 62
  256
370
   -1
100
AcDbLine
 10
-90
 20
70
 11
-70
 21
90
  0
ENDSEC
  0
SECTION
  2
OBJECTS
  0
DICTIONARY
  5
C
330
0
100
AcDbDictionary
281
    1
  3
ACAD_GROUP
350
D
  0
DICTIONARY
  5
D
330
C
100
AcDbDictionary
281
    1
  0
PLOTSETTINGS
  5
2D6
100
AcDbPlotSettings
  6
1x1
 40
0
 41
0
 42
0
 43
0
  0
ENDSEC
  0
EOF
